<mxfile host="Electron" agent="Mozilla/5.0 (Macintosh; Intel Mac OS X 10_15_7) AppleWebKit/537.36 (KHTML, like Gecko) draw.io/24.7.17 Chrome/128.0.6613.36 Electron/32.0.1 Safari/537.36" version="24.7.17">
  <diagram name="Page-1" id="ury7r1SNy5DmtzpDxksp">
    <mxGraphModel dx="3268" dy="1544" grid="0" gridSize="10" guides="1" tooltips="1" connect="1" arrows="1" fold="1" page="0" pageScale="1" pageWidth="850" pageHeight="1100" math="0" shadow="0">
      <root>
        <mxCell id="0" />
        <mxCell id="1" parent="0" />
        <mxCell id="Y3hGMBcqYMoVdizW5Zd7-1" value="" style="rounded=1;whiteSpace=wrap;html=1;arcSize=3;" vertex="1" parent="1">
          <mxGeometry x="-211" y="144" width="671" height="449" as="geometry" />
        </mxCell>
        <mxCell id="Y3hGMBcqYMoVdizW5Zd7-2" value="Writing" style="text;html=1;align=center;verticalAlign=middle;whiteSpace=wrap;rounded=0;fontSize=30;" vertex="1" parent="1">
          <mxGeometry x="27.5" y="44" width="194" height="47" as="geometry" />
        </mxCell>
        <mxCell id="Y3hGMBcqYMoVdizW5Zd7-3" value="Math" style="text;html=1;align=center;verticalAlign=middle;whiteSpace=wrap;rounded=0;fontSize=30;" vertex="1" parent="1">
          <mxGeometry x="912" y="44" width="194" height="47" as="geometry" />
        </mxCell>
        <mxCell id="Y3hGMBcqYMoVdizW5Zd7-5" value="" style="rounded=1;whiteSpace=wrap;html=1;arcSize=3;" vertex="1" parent="1">
          <mxGeometry x="673.5" y="144" width="671" height="449" as="geometry" />
        </mxCell>
        <mxCell id="Y3hGMBcqYMoVdizW5Zd7-6" value="A a" style="text;html=1;align=center;verticalAlign=middle;whiteSpace=wrap;rounded=0;fontSize=50;" vertex="1" parent="1">
          <mxGeometry x="44" y="163" width="161" height="92" as="geometry" />
        </mxCell>
        <mxCell id="Y3hGMBcqYMoVdizW5Zd7-7" value="" style="endArrow=none;html=1;rounded=0;entryX=-0.001;entryY=0.212;entryDx=0;entryDy=0;entryPerimeter=0;exitX=1;exitY=0.212;exitDx=0;exitDy=0;exitPerimeter=0;" edge="1" parent="1">
          <mxGeometry width="50" height="50" relative="1" as="geometry">
            <mxPoint x="460.3399999999998" y="240" as="sourcePoint" />
            <mxPoint x="-211.33100000000007" y="240" as="targetPoint" />
          </mxGeometry>
        </mxCell>
        <mxCell id="Y3hGMBcqYMoVdizW5Zd7-10" value="" style="shape=stencil(nVjbbhNBDP2avFpz9YyfC/wHEi2NKC0q5fb3eBXNZu3JnhW8palPPL4dX0757vvjx2/3pxS+v72+fLn/df709njK704pnZ8f71/Pb/rplN+f8t3Dy+v959eXH8+fLn9/+7hILp++vvxcfuH3BRco9gWUwp/LF9KpXb75cJF/Oj9v5CO1auUbhbgvn6kVK1+oh315piJWPhI38B41IBlAb5QQoFBpFqA2IYBQtia3SiHvA1Khan3K+iRgcxLq2QBqpyrAqYXEaihCBUVBNbAFBEppH1AKZashR6ih6IutDRp6Bl6qiZKNdNRMAnGoldjGIUbqwEvqRGdDpwgUcCAONgwjVW7LJyr2QXn44La81oINQoJpwewTL1AFMeMpUQMF8PstUXcOhaXfNK+tfIGl37SWbUo06M/WqUf7nkQVKNDCrZZcrrV6GzBZoE9qIIWUS6oNWdZSLvsACZ5dSqMINEimYMugMgkDQKVkbeAKwyZM3T6pZcogT5XRxcahKbuARNKWUayXeoaVKVOk1dERuVUoWqO7DJ17gGprWSMjsI+sxbIiEjVsdbadR0ODGon6tZcJgNzUKLcJAApC1tTZABBlKIAnDQn5lUdFbvq5gJK7CeCDJ7EH5AOjqwcE9KTmeVKLsCOjNXDJA2DJ9fHiLQAXhGsNChBktBZE9kZH5FbxzVABsKhlmsQKNayhTOkN4yCDSjcARN/qJQkegOakhZi6BzTEM30igQrHVU2NOpMATj7H9wpgpIGniVu9dFCiEyBgwI1IowbBw+vbXMIl6pmvjPzd81KaCkhQ8rWJNQ4q7j8AflPS+QmRwDrOblYZ2OQm9tYmV1FDYc8a/WA64VHyK6DAEXHJfhs4HQUqyqUynLgZNtBQrF6P1gYde9FUee3j68DU4CrTlYyt0TqSFRC4rvVljdahD8WhJz+SHWwa6sQ4Da6IZnSUTtbouM6NtwF5cPV190loVtct22a3cgbIpBbG6nLdfRLafZrP7QQJYJlpk/t9NEZz8Q5aF9i93c21Q4a1yZO9+ExSp74Q123xNqAM+zbrMEq6GvzQrSZHkEOF/byqK30HGkocObk5GjA6S/Dg6M1ZAk0x+gBHYFVgWmiU3FiviYXioCttsnFudRD/7T1gpsgENw2Na3BXhg45tU+byUFm+OOQrIeQnYubO/Us+xzgxzSoapUXeLiJJOLlDy6G7OXRchgn/wje3Ab7r4UT8N1DG0ieFAADwrQjCXRo8GePxWAonyZ5hu/xE6TAM0kY/XQjj/b/eREWyI1hTJebEzJaCf/15Hwsrx+u9+2H89PT5Ty+/b+/h+tXl1t6fv8X);lineShape=1;strokeColor=default;" vertex="1" parent="1">
          <mxGeometry x="-27.926728427205262" y="301.4764071688038" width="84.89348565577953" height="125.45310336704853" as="geometry" />
        </mxCell>
        <mxCell id="Y3hGMBcqYMoVdizW5Zd7-11" value="" style="shape=stencil(rVfLbhsxDPyavRKUqOc5Tf8jQJzaqGsHjvv6+3K71TaivJMG6G0tDyWKHA6pSe5e9g/Pu8nzy/Vy/rz7fni87if5MHl/OO13l8NVvya5n+Tu6XzZfbqcv54el9/PDzNy/vpy/jbv8GOxY5IyG3n+uSykSiH+Xvm44I+H0yu8o5I6fCjk8zY+EucO73V/t43Xf2uHd7p/Af4k8twbeIph20A9Kv0JmYJs4yVTkQ4vVNGFmWrvkG8hu4lPQmLxCfifwxBRysD/4ikkg//j4G18oVQMPoIEVCEOHZ6pAALVTDUZPAN/qvrj+gRjfLWEECrI/0opdvhCAvKl+NrzwUm70W2G8nrBNaK6UuERpsh8IoeKplL0/Z0dBRwk7oMqkQS5VNp+q0FuPNlKc+5pIaWduWXgzAkJJyJR7KMkmNlq4ExYlYvo0pFqTw2tBYe4PRg4XUFRGlxyTA5U83jpSN6/J6qOMgrqkDbGzBt4wbB9jMTD6jUyO1FG9x1KR9sBot2N6tSOw9glIwA+tCz+o8Jol4NJGCUskAc9YdRIrU6HaWFEWKvz/xoMbUFdEpCIse+oJKV3NTY1CG90zmoNKnBpbs1GVpV9wGDu/WOUgEuyCtA6TukWIKx+GHdCogQMdD7KPfligBWnAmS4NIcBaJgKkJmnMFmlFXDDV61QsL/YCVVVNgC8tznQ6mAUUop9RGfNARLmB71gPME4is4eICgDxH3GtPjQBMZWXmqAExi301e8ayPoBt71/pcMST0IqlZqAlXDtiXkDJsmt9NXvLQUbt33XU+ct/H68fc99XQ4Hpfn2Ov/7ftLl5a3m9z/Ag==);lineShape=1;strokeColor=default;" vertex="1" parent="1">
          <mxGeometry x="5.792037155406888" y="375.90046098211224" width="52.16106056526926" height="5.587997775493368" as="geometry" />
        </mxCell>
        <mxCell id="Y3hGMBcqYMoVdizW5Zd7-12" value="" style="shape=stencil(7VrLbhw3EPyavRJk8312nP8wYDkS4kiGLOfx9ylmw82wuFuLALkE8E2aZQ373dXknOK7r48fvjyczH99e335+eG3p49vj6f4w8ns6fnx4fXpDX+d4vtTfPfp5fXhp9eXb88fz/9/+TBWjr9+efl1vOH3My6bq3WgzP9xfpKi6/bXkx/PgM9Pz0dAdKWvAO9KFYDkYlgAsbrsJYBEitHVIgHdLwDrLicJ+PvnCwBCKh0gQF4AoTsfBMBcXEUKMKsSybtcFkCfb7i6PjVX1w2KC2p9YQ2SXp9mFFyc4KyL9XG+7rC+ifWXoDnIE2+vR8ykzPqKMEXImCd7dhFDVl1d9Q3YQDjMgmtrWEPjLiwasquUB+aaMGnwzshliCph0+L8GkIj9ZSNnK0ClTKNfF0g11YTVSSySILACrfiusgyc4lcFlyR8pe4rocHRAyVKe1lfXZJrG8uGa+PSl/v6lpWetIGiptEJjVATBbaQRdflKm8VutWtQ/M5TUvW5p7XgfkGZMXQHBe6ACz+lVphFEQqRlRGtcdanRexQV62hoYBcVUFZe0FdMsUzMiUVaRis36cR0ApVdARj0SoRG7K6tIGVbSBbWvnkb2F1XhzdkaS6NpCR1Q4qmn5UuFutVD2uqHVHXTyZxxeEUVVhqAzICkd6A2C62UpwHgvhll0UCj9cYAr6xUZmweynxVni4bAzNZJ2F1agwAZKV03fyAHZRIdRK0A0A1Q9AXv5nVlFnbpBMHQFFmbdNNh9BQDR2A7BlQRF0aO5BIeZKOW4BCZu3TMzcBa6nMQTLhwQpXpXN2QSUQBFjLPeqSTNHOPKlox6FGULSWKpkhVOxrXareNeFpkPO09Qc5wqBlrSLVImMJpbevZq3oq2KHElygLmpSafQbv+6AttuEp9HRiAmgsUcBqHgfidRlTjc/fz7QMTXCQIBAbCbJxt43AgqCpXbonTtQr3LQA4Cnqir5EgC1MUDFEgAUGh2VSigdvHfeM0JF39iCZOqyo+BncjWeJK0E5Wjvks6M92UG3DETJcTBDtcRjYf6sYXS+mLFoxIiwAHYlUiiLQIQjQGqpfStaeFJ1YC4RVPUgESurpMH3rTSBpCubluA15lUt1zNk3eVxXJYfRNJ8Znh18CAJnrQSIjOZpWO60ymAZCT3NWsvlc4tmBSJz5D68KAorXOkQFNFz/b6sadYGIzXWrVfwSwrZS12byvN6HCo1wvMpjQ5oz8kGSxRCONVDZMTmZo1RQa6LxNAdJkVMfeLpQufqMbaZ5OXSc02zkC+Ik8z9wOQMGAvDrPDNx5a5b5AGJJ52nV5GkUuG5clS7IUQWoM+cvgDQJyK1Bi0ID5LiKBAL/Z76OAVXx9cyxdI/gZ1YaQqoU/T4hT8D3Cfl/MSHTLQJcqWa/4TjydL8X3mSlbJKdQEWekJMuM8anwKPaqqoR+Jx/zOAilsbZ4Bp8mDebcFysPFKj8iW1Q+HjyqJJX9yshKFdjXIxML1HX1U81LbZrzZ9kl24GLcoJw7betwgE6II2D4h+1nPr7PEyo7DCKzofUhc7rvuoiHM4fNIjYVI+x1Hk27IV8bdrCJpY951XjBctykH3rijET7w7LNBxuR65mJFxqmft5KXqKsz0q87gK9PStZFmEsqmJbK/TaZ46XeeUkYQmIHI/O82MC2i2jopO6kxrXaaqJx1a1CwubN7cWm8w23ihHd/0SZZbBIWDXQpWj0VaP1qk4MlsfvV9eyaTs9RLVW3z945qlJvh8NjPRt8noM/cuv7w/6IjpvCoemJSp86wgV1J1g3o4OUe7vnMgSh4xJBgVESqtIsUlqnrfr+qSPP8d1G1GRLD9RGDyiMCDpHeJGp6r+kobmwqTvNXPkUB1kXe0QuQUOgPJ03Ehnlm08bx9yDB2UWSOX+JGwSgeb5OkAUBehebtfHl/LKLPaZqUkj24GoDPAlJX+9Wdc9wH445+vxj49ff58/ujs+Dt/ZYZH5y/U4vs/AQ==);lineShape=1;strokeColor=default;" vertex="1" parent="1">
          <mxGeometry x="109.87141789670295" y="350.2132096203908" width="102.22346978043443" height="70.93380972514782" as="geometry" />
        </mxCell>
        <mxCell id="Y3hGMBcqYMoVdizW5Zd7-13" value="22 + 10 = 32" style="text;html=1;align=center;verticalAlign=middle;whiteSpace=wrap;rounded=0;fontSize=60;" vertex="1" parent="1">
          <mxGeometry x="732" y="289" width="543" height="90" as="geometry" />
        </mxCell>
        <mxCell id="Y3hGMBcqYMoVdizW5Zd7-14" value="" style="sketch=0;html=1;aspect=fixed;strokeColor=none;shadow=0;align=center;fillColor=#2D9C5E;verticalAlign=top;labelPosition=center;verticalLabelPosition=bottom;shape=mxgraph.gcp2.check" vertex="1" parent="1">
          <mxGeometry x="967" y="391" width="100" height="80" as="geometry" />
        </mxCell>
        <mxCell id="Y3hGMBcqYMoVdizW5Zd7-15" value="" style="shape=cross;whiteSpace=wrap;html=1;strokeColor=none;fillColor=#FF0000;rotation=45;" vertex="1" parent="1">
          <mxGeometry x="963.5" y="502" width="80" height="80" as="geometry" />
        </mxCell>
        <mxCell id="Y3hGMBcqYMoVdizW5Zd7-17" value="" style="shape=image;verticalLabelPosition=bottom;labelBackgroundColor=default;verticalAlign=top;aspect=fixed;imageAspect=0;image=data:image/png,iVBORw0KGgoAAAANSUhEUgAABjUAAAPyCAYAAAA0Vl2iAAAAAXNSR0IArs4c6QAAAERlWElmTU0AKgAAAAgAAYdpAAQAAAABAAAAGgAAAAAAA6ABAAMAAAABAAEAAKACAAQAAAABAAAGNaADAAQAAAABAAAD8gAAAAA0pPUQAABAAElEQVR4AezdCbzV0/7/8U+z5nkgqVQaKCTc3IgoQlwKGbpcNCBTmYcU/sYQN1SEjNe95ihDFBIppSilQmmQNChp0PD3Xve39v3u3Z7OOXufs/c+r/V4HPu7v8P6ru/zu/fu3vX5rvUpsfPPYhQEEEAAAQQQQAABBBBAAAEEEEAAAQQQQAABBBBAIMMFSmZ4+2geAggggAACCCCAAAIIIIAAAggggAACCCCAAAIIIOAECGrwQUAAAQQQQAABBBBAAAEEEEAAAQQQQAABBBBAAIGsECCokRW3iUYigAACCCCAAAIIIIAAAggggAACCCCAAAIIIIAAQQ0+AwgggAACCCCAAAIIIIAAAggggAACCCCAAAIIIJAVAgQ1suI20UgEEEAAAQQQQAABBBBAAAEEEEAAAQQQQAABBBAgqMFnAAEEEEAAAQQQQAABBBBAAAEEEEAAAQQQQAABBLJCgKBGVtwmGokAAggggAACCCCAAAIIIIAAAggggAACCCCAAAIENfgMIIAAAggggAACCCCAAAIIIIAAAggggAACCCCAQFYIENTIittEIxFAAAEEEEAAAQQQQAABBBBAAAEEEEAAAQQQQICgBp8BBBBAAAEEEEAAAQQQQAABBBBAAAEEEEAAAQQQyAoBghpZcZtoJAIIIIAAAggggAACCCCAAAIIIIAAAggggAACCBDU4DOAAAIIIIAAAggggAACCCCAAAIIIIAAAggggAACWSFAUCMrbhONRAABBBBAAAEEEEAAAQQQQAABBBBAAAEEEEAAAYIafAYQQAABBBBAAAEEEEAAAQQQQAABBBBAAAEEEEAgKwQIamTFbaKRCCCAAAIIIIAAAggggAACCCCAAAIIIIAAAgggQFCDzwACCCCAAAIIIIAAAggggAACCCCAAAIIIIAAAghkhQBBjay4TTQSAQQQQAABBBBAAAEEEEAAAQQQQAABBBBAAAEECGrwGUAAAQQQQAABBBBAAAEEEEAAAQQQQAABBBBAAIGsECCokRW3iUYigAACCCCAAAIIIIAAAggggAACCCCAAAIIIIBAaQgQQAABBBBAAIFcEejTp4/NmDHDXU7btm1t1KhRRXZpgwcPtjfffNOdf/fdd7exY8cWWVvSdeJ27dqFqu7du7f17ds39J6F3BMoys/0zp07bcGCBbZ8+XJbu3atrVu3zsqUKWOVK1e2unXrWsuWLa1q1aoZgZ5Jv0MZAZLhjZg+fbr169cv1MoRI0ZY8LcttIEFBBBAAAEEEEAAgYwRIKiRMbeChiCAAAIIIFA8BNQpedJJJ8W92BIlSljFihWtSpUqtvfee1vr1q2ta9eutscee8Q9rrhvVOBkyJAhaWM48cQTTR3bFAQKS0BByldffdWmTp1qa9asiXvahg0bWpcuXez444+3Bg0axN2XjekRCAa+Yp2hbNmyLhhVu3ZtF4xq3769HXHEEVa6NP/XNJYZ6xFAAAEEEEAAAQTCBfhfjuEevEMAAQQQQACBDBDQU9m//fab+1MQZPLkyTZy5Eg79thj7eqrr3bBjgxoJk1AAIE0CXz33Xf24IMP2ieffJL0GRYvXmyPPfaYjR492o477ji7+OKLrV69ekkfz46FI7B161ZbvXq1+5s3b54LWtWpU8euvfZa69ixY+E0IkPPolEjX3zxRah1eRn9Nn/+fJs0aVLo2LPOOssFj0IrWEAAAQQQQAABBHJIgKBGDt1MLgUBBBBAAIFsFShVqlRY0xXU2LFjR9g6vR8/frzNnj3bdVrWqlUrbDtvzDTCJdIymkukr44rWTJxqrVk9ol2PtYhkBcBBTKuv/56+/3338MOK1eunO2///6m6dxq1Khh27Zts19++cWWLVtmX3/9deg3Q78V48aNs5UrV7pgaFglvClUAf1m6PclWLZv3x5865Z//vlnGzhwoPXv39/OO++8XbYXlxUKaCgw50teghrffvtt2LHdunUjqOEheUUAAQQQQACBnBMgqJFzt5QLQgABBBBAILsEYuW+0EgNddJoSiXlplBHvIo6MK+66ip78sknd+ksK8ocGpmgrumh9JeoRE5TdeGFF5IPIxEa2wtFQIFLTWEU7PiuX7++XXTRRXbkkUfabrvtFrUdyrGhp9T1u6DfCBX/mxH1AFYWisAjjzyyS34KBaMUcPrss8/s6aefDt0vNWj48OHWtGlT69ChQ6G0j5MggAACCCCAAAIIZKdA4kfysvO6aDUCCCCAAAIIZLlApUqVTAGPW265xe6+++6wkQR6KnvChAlZfoU0HwEEggILFy6022+/PSyg8be//c1eeuklN51UrICG6qhWrZr5fa+44gpT3gZKZgood4YCVd27d7fnn3/e/c4HW/rQQw8RkAqCsIwAAggggAACCCCwiwBBjV1IWIEAAggggAACmSbQqVMnO+OMM8KapSe6KQggkBsCyrNwww032JYtW0IXdNppp9lNN91kZcqUCa1LtKB9zznnHDftFFPUJdIq+u0VK1a0O+64wzS1mC/Kp6L8EBQEEEAAAQQQQAABBGIJENSIJcN6BBBAAAEEEMgoAT3VGywzZswIvmUZAQSyWOCtt94ydWb7svfee9uAAQP82zy/tm7d2k1jlecDOaDQBRR8ikwQzu97od8GTogAAggggAACCGSVADk1sup20VgEEEAAAQSKr0CjRo2sfPnytmnTJoegnBtKJFyhQoWUo6hudapp3veNGze6qW2aN29uLVq02CWPR8pPniMV6ol7Jb1dsWKFrV+/3qpUqWJNmjSx/fbbzzT9TEHKmjVrXMJ4JYlW3XraWx2jBxxwgNWsWbMgVYcdq5wuixYtMiUxVsLjhg0b2sEHH+w+h2E7Bt4oX8CXX37pjtNnR9etHAFt2rQJm0ItcEjSiz/88IN7gn3t2rXue1C1alWXNFvXre9GfotyT2hKN12rclOozfXq1XPTAsWb8im/54s8Tud/7rnnwlZfffXVeRqhEXbw/73JyxRUmzdvdvftp59+cgYaOVC9enXbd999rUGDBtGqT9u6xYsX2zfffGO6z/oeaWot3Q/d51TeD13r3LlzXbJ1/eYp+bpy8hT0+5kfmJYtW9q7774bOlTfuVhF/wbos6rvgz6vMtJvgL9fe+65Z6xD07ZelvoO6bdJlvoO1a5d2w488EC3nLYTp7niDRs22KxZs2zVqlXOWr8zctbv2e67757ms1M9AggggAACCCAQW6Bg/48ydr1sQQABBBBAAAEEUi6gPBs+qKHK1XkUDGr06dPHBSO0LVYCcm1bvny5nXTSSVp0RXk7unXrZr/++qs9+OCDrnNNnZyRRfPAX3rppXbMMcdEbkrJ+4kTJ7rpdvwUPOoYu/fee+2ggw5KSf2FUYncHn30UXvjjTdMHWKRRR2nvXv3Nk0tlJeiju/333/fJRZWh2+0JNAlSpQwPaGvz8Ff/vKXhNWPHDnSHnvssdB+06dPd8vvvPOOPfXUU7ZgwYLQNr+gztN//OMfdu6554YFuBTMUMf8M8884zr//P7+VZ3SSnCvZNd5KfJ88cUX7eWXX3af22jHasol1du3b19T8C8v5c0337QRI0aYOmUji75v+l5ccsklKe1MjzzPzJkzXQe1X7/XXnu54JF/n85XBRB0/R999FHY1FfBc6o9ut+yUHArHUWJ0V977TX3+Vm6dGnUUyjQovuspOnJdNyPHTvWhgwZEqpL38k99tjDBW+UwFvukd+jo48+2ipXrhw6prAW9FkLFv22B4uCowp66D7NmTPH9H2LVXSNZ511lp166qlpza2iNsj4hRdeCBtlFGxXqVKl7JBDDrF+/fq5AFlwm1+O/PfIr9dru3btgm/Dlv39jLVP8N+4sAP/fKPPfKzjtO/nn39uo0ePdp8VfTajFQVrL7jgAvfvoX57KQgggAACCCCAQGEKENQoTG3OhQACCCCAAAIFEojs6IrsCCtI5fPmzbOBAwe60Rmx6lm2bJldd911rlNRnTmpLOoYe+CBB2zHjh2uWnXMKWFuXjupU9mmvNalzrkrr7zSPUUd61g9yazE7xoFceONN8baLWy9nsa+5pprQgGrsI2BN+qgnT17tvXv398FTRREUKdiXoqCSAoixCoafTF8+HBTZ7iCYSpap+uON2WOggYafaBrVkLrZIqCN7oGjRiKV/744w977733bNKkSa5+PW2fqKhD9uabb3bHxdpX3zd9LqdOneo+i7H2K+j6SLdjjz22oFUmdbwSkOt+x+q09ZUsWbLEbrvtNnv99dft/vvvdyMn/LZUvK5evdqU3Fz3O15RsFMBtw8++MDlH1GQJa9lzJgxpoBGomvOa70F3T/Rb7t+m/WbkUzR79DQoUNNeZf0qhETqS4KPKlNGjESr8j5008/tc8++8z9u3H++efH273ItymIqt81BZATlYULF9r111/vPpO33357WgOfidrCdgQQQAABBBAofgIENYrfPeeKEUAAAQQQyEoBTTUSHKWhJ+aDozQKclGaWkMdfXrVk9iaIknTzihooimO1CGlJ4V90VOu+++/f9wnXf2+iV4VxFBH6b/+9a/Qrq1atXIBjlROpRSqPE0LmgosGNDQdF2aokRT52gEzLRp0+z7778Pnf3VV1912xN1zGoaGo28CD69rifW5a/prHSPFFRQYmFN++Q7a//zn/+4z8vgwYND50y0oNEZPqChESUa7aERFgoaKFiiaVh80RPamlpGAYRgwEVTVGlkjY7X1Fj67KhTXEVBl3vuucdNI5QoWCUv5ZQIfuZlqXPqKX1NQ6TpidQmP6JE7dT16jMV7yltteXWW2/dJaDhp9fStFYKPvnPvXJdKIm3Riqlo2jEQLDou5fuolE1CiIGi3wPO+wwd8/lrqmZdN/9aAYtK5ipz0mqRjMoYKeObgVMfdFT7/ru6HdA0/0oIPbJJ5+475H20X3WCAwFOXr06OEPS/iqwNc///lPt5++Q/qcNm7c2I1m0PdMne9FVSIDOvECEZr2SN99fR7174B+s/UbowCDvg/+N0AjOhR40IiDvCSbT2SgznyNltH3zxe1Q9OD6Xutf5f03df5NSWVij5D+jdG904jqoJF99sHX/Xd9Z837ePXB/f3y350hN9Hx/mgeLLH+rr0qt9wjSjR594X1a3Rb/vss4/pd0FBDzlrakE/olDBVP32K9jr2+KP5xUBBBBAAAEEEEiXAEGNdMlSLwIIIIAAAgikVOCVV14Jq0/TS6WqaAoidTapE3HQoEEuB0Kwbj3V/vDDD7upYbRenUeaYkmdZQUp6iDSk/sffvhhqJrDDz/c7rzzzqx76vXf//63M1SHuzrW1cEXLDLzo1F8p52mfzrhhBNiTukjd3Wm+4CGOi81rcx5550X9Wl57afOev/kv6ZW0hQryYxcUFsVrFJHoTodNd1QZEeonpDX/dJnRWXUqFFuqimNZFBwRSMfNH1PsKiDVZ2ZekJeZevWre5zoyf/YxV1MOsJaB/QUN2XX365u47INqkOBUBk7kd0aCSMOsXVwRqtTJgwwcaNGxfapE5YOR933HGhdVrQfdJohvvuu8917ms0UzqKD8r4upVfIZ1Fnba+c1/n0T1XsEJ/kb7a96abbgoFpjRC54477nDf0VS0UU+4BwMaSpCuz7Dy9wSLPjf6vCmg4ouCobrP6nBOpuhzqKLPqEYNKQ9NsOj7lq7ptYLniVxW4Dj4G6jtkVPuyUXfYyUUjxdcUzBOneuamklF908BLP1mpKIogKogpg9oKDik6fROP/30qEF2fWc08sGP6NC/Gbq24NRPCtLoN0Qlcko8vz5e2/0+kdONKXCsEX/JFn0WgwENeV988cVWp06dXarQPVOAVr+JKvoNeuKJJ5zFLjuzAgEEEEAAAQQQSINAeiaFTUNDqRIBBBBAAAEEiq+AOrz8E/ReIZVT1KiTWh2D6lDSPOGRRYlz1al86KGHhjbpiWDf2R5amYcFdb5pBEKwM095JjRdSiqTAeehSQXaVYZ169Z1HfaRAQ1VrI5jBSSCUy/pCXQfgIh2co220OgLX9Q5qGl69ER9tKKAioJPwfMrYOWf3I52THCdOnU1OuLCCy/cpXNb+3Xq1MnOOeec0CFqvzpQ1RGu80YGNLSjnlxWHhZ1Pvui3CkKaMUq6izUE/wqyqvy+OOP2ymnnBK1TdpHycu1jxL4qugJanUwRiuyCI5QUCe2zhcZ0NCxumf6TPppttSxno6ip+x9kVe6RygNGzYsLCfDZZdd5p5QjwxoqE0KdOp3QZ9tXzTiIXJ0id+Wl1flcNFT7r6os16BtciAhrYr6bmmVQs+5a/7EbyXvp5Yr7r3ygd011137RLQ0DH6nSvsoIZGByho5J/6Vzsa/RmMiwzUqMNdvx/xAho6ViOkFJgO5uzR70iyvwGqI17R/fEjr/R50WdJAZNYowZ1L/XdVF4WFY2k0Ocp04o+h8FE7RqxoUBptICG2q6AmH43OnfuHLqUZ599NmoepdAOLCCAAAIIIIAAAikUIKiRQkyqQgABBBBAAIHUCeiJWHUc6qllPVUc7JRSR1GXLl1Sd7I/a1LHraZ6iVfOPPPMsM1+apGwlUm80VRaSjbtn4pV57GCJtdee21WT9+h+5SoQzrSUFP6RCsKMOgJa1+6du3qRnX497Fe1dGoUQcyVdFT8MlOq6NpjyLbF3keJR8OFnVS6phEUyYpKOGLAhqx8gPosxEMdKnDPVqgzdflX/W0d7DDW7kXoiVq1zRGfkSHjtXT2ImSqsteI4jSUZRLIfjd1jQ+6SxyDwbSNLVOMFAV7dyaCkm5TYJFo44KWoJTzqkuff/VKR+vaKoqTe3mi56Q13RIyRR1vCsnkP9uJHNMOvbRd1t5LzSS4OyzzzYFd4JFwZuCBlcUmPR16PMe6/sWPG+iZQXflMzdl7///e9JJbTXVGWaBssX/bvmR274dUX9+vTTT4eaoKCwRi0lUzRqxf+7qX+zlceEggACCCCAAAIIFIZA6cI4CedAAAEEEEAAAQRiCaiDMTgCQvtp2pvg3ODBY/XEtKbD8R1WwW35XVZ+hmBHYax6lM9AHYJ++qRgjohYx0Su11zk6vzXnOsqmr5E8+PrCepsLrovmhomUdE0Mpqb3T+dH8tQHZ0aCeFLz549/WLCV51DgQA/rZHq6tChQ8LjIgMW0Q5Q8ECBGyV39qV79+5+MearOs+DRXkqgqM3/La33nor9PnSKA1Nz5Vs0WdIU0/p86lAgUa5RAYjNEokWJJ11X4ff/xx8NCULOtJ/WDxHaTBdalcDgaMVK+e/k+mk/+oo46yBg0a2I8//uiao+CQOuc1uiE/RSObpkyZEjpUuS2UzyNR0UgWBQI0GsEXXVMygS99PmKNcvJ1pfpV0xdF+gaDWJHn0+i1I488MnJ1nt/rO6qRS/57qgB0Qac101RLfko4/fsTHA2SqIHt27d3o678775+k5QXJBOKRp4Eg8v6rkfes1jtlLFGin300UduF12XpuKiIIAAAggggAAC6RbI3/8KT3erqB8BBBBAAAEEipVAvE4uD6FOFk3voyeNU90xl2x+Dj1Fro5m3yEf7Ul4395or3qKVSNPfE4Gde5rXnwFVbK96OneZDvCNM+7N9ST+tFK8Gl6TceV1w5JdUD7oEayT2kraJVM0ZQsvrNUT/EnmhJHdUZO45LMdSthfbQpkWK1Ud+L4OdTydMjgxrB0UUKREVO8xOrbnVc6kn/yCBErP2TXR85bY/vNE72+Lzu99VXX4UOUYAg0ie0McqCOtufeeYZt0XTJck30QidKNW4VTo2OJ1XMgFBX5f2Vae6D/wGO6T9PtFeI/NURNsn1et8GxPVqyCEgr2Jgrv67Zw8ebIbfaURKgp8aoRAtOncgv+uKE9NQUvwN0nTSUXmJIlXv+6Xfid8UCPZ36R4daZqW/C6VGeyv4P+/H5qLb3PpOvy7eMVAQQQQAABBHJTgKBGbt5XrgoBBBBAAIGsFlDnuDo7NW2HnrrXU+6a818d1eko6phOtuhJct8hn5cOWCWIVXJxX5T/4aGHHgrNte7XZ+trZKd9vOsIPo0fq5M8mJRaHZZ60jkvJdiZ6vNTJDo+2WsItj/Zz07wGLUjmevWtFmRo5gSXUOwI9d/Tv0xGsGhRNe+NGvWzC8mfFWnrEYDJNuBnrDC/9tBgUIFF3y71UGdzhK8fnXG5iV/TWSuC00Vlt+gho4NlmRGivn9ZabfQn8tkXX5/SJfG8VIHB+5X7rfK1BXqVIl03dHwUpNf6aRMIlGvSj5txK8+yTdeWmnDybk5ZjIfYO/STJP5Xcz8lyF+T54XTrv8ccfn6fTB39rI39z8lQROyOAAAIIIIAAAnkQIKiRByx2RQABBBBAAIHUC2iUxKhRo1JfcR5qjOxwjndocDSCn4Yq3v7atmLFirCAhp6OV2Jpn9g50fF++0UXXRSWD8Cvj3zVfPK9e/eOXJ3W93npHA42JJZhZCDCd3oHj012OdmO8vxcQ7LHBD83ane061bwJpgwWfsU5LojR4PofbADMq+fv0T5HpK9H8H95KIRS2vWrHGrdb1aTse5dIJg53ai/C/Bdmo5cv+8jtQK1hd5bGTdwX2jLWt/H9SIrCva/lqnIHFhFyXWbteuXYFPqxFtzz//fL7rCY6KyW8lqfxNivxu5rdNqTguV68rFTbUgQACCCCAAAKZK0BQI3PvDS1DAAEEEEAAgRwR0JPJ6qz1HcpKXq1cEnntVFYdyXRy+/NkM18qO/2yxSPZzulk72tk4CRydEhegnk6Z173T7adGgHy+eefh3b/5ptv7K9//WvofSoXggZ5vZ7IqbKSDZZFa3/ksQVpS2Rd0c6ndYlGQsQ6rqjXv/fee2EBDY3s0RRcypOjALFGWOneKD9RMHjYrVs3F1BW+yO/C/m5plR+PzPpNymV15UK5/zcG45BAAEEEEAAgeInQFCj+N1zrhgBBBBAAAEECllAc69fcskldsstt7ighDohL730Uhs6dGiep1Uq5KYX2emCIyD0VPo777xTZG0prBMHr1nn7Ny5s915550pO31kp3xepk9TI/K6f7IN1xz+waCG8n6kK6ghA9+Jm9frCQZEdG2aBiq/JfLYgrQlsq78tilTjwuO5FPwR1NQKYdPohJ5vxLtn2i7vp8+2Kp8N0899VSiQ7Jie+TvzieffOICRFnReBqJAAIIIIAAAsVWgKBGsb31XDgCCCCAAAIIFKaAcoKo8+iGG25wCYI1zdCAAQPsjjvucPPJJ9OWYOdeMvtn8z7BZPCap11PNiuvQy4XTQ8UzC+R6vnplccgmGA6r7kJ/BRRqb4HmoIuWBTA6tu3b3BVypaVSN0HNXyy92Qrj9y/INM5RR4bWXeiNgX3j6wr0bHZtH3p0qVuVJtv89///vekAhpKKO4DEP7Ygr7qN8nXGTllU0HrLsrjg7+1aoeurW7dukXZJM6NAAIIIIAAAggkFMjt/2eY8PLZAQEEEEAAAQQQKDyBI4880jQ3vH8yVh1v1113nY0bN67wGpElZ2rcuHGopdu2bbOFCxeG3ufyQvC658+fn5Jpc7yXpuZp2LChf2sLFiwILSdaUFApXfdAQY1gu5YsWWLTp09P1KR8bY88j/KYJFsiEyoXJPF25LG618kWjUD48ccfQ7tH1hXakAMLkUnQ27dvn9RVyTOZqfqSquz/dgp+N5cvXx6WnyUv9WTavsHrUts0/RsFAQQQQAABBBDIdAGCGpl+h2gfAggggAACCOSUwF/+8hcbPnx4aOoadbwNHjzYXn755Zy6zoJezMEHHxxWxaRJk8Le5+qb4HVrpMaMGTNSeqmaNseXlStXJh3YUJAh1dP5+HYo2HL22Wf7t+5VU7MpmFWQEi05dJs2bUJV6rv38ccfh94nWvjwww9Duyh/Q/PmzUPv87rQokWLsCl+gnUnqkv7BnMyBK8p0bHZtt2PjPDt1kibZIrycKS6HHLIIaEq5f/RRx+F3qdqITLvSV4CM5HHBj8j8doXvC7tl5fPYrx62YYAAggggAACCKRTgKBGOnWpGwEEEEAAAQQQiCKg+eBHjBhhVatWdVvV+aTcCc8++2yUvYvnKgV/gonUX3zxRTctSq5raJqyYNGUY8l2TgaPi7Ws0ULBItdkygsvvJDMbvne54QTTrDgiAONCnnggQfyXd/s2bNdsDCyAiWYDpbnn38+qdEw6ujVCBJfDj/88AIl3lYH9GGHHearc1MsTZkyJfQ+1oI+C2pzsETe0+C2bF+OzAOjERKJyi+//GKvv/56ot3yvL1Tp05WpkyZ0HFPPvmkaRrBVJbI/Ch+qrRkzhFptX79+mQOs2bNmtnee+8d2nf8+PEWOUImtJEFBBBAAAEEEEAgQwQIamTIjaAZCCCAAAIIIFC8BFq2bGnqsFYScV+GDRvm1vn3xflVU3Sdc845IQKNWrjmmmvyPFrgyy+/dDlMQhVl+MK+++4b1tn9xRdf2IMPPphUx7u/NI1wiDV9U4cOHcLmy3/jjTds2rRp/tCor8pxkZcRDVErSbBSIx+UX0avvijgonV5GbGhKd0UHOzXr5+pczuyqAM3mMPjq6++ShhMVD333HNPWFU9e/YMe5+fN2eccUbYYXfffbclynOijvTg9EB6yr5JkyZh9eTSm2Bnu67rtddei3t5Gp0zaNCgUO6LuDvncaPyTJx88smhoxYvXuwCZ3n5fO7cudM+//zzUB2RC7vvvnvYqjlz5oS9j/dmjz32CNs8d+7csPex3mikVO/evUObdT1XX321BfO2hDbGWdB0dok+v3EOZxMCCCCAAAIIIJAnAYIaeeJiZwQQQAABBBBAIHUC6ox8/PHHLdiRpUCHghsUs7POOsuCU+toKiYlCp48eXJcHiW6ffXVV+3888+3Cy+8MOVPU8c9eQo2XnvttaFRPKruueeesyuuuCJhTguNJHjiiSfs1FNPdblbojVFichVly968v+qq66yd999168KvaoDVtOiDf5zejSVsmXLutd0/Wefffax66+/3iVL9+d45ZVX7LTTTjMFVuLlv9A9V4d3jx493Pcn2tRTvk5df3CqnoceeshGjhwZNXiiPBoKkGiqLl86d+6cVLJqv3+s13bt2tlRRx0V2rxs2TKXID1afg0Fax555BF79NFHQ/vrfgTvZWhDDi3sueeebiSBv6QJEyY4h2iBBH3++/fv74IGJUuWDAuQ+eML+nrxxRdbgwYNQtVomisFBBQ8jVf0+dFoJwXDFJyNVRTUVNt9UUBTdev+JyrKjVGpUqXQbqNHj7ZPPvkk7vfG73zMMceYRqL48v3337ug8ttvvx03N8nGjRtN+1x66aV25pln2s8//+yr4BUBBBBAAAEEEEirQOm01k7lCCCAAAIIIIAAAnEF1Gn32GOPmTrL/PQ2etJc+QvUwaunaItr0VQvekK+T58+IRtNi6KO3Dp16tiBBx7oXjWqQ51rerJYTwvrCeq8zEWfab7169d3133llVeGRqaoc1J/CoQpL0aNGjVc57+mp/npp59Mne/BjncFCGIVdcorH4CmmVGR3Q033OBGCSmnh6ZFk6WeKFdHu4qCS2qXP8atTMN/TjzxRHd+tWfTpk3uDEqKfeONN7pOak3dpifSq1Wr5u6xRlEsXbrU9ER75D1XACdaadWqleuE9dNbKXij7+BLL73kRsnUq1fPnVtPus+aNStslIwSjattqSq6rm+//Tbk/N1337nOZF2n8m5oSiHdX917BW6CZcCAARbvPgf3zeblvn37usCbvwYF7t566y1T0vDatWu7URkKBOle+c/AP/7xDxs3bpytWLHCH5aSV+X0uP/++12gy49k0GgfBU8V7ND3RKPvFHBSPhB18qtt+h7pc6YSDDxENkrHHnHEETZp0iS3SZ8H1a1/BzSKKfjvwX/+8x/TZ9UXBeq6devmgidat2rVKrv88svdZh0bDJYokKffT19U75AhQ9wxuh4VHX/TTTeZ8ttoX33v9HnU91IjMvRbq/ZFCzD5enlFAAEEEEAAAQTSJUBQI12y1IsAAggggAACCCQpoI4pdapecskloafx9YS6Oo/0lHysztkkq8/q3dTJ9/TTTzsH39GnC1JnoZ7eT1RkF+zMS7R/pmw/6KCDbMyYMaZRG+o49GXRokWmv0QlOPd/tH1vueUW9/S3nnz3RQEj/UUWPQGuaaCUB6YwivJVaJolPaX+6aefhk6p/AVTp04NvY+1oHuuaYLUGR6rKDG5OnrvvffeUEe4OmrVWR6rtG7d2uX5qFy5cqxd8rxewRk9Ua9AnQJTKur8njlzpvuLVqE6rxXwDE6FFG2/XFmnnCHq2NeoNl8UwIs1FZVG62h0jYIa6Sj6PijwfN1117lAij+Hgm/6S1QSjXhSvQrMarSEL/pMRI5UipZrR8FxTU8WOXIkMveHD/74+vVavnx5N2JJQQz9++OLgmkTJ070b2O+KjCS6Hcn5sFsQAABBBBAAAEE8ihAUCOPYOyOAAIIIIAAAgikQ6BmzZruSXlN4+HnUddT8erIUodyce4s0pPN6mjT9FMKcGgEQbzphdRpqA5oPfHctWtXi0y+m477l4461XmqpNAK3ii/hDor/dPe0c6np8gVDDn66KNNHcHxijrG77rrLhs7dqwLVgRHefjj5Hb88cfbZZdd5jo8/frCeG3atKn985//NOUU0VRiCmYkmq9f+ReOPfZYU9Lx4BPssdqrzm+NTNGUThq5Eusztddee7lpz/QUfDoCjArcPfXUU66TXp3lGnkSrSgIo0Tn6rjWCK/iVBSk0Cilhx9+OKaPpm7q1auXaSqldBeNEFGQRZ8bTQ8XHCUS7dwKGGi0g6Yb00ipeEWfB30O9PuvXDYLFy50n30FueN9/1WnD0y8//77LhChUSIaUaJjowVBItuh306NROrevbsLqmqqP40ajFX0fVB+KOXq0fcuOJVirGNYjwACCCCAAAIIpEKgxJ//w+i/42BTURt1IIAAAggggAACCCCQZgE9dfz111/b8uXLTQnE9V7TolSvXt00PZCCAZqSKteKrlVTw2haGC3rf8brujUVV6NGjdy152dUiupRvRoBoqeyFRxRUEABkkxxVBs1TZPuuYIbun4F+jRqQgmcNaWU2p3fouChRkdouiLVrQCCpvhSh60+U4VZNFpGozbWrFnjPtsazaHOYk1JlSn3ozA9gudSx7xs9KfPqj7/CgJoqq6iDPSo43/27NluCjh9fjQlk2+b/00K5nEJXlMmL+s6FEzVyBFdl4IjCpxoijpdlwKJ2Ro0zmR32oYAAggggAACiQUIaiQ2Yg8EEEAAAQQQQAABBBBAAAEEEEAAAQQQQAABBBDIAIGSGdAGmoAAAggggAACCCCAAAIIIIAAAggggAACCCCAAAIIJBQgqJGQiB0QQAABBBBAAAEEEEAAAQQQQAABBBBAAAEEEEAgEwQIamTCXaANCCCAAAIIIIAAAggggAACCCCAAAIIIIAAAgggkFCAoEZCInZAAAEEEEAAAQQQQAABBBBAAAEEEEAAAQQQQACBTBAgqJEJd4E2IIAAAggggAACCCCAAAIIIIAAAggggAACCCCAQEIBghoJidgBAQQQQAABBBBAAAEEEEAAAQQQQAABBBBAAAEEMkGAoEYm3AXagAACCCCAAAIIIIAAAggggAACCCCAAAIIIIAAAgkFCGokJGIHBBBAAAEEEEAAAQQQQAABBBBAAAEEEEAAAQQQyAQBghqZcBdoAwIIIIAAAggggAACCCCAAAIIIIAAAggggAACCCQUIKiRkIgdEEAAAQQQQAABBBBAAAEEEEAAAQQQQAABBBBAIBMECGpkwl2gDQgggAACCCCAAAIIIIAAAggggAACCCCAAAIIIJBQgKBGQiJ2QAABBBBAAAEEEEAAAQQQQAABBBBAAAEEEEAAgUwQIKiRCXeBNiCAAAIIIIAAAggggAACCCCAAAIIIIAAAggggEBCAYIaCYnYAQEEEEAAAQQQQAABBBBAAAEEEEAAAQQQQAABBDJBoHTKGzF7UcqrpEIEEEAAAQQQyFKBMqXMWjbK0sbTbAQQQAABBBBAAAEEEEAAAQQQyDQBRmpk2h2hPQgggAACCCCAAAIIIIAAAggggAACCCCAAAIIIBBVgKBGVBZWIoAAAggggAACCCCAAAIIIIAAAggggAACCCCAQKYJENTItDtCexBAAAEEEEAAAQQQQAABBBBAAAEEEEAAAQQQQCCqAEGNqCysRAABBBBAAAEEEEAAAQQQQAABBBBAAAEEEEAAgUwTIKiRaXeE9iCAAAIIIIAAAggggAACCCCAAAIIIIAAAggggEBUAYIaUVlYiQACCCCAAAIIIIAAAggggAACCCCAAAIIIIAAApkmQFAj0+4I7UEAAQQQQAABBBBAAAEEEEAAAQQQQAABBBBAAIGoAgQ1orKwEgEEEEAAAQQQQAABBBBAAAEEEEAAAQQQQAABBDJNgKBGpt0R2oMAAggggAACCCCAAAIIIIAAAggggAACCCCAAAJRBQhqRGVhJQIIIIAAAggggAACCCCAAAIIIIAAAggggAACCGSaAEGNTLsjtAcBBBBAAAEEEEAAAQQQQAABBBBAAAEEEEAAAQSiChDUiMrCSgQQQAABBBBAAAEEEEAAAQQQQAABBBBAAAEEEMg0AYIamXZHaA8CCCCAAAIIIIAAAggggAACCCCAAAIIIIAAAghEFSCoEZWFlQgggAACCCCAAAIIIIAAAggggAACCCCAAAIIIJBpAgQ1Mu2O0B4EEEAAAQQQQAABBBBAAAEEEEAAAQQQQAABBBCIKkBQIyoLKxFAAAEEEEAAAQQQQAABBBBAAAEEEEAAAQQQQCDTBAhqZNodoT0IIIAAAggggEAGC4wcOdLatWvn/jK4mSlp2tixY0PXunz58pTUGVmJ6vWeOh8FAQQQQAABBBBAAAEEEEAgvkDp+JvZigACCCCAAAIIIOAFpk+fbv369fNvw17LlStn1atXt+bNm1vnzp3tmGOOsdKl+Z9aYUiF/EZBgiFDhkQ9a/ny5a1mzZrWsmVLO/744+3www+Puh8rEUAAAQQQQAABBBBAAAEEMkuA/6edWfeD1iCAAAIIIIBAlgps2bLFfvrpJ/f34Ycf2vPPP2/333+/1apVK0uvKLebvWnTJlu6dKn7e++99+ywww6zu+66yypUqJDbF87VIYAAAggggAACCCCAAAJZLkBQI8tvIM1HAAEEEEAAgaIR6NGjh+nPF3WSz50715577jnTlEJaHjhwoD311FNWokQJvxuvRSRw0UUXWceOHUNn/+233+zLL79092vt2rU2ZcoUu/XWW11gw+/UrVs30x8FAQQQQAABBBBAAAEEEEAgcwQIamTOvaAlCCCAAAIIIJBFAppqqmnTpmEtbt26tXXt2tXOPfdc+/HHH23OnDn28ccf2xFHHBG2H28KX6BOnTq73K8DDjjAunTpYr169bJff/3VJkyYYAsWLLBmzZoVfgM5IwIIIIAAAggggAACCCCAQFICJApPiomdEEAAAQQQQACB5ASqVKli5513XmjnTz/9NLTMQuYJ7LHHHnbaaaeFGsb9ClGwgAACCCCAAAIIIIAAAghkpAAjNTLyttAoBBBAAAEEEMhmgX333TfU/BUrVoSW/cL27dtt/PjxbmTAvHnz3CgB5XJo1KiRHXXUUW5aq912283vHva6Y8cO++KLL+yTTz6x2bNn2+LFi01TKSnxtTroDznkEOvZs6fVq1cv7Lhob1TXu+++a++//76bLmvdunVut7p161qrVq3syCOPdH/xEp4rl8iLL75o77zzjhudogp0HSeccIJ17959l2TpyjeiablU/t//+3927LHHuuVY/3nggQfcFFGlSpWyN99802rXrh1r13yvj3W/gonG33jjDecbPEmfPn1sxowZ1rZtWxs1apT9/PPP9uyzz9pHH31kq1atMt1DJSI/88wz7a9//Wvw0Dwty/j666939erA/v37hwXO8lQZOyOAAAIIIIAAAggggAACWS5AUCPLbyDNRwABBBBAAIHMEwgGARQ4CBYlEx8wYIB9++23wdUusDFr1izT38svv2zDhg2zhg0bhu2jN4899pj7i9ygwIbq1N9LL71kt912mwuQRO7n3yvvx1VXXbVLO7R9yZIl7u/tt9+2ESNGWLt27fxhYa+rV6+2Sy+9dJc6lE9Ef5999pndd999VrLk/wYHd+jQwSVP/+WXX1yQIl5QY9u2bS74o5O2b98+LQEN1R3vfml7MkX5OeTpA0M6RsEIGejv8ssvd9NcJVNXcJ+NGze6z4sCWXJUcOOUU04J7sIyAggggAACCCCAAAIIIFCsBAhqFKvbzcUigAACCCCAQGEILFy4MHSaWrVqhZbV4X3BBRfYypUrrWzZsva3v/3NPeWvERa///67TZ061V544QU34uGyyy5zIxQqVaoUOl4LGuWhOjWiQzk86tevb+XKlTMFSzRyQwEN1XXTTTe5UQONGzcOO15vFIxQOzSaQOXggw92Iys0wkJJzRXwmDZtmhvB4XaI8Z+rr77avv/+ezcy5PDDD7eqVavaDz/8YKNHj3brlU/k1VdfdSM2fBUacaHk208++aS7XlloZEi0MnnyZFuzZo3bdNJJJ0XbJSXrgvcrPyNBFKBRQENBB42iUK6OMmXKuETkjz/+uG3YsMGGDx9uhx12mDVp0iTpNiuBuT4H33zzjatPicw7d+6c9PHsiAACCCCAAAIIIIAAAgjkogBBjVy8q1wTAggggAACCBSZgEYXPPfcc6HzH3TQQaHloUOHuoDG7rvv7kZAKCARLBoRcfTRR1vv3r1t2bJlNmbMGLvkkkuCu7hAiKY9Co4u0A4tWrRwU0WdccYZ9o9//MNNhfTEE0+4ERthFfz55q677goFNDTSQonNg0XTManz/IorrjBdT6yi0RjqrA+O5FA7NKri9NNPd8ETBVk0DVWwnHzyyfbUU0+ZRrG89dZbdv755wc3h5Y15ZOKkrKnK9m6RkKojb4E75dfl+hVI1t0TxXMUUJyX+SoP91PBaMU4FHwI5miIJXuvaYX0zRW9957r3NN5lj2QQABBBBAAAEEEEAAAQRyWeB/cwHk8lVybQgggAACCCCAQJoFNm3a5HJdqCP6q6++cmdTR7d/sl6jH9577z23/pprrnEjLKI1SUEBn7haOSQii0Z1RAY0gvto1EOvXr3cKuV22LlzZ3CzG0kxadIkt+7IP3NmRAY0gjsrz4cSn8cqCqAEAxp+P43Y0GgMFY2C0NRYwbLnnnuaDx5Eu0btq9Ekyhui0rVr17jX7HbK43/UJo0E8QEkHa6RLwceeGAea/rv7hq1Egxo+Eo0amO//fZzb2fOnOlXx33VaJcLL7zQBTQqV65sDz/8MAGNuGJsRAABBBBAAAEEEEAAgeIkwEiN4nS3uVYEEEAAAQQQSJlArNwW/gQ1atQwjczQNFMq6kDX0/p66l7TEMUrSjz99NNPu9EUemI/XtJvdc7/+uuvtnnz5lAAwycZ1ygEjfhQEMEXtcMHOs466yy/Ol+vCjbEKgrOqOhcakPz5s3DdtXUW9OnT3e5O5SPQp3/waJE6vJSScXUU0OGDDH9xSoyuvPOO2NtjrtegQflColVZKFAlxwSFSWO1+gZTT1Vs2ZNNxKmWbNmiQ5jOwIIIIAAAggggAACCCBQbAQIahSbW82FIoAAAggggEBhCGhKqU6dOrnREgps+KK8CCoKPhx66KF+dcJX5WuIDGqsWLHCnnnmGVPOCi3HK8rjEQxqzJ8/3+2u0R4amVCQohwcsYpGa/iiHB+RRTlBNApk/fr1pmmmIoMafuqpVq1aWdOmTSMPT8l75Q/RNShZuQI8GpmSn9KgQYOwZOiRdXiLaA7BfTWSQ4EwBaM0IueRRx4Ju3fBfVlGAAEEEEAAAQQQQAABBIqrAEGN4nrnuW4EEEAAAQQQKJBAjx49TH8q6hxXsu5q1apZZGJvfxKf8Nq/T/ZVQZBg0ZRM1157rQuOBNfHWt6yZUvYJo3qUFFHu5JZF6T4ESHR6pCJL37EhX+vV3lppMeLL75oEyZMME3fVL58ebfL119/bd99951bTsUoDVV00UUXWceOHV2dapvarlwd+Q1kuIr+7z/xHLSLt1AOkXjFB3K0zx133EFAIx4W2xBAAAEEEEAAAQQQQKDYChDUKLa3ngtHAAEEEEAAgYIIqEM8LyMIfIe2Ah8jRoxI+tTBZOIadXHTTTe5gIY648855xyXa0EjMRRM8UGKadOmuU58ncRPNZX0CQtxR01BpaCGRjC8//77duKJJ7qzjx071r0q8HHcccelpEXKd5GX+5WSk+axEgVd/DRlgwYNslGjRlmtWrXyWAu7I4AAAggggAACCCCAAAK5LUBQI7fvL1eHAAIIIIAAAhkiEJyCqHHjxlaqVKk8t0wjGjZs2OCOu/fee2NOY+VHY0Q7gW+H9vnjjz9CgZBo+6Z7nXJFaHqpuXPnuimoFNTQyJJ3333XnVrTeMUa+ZLuthVF/Urc3qVLF1NAY8mSJdavXz8bOXKky61RFO3hnAgggAACCCCAAAIIIIBAJgqUzMRG0SYEEEAAAQQQQCDXBHyi7K1bt5rPr5HXa/RTMikwES8vR7z6fQLvbdu22ezZs/PahJTvr9EaKsonsXTpUps4cWIocJOqqadS3ug0Vqj8HoMHD3Y5On744Qc34ia/U5elsZlUjQACCCCAAAIIIIAAAggUmQBBjSKj58QIIIAAAgggUJwEDj/88FBuheeffz5fl+5zU2g0g5/OKrIi5eAYN25c5OrQ+w4dOoTa8cILL4TWF9WCOvGVS0PTZL355ptuxIbaomm32rVrV1TNKtLzKteIRmuULFnS5RZRPhBNPUZBAAEEEEAAAQQQQAABBBAwI6jBpwABBBBAAAEEECgEgUaNGtkxxxzjzqTplZ599tm4Z122bJm9/fbbYfs0aNDAvVfg4r333gvbpjcKetx22222atWqXbb5FQ0bNjRNc6QyadIke/rpp91ytP9s2rTJ1q9fH21TytZVrFgx5PLKK6/Y9OnTXd2aison2E7ZybKoIl2/8qfIYNGiRW7EBoGNLLqBNBUBBBBAAAEEEEAAAQTSJkBOjbTRUjECCCCAAAIIIBAucN1117n8EQpYDBs2zD766CM7/vjjrUmTJi63hfJcLFiwwKZMmeI69xV8CCbK7ty5sz3yyCOmKaxuvfVW+/bbb900VMo7oamplHRbU0/tv//+NmvWrPCTB96pHV9//bULfjz00EP26aefuiTdCryoE3358uX2xRdfuNwWd999d9pHTGgKKiUH99MsaYRCt27dAi0unouafkuBqjvuuMN9Li655BJ79NFHrUqVKsUThKtGAAEEEEAAAQQQQAABBP4UIKjBxwABBBBAAAEEECgkAeXCGD16tF1//fUuh8SMGTNMf7GKRjEES926dU0Bidtvv90l1B4zZozpL1gU+DjllFPs4osvDq4OW65Zs6Y99thjNnDgQDcKYNq0aaa/oioKwuy9994uMKM2HHzwwVavXr2iak5GnVf3UoENBZfmz59vCmwosFW5cuWMaieNQQABBBBAAAEEEEAAAQQKS4CgRmFJcx4EEEAAAQQQQOBPgVq1armAwuTJk+2dd95xybpXr15tStytjmpNMdWmTRs74ogjrG3btruY6el9TSH1zDPPuNEYGzZssGrVqtk+++zjRjcoqOGncNrl4MCKPffc05TbY/z48TZhwgSbN2+ey9tQqlQpU/CkdevW1qlTJzvwwAMDR6VvUXkkHn74YXeC4pggPJ5sjx49XA6Ve+65x43E8YENjdChIIAAAggggAACCCCAAALFTaDEn0kZd6b0omcvSml1VIYAAggggAACWSxQppRZy0ZZfAE0vbAElD9COUQ0tZJey5YtW1in5jwIIIAAAggggAACCCCAAAJZJECi8Cy6WTQVAQQQQAABBBDIRQGNNpk4caK7NOUQIaCRi3eZa0IAAQQQQAABBBBAAAEEUiNAUCM1jtSCAAIIIIAAAgggkE+Bf/3rXy5HiA7v3r17PmvhMAQQQAABBBBAAAEEEEAAgeIgQE6N4nCXuUYEEEAAAQQQQCCDBJQ/ZMWKFbZ161aX/+PJJ590rVMekSZNmmRQS2kKAggggAACCCCAAAIIIIBApgkQ1Mi0O0J7EEAAAQQQQACBHBf4+eef7ZRTTgm7SiW9HjBgQNg63iCAAAIIIIAAAggggAACCCAQKUBQI1KE9wgggAACCCCAAAKFJlCjRg1r3bq1XXzxxbbnnnsW2nk5EQIIIIAAAggggAACCCCAQHYKlNj5Z0lp02cvSml1VIYAAggggAACWSxQppRZy0ZZfAE0HQEEEEAAAQQQQAABBBBAAAEEMkmAROGZdDdoCwIIIIAAAggggAACCCCAAAIIIIAAAggggAACCMQUIKgRk4YNCCCAAAIIIIAAAggggAACCCCAAAIIIIAAAgggkEkCBDUy6W7QFgQQQAABBBBAAAEEEEAAAQQQQAABBBBAAAEEEIgpQFAjJg0bEEAAAQQQQAABBBBAAAEEEEAAAQQQQAABBBBAIJMESmdSY2gLAggggAACCCCQrQKzZ8+2888/33bbbTebNGmSlS793/+ZtWHDBjv66KNtx44d9uabb1q9evWiXmK7du2iro+28sQTT7TBgweHbUrH8SVKlLAKFSpYpUqVrHr16ta8eXPbd999rVOnTlatWrWw80d7o2v+4YcfbM6cOe5v7ty5tmDBAvvjjz/c7iNGjLBk2h1tn4K2LbK9P/30k73zzjs2depU+/HHH23t2rW2c+dOq1KlijVp0sQOOOAA69q1q9WvXz/yUN4jgAACCCCAAAIIIIAAAggUogBBjULE5lQIIIAAAgggkLsCs2bNche33377hQIaWqH16tyvW7duzIBGpqqoU3/jxo3ub+XKlTZv3jx7/fXX7b777rMuXbrY5ZdfHje4MW7cuF2CL6m61oK2zbdjy5YtNnz4cHv55Zdt69atfnXoddWqVaa/zz77zEaOHGnHHHOMu+5YwanQgSwggAACCCCAAAIIIIAAAgikRYCgRlpYqRQBBBBAAAEEipuAD2roif5gmTlzpnsbuT64T3C5VatWNmjQoOCqXZY1eiBWSfXxGlWxfv16N3rhyy+/tIkTJ5oCAWPHjrUpU6bY0KFDrXXr1lGbo8CDLxq50rRpU9u2bZstXLjQr87Ta+S1FaRtOvG6devsyiuvtK+++sq1o2LFinbsscfawQcfbHXq1HHBqdWrV7vAlK57yZIl9t5777nrPeuss/LUdnZGAAEEEEAAAQQQQAABBBBIjQBBjdQ4UgsCCCCAAAIIFHMBTT+lEhm8UCAg2nq3Msp/NH2VOv/zW9J1/KGHHmo9evRwgQCN1Bg/frypw3/AgAE2ZswY22OPPXZpcuPGje2qq65yU1bts88+Vq5cOTfaIb9BjVjXlp+2afTMddddFwpoHH744XbzzTdbjRo1drmOI444wi655BJ3zQ8++OAu21mBAAIIIIAAAggggAACCCBQeAIkCi88a86EAAIIIIAAAjkqoBwMa9assVKlSoWNWtCIBuWRUIkMdmQrhXJp3Hbbbda9e3d3Cco9odEa0Yqm4urZs6czUUAj3SUvbXvhhRds+vTprknt27e3e++9N2pAw7e5ZMmSdsIJJ9gzzzxjzZo186t5RQABBBBAAAEEEEAAAQQQKGQBghqFDM7pEEAAAQQQQCD3BPzUUxphoSmMfFGCbE2RVLlyZZds2q/PhdeBAwe6PCG6lo8//tgWLVqUMZeVqG26J88++6xrr4ItET0L9wAAQABJREFUmu7LJ3ZPdBHKjaLpqSgIIIAAAggggAACCCCAAAJFI8D0U0XjzlkRQAABBBBAIEsFlEtiyJAhUVs/f/58a9eu3S7bNmzYYIccckjY+jfeeCPqlE1hO2Xwm7Jly7rpqB5++GFT7owPP/wwYwI3idr26aefuuTf4j366KOtdu3aGSxN0xBAAAEEEEAAAQQQQAABBIICjNQIarCMAAIIIIAAAgggkLRAMFDjc4ckfXCad4zXthkzZoTO3qFDh9AyCwgggAACCCCAAAIIIIAAApkvwEiNzL9HtBABBBBAAAEEMkjgqKOOCsub8csvv1i/fv1cCx9//HFTXgcVJaLu1auXKa/G3Xffvcsohjp16rj9Iv+zefNmi5dIu3z58la/fv3Iw0LvC3p8qKIkFpT8W7kmdK2LFy9O4ojC2yVe27799ttQQ1q2bBlaZgEBBBBAAAEEEEAAAQQQQCDzBQhqZP49ooUIIIAAAgggkEEClSpVMv354gMQCjQEk4Gr41wBDeVs6NixY9I5G5RYXMm1Y5W2bdvaqFGjYm12ickLcnzMiqNsKFOmjFWoUMF+++030xRbmVTite3XX38NNbV69eqhZRYQQAABBBBAAAEEEEAAAQQyX4DppzL/HtFCBBBAAAEEEMhggZkzZ7rW7b///mGt9MnDW7VqlXRAI6yCLHmjoIbKxo0bM67Fsdr2+++/h9qqkS8UBBBAAAEEEEAAAQQQQACB7BFgpEb23CtaigACCCCAAAIZKOBzSQRHaaiZs2fPdq2NDHYkuoREIzHSfXyi+iO3+2BGcPRK5D5F9T5W23ywQ+3atGlT2Mibomor50UAAQQQQAABBBBAAAEEEEhOgJEayTmxFwIIIIAAAgggsIuAOs399FORQQ0/UqNNmza7HJcrK7Zu3Wp+1EOVKlUy6rLita1q1aqhtq5Zsya0zAICCCCAAAIIIIAAAggggEDmCzBSI/PvES1EAAEEEEAAgQwR6Natm61YsSJqa04//fSo6wcMGBC2vnfv3ta3b9+wddn6RnlDdu7c6ZrfsGHDjLqMeG1TEvHPP//ctXfevHm21157ZVTbaQwCCCCAAAIIIIAAAggggEBsAUZqxLZhCwIIIIAAAggggEAcgalTp4a2Ro5UCW0oooV4bdMUX75MnjzZL/KKAAIIIIAAAggggAACCCCQBQKM1MiCm0QTEUAAAQQQQCAzBIYPH25//PFHqDFDhgyxb775xs4//3zr0qVLaP3IkSNt4sSJ1rVrVzv33HND67VQo0aNsPfZ+mbLli32yiuvuOaXKFHCOnbsmDGXkqht7du3t9q1a9uqVavs/ffft/79+1udOnUypv00BAEEEEAAAQQQQAABBBBAILYAQY3YNmxBAAEEEEAAAQTCBIJTLG3bts2+//57t71Tp07WtGnT0L6LFy92yx06dAhbH9ohBxbuv/9+W7lypbuSI4880ho3bpwxV5WobWXKlLFzzjnHHnjgAVMA5LbbbrNhw4ZZqVKlEl7Dzz//bLq/Bx98cMJ92QEBBBBAAAEEEEAAAQQQQCD1Akw/lXpTakQAAQQQQACBYiCgERqbN2+2ihUrWrNmzUJXvG7dulCwIzjNUWiHLF/Q9d1888328ssvuyupWbOmDRw4MCOuKi9tO/PMM61du3au3Z9++qldddVVtnbt2pjXodwhb7/9tvXq1csWLFgQcz82IIAAAggggAACCCCAAAIIpFeAkRrp9aV2BBBAAAEEEMhRgRkzZrgra9OmTdgT/l9++aVLnt2gQQM3xVG2Xb4CNQsXLgw1W9NtbdiwwZYsWWKzZs2yDz74wI1u0A6awmno0KFWr1690P6RC2PHjg1bpQTeviiYEEy8LrN4uTlS2baSJUvaXXfdZVdccYV9/fXX9vHHH9vf/vY3O+6449woDE1HVbp0aVu9erV99dVX7rp/+OEH33ReEUAAAQQQQAABBBBAAAEEikiAoEYRwXNaBBBAAAEEEMhugZkzZ7oLiOyEV1BD5cADD3Sv2fafuXPnWs+ePeM2u1y5cnbsscfaZZddZtWqVYu7r/KOxCpjxowJ23TiiSfGDWqkum1qu/KfKFfKSy+9ZBs3bnQjUPwolLDG/flGuUMU9OjcuXPkJt4jgAACCCCAAAIIIIAAAggUkgBBjUKC5jQIIIAAAgggkDsCO3bscKMWdEWRwQsf7MiVqacqVKjgpthSgvMWLVrYfvvtZ8ohUrVq1SK/oalomwI0mj7r7LPPdtNLff75525Uip+KqkqVKtakSRPT/VTi9913373Ir5sGIIAAAggggAACCCCAAALFWaDEn/MD70wpwOxFKa2OyhBAAAEEEEAgiwXK/Jl4uWWjLL4Amo4AAggggAACCCCAAAIIIIAAApkkQKLwTLobtAUBBBBAAAEEEEAAAQQQQAABBBBAAAEEEEAAAQRiChDUiEnDBgQQQAABBBBAAAEEEEAAAQQQQAABBBBAAAEEEMgkAYIamXQ3aAsCCCCAAAIIIIAAAggggAACCCCAAAIIIIAAAgjEFCCoEZOGDQgggAACCCCAAAIIIIAAAggggAACCCCAAAIIIJBJAgQ1Mulu0BYEEEAAAQQQQAABBBBAAAEEEEAAAQQQQAABBBCIKUBQIyYNGxBAAAEEEEAAAQQQQAABBBBAAAEEEEAAAQQQQCCTBAhqZNLdoC0IIIAAAggggAACCCCAAAIIIIAAAggggAACCCAQU4CgRkwaNiCAAAIIIIAAAggggAACCCCAAAIIIIAAAggggEAmCRDUyKS7QVsQQAABBBBAAAEEEEAAAQQQQAABBBBAAAEEEEAgpgBBjZg0bEAAAQQQQAABBBBAAAEEEEAAAQQQQAABBBBAAIFMEiCokUl3g7YggAACCCCAAAIIIIAAAggggAACCCCAAAIIIIBATAGCGjFp2IAAAggggAACCCCAAAIIIIAAAggggAACCCCAAAKZJEBQI5PuBm1BAAEEEEAAAQQQQAABBBBAAAEEEEAAAQQQQACBmAIENWLSsAEBBBBAAAEEEEAAAQQQQAABBBBAAAEEEEAAAQQySYCgRibdDdqCAAIIIIAAAggggAACCCCAAAIIIIAAAggggAACMQUIasSkYQMCCCCAAAIIIIAAAggggAACCCCAAAIIIIAAAghkkgBBjUy6G7QFAQQQQAABBBBAAAEEEEAAAQQQQAABBBBAAAEEYgoQ1IhJwwYEEEAAAQQQQAABBBBAAAEEEEAAAQQQQAABBBDIJAGCGpl0N2gLAggggAACCCCAAAIIIIAAAggggAACCCCAAAIIxBQgqBGThg0IIIAAAgggUGCBbdsLXAUVIIAAAggggAACCCCAAAIIIIAAAl6AoIaX4BUBBBBAAAEEEEAAAQQQQAABBBBAAAEEEEAAAQQyWqB0yltXIuU1UiECCCCAAAIIZKsAj09k652j3QgggAACCCCAAAIIIIAAAghkpEDqgxoViWpk5J2mUQgggAACCBSFQKlSRXFWzokAAggggAACCCCAAAIIIIAAAjkqwPOTOXpjuSwEEEAAAQQQQAABBBBAAAEEEEAAAQQQQAABBHJNgKBGrt1RrgcBBBBAAAEEEEAAAQQQQAABBBBAAAEEEEAAgRwVIKiRozeWy0IAAQQQQAABBBBAAAEEEEAAAQQQQAABBBBAINcECGrk2h3lehBAAAEEEEAAAQQQQAABBBBAAAEEEEAAAQQQyFEBgho5emO5LAQQQAABBBBAAAEEEEAAAQQQQAABBBBAAAEEck2AoEau3VGuBwEEEEAAAQQQQAABBBBAAAEEEEAAAQQQQACBHBUgqJGjN5bLQgABBBBAAAEEEEAAAQQQQAABBBBAAAEEEEAg1wQIauTaHeV6EEAAAQQQQAABBBBAAAEEEEAAAQQQQAABBBDIUQGCGjl6Y7ksBBBAAAEEEEAAAQQQQAABBBBAAAEEEEAAAQRyTYCgRq7dUa4HAQQQQAABBBBAAAEEEEAAAQQQQAABBBBAAIEcFSCokaM3lstCAAEEEEAAAQQQQAABBBBAAAEEEEAAAQQQQCDXBAhq5Nod5XoQQAABBBBAAAEEEEAAAQQQQAABBBBAAAEEEMhRAYIaOXpjuSwEEEAAAQQQQAABBBBAAAEEEEAAAQQQQAABBHJNgKBGrt1RrgcBBBBAAAEEEEAAAQQQQAABBBBAAAEEEEAAgRwVIKiRozeWy0IAAQQQQACBzBPo1q2btWvXzgYPHpy2xqlunUPnyqWia9LfyJEj03ZZffr0cefQKwUBBBBAAAEEEEAAAQQQQCAzBUpnZrNoFQIIIIAAAgggkHkC06dPt379+rmG9e7d2/r27Zt5jczQFikgEa2ULl3aqlSpYk2aNLHDDjvMTj75ZPc+2r6sQwABBBBAAAEEEEAAAQQQQICRGnwGEEAAAQQQQAABBHYRKIxRJTrptm3bbM2aNTZt2jR78MEH7bTTTrMvv/xyl/awAgEEEEAAAQQQQAABBBBAAAEJMFKDzwECCCCAAAIIIFBIAmPHji2kM2XuaVq1amWDBg0KNVBBjcWLF9tLL71kM2fOtNWrV9uVV15pL774otWpUye0n0bJUBBAAAEEEEAAAQQQQAABBBBgpAafAQQQQAABBBBAAIFCE9htt92sadOmob8WLVrYscce63JlHHPMMa4dGzZssOeee67Q2sSJEEAAAQQQQAABBBBAAAEEskeAoEb23CtaigACCCCAAAII5KxAyZIlrX///qHr+/TTT0PLLCCAAAIIIIAAAggggAACCCDgBZh+ykvwigACCCCAAAIIpFlAeSpWrFhhJ554og0ePDjq2TQdk6ZiGjdunJuWqUSJEtagQQM77rjj7PTTT7dVq1bZSSed5I695ZZbTHXGK37UwwcffGDLly83JeZu1qyZnXrqqda1a9ddDu3Tp4/NmDEjtP7NN980/QVL27ZtbdSoUcFVKVnec889rWrVqvbrr786p2ClPtF4tATtmtZryJAhbvc33njD6tWrZ6+99ppr9/fff29//PGHqe7OnTvb2WefbRotkt/y1ltv2a233mrbt2+3Nm3auDwglStXzm91HIcAAggggAACCCCAAAIIIJBHAYIaeQRjdwQQQAABBBBAIF0Cv/32m1166aX21VdfhZ3im2++Mf29++67dsMNN4Rti/fmhx9+sMsuu8wFM4L7KXeF/mbPnm3XXnttcFORLyvoorJjx458tWXz5s1uxMfnn38edvzChQtNfx999JGNGDHCypcvH7Y9mTcvvPCC3X///bZz505r37693XvvvQUKkCRzTvZBAAEEEEAAAQQQQAABBBAIFyCoEe7BOwQQQAABBBBAoMgEFLDwAY3999/fzjjjDDdKY+3atTZ+/Hj3d+eddybVPnXuDxgwwI16uOCCC+yQQw6xChUq2Pz58+2xxx6zlStX2n/+8x874ogjXAe9r1SjPzZt2uSCKxoV0rFjR7vooov8Zvean4BAWAUx3ug616xZ47bWqlUrxl7xV99+++329ddfu9EwytGhen766Sd7+umnXRBnzpw5Nnr06LCpruLX+N+tI0eOdG56pxEfGq1RpkyZZA5lHwQQQAABBBBAAAEEEEAAgRQKENRIISZVIYAAAggggAAC+RWYNGmSTZkyxR1+1FFH2d13323KM+HLYYcdZs2bN7dhw4b5VXFfFSDQtEtPPPGENWnSJLRvy5Yt7aCDDrKePXvali1bXGBDow58qV+/vlv0IyY0tZISexdGUeBBoyBU1Mb8FI0+UcDh+OOPDx2uZOTy69Wrly1atMheffVV69evn5uKK7RTjAW1RyMy/v3vf7s9TjnlFLv++uvD7k2MQ1mNAAIIIIAAAggggAACCCCQBoH//T/lNFROlQgggAACCCCAAALJCbzyyitux3LlyrkppoIBDV+D8kGogz7Zoo77YEDDH6ccHRqBoTJr1iy/ukheFXjRtFB33HGHPfPMM64NpUqVsrPOOitf7VFAKBjQ8JWULVvW5STRe+XsUK6NREX5TQYNGhQKaPz973+3G2+8kYBGIji2I4AAAggggAACCCCAAAJpFGCkRhpxqRoBBBBAAAEEEEhGQJ3nX3zxhdtVIwqqV68e9TAlDVeH/bx586JuD67UvkouHqtoxIZydKiDX8nECyvZtZKQ+6Tf0dqmESI33XRTvkeHREt+7s+ja/Zl2bJlLmG6fx/5qum7NCLj448/dpuU6+Tcc8+N3I33CCCAAAIIIIAAAggggAAChSxAUKOQwTkdAggggAACCCAQKbB06VI3FZTWJxqJ0apVq8jDo76vVq2a6S9WqVKlSmjTxo0bCy2oETppxILaqmmwNBqiWbNmEVuTf9uoUaOYO0dec6wdf//9d5dgXQEYjZhRcEPTTlEQQAABBBBAAAEEEEAAAQSKXoCgRtHfA1qAAAIIIIAAAsVcQCMlfIk1SsNvjxeo8Pvodbfddgu+3WU5OL3Vjh07dtmerhUKymhKJ180MkPBhho1avhVBXqNd93JXnNwJEz37t0JaBTojnAwAggggAACCCCAAAIIIJBaAYIaqfWkNgQQQAABBBBAAIE4Ago6FFbi8TjNiLtp7733tu3bt9vixYtNuU4OPPBA69KlS9xj2IgAAggggAACCCCAAAIIIFA4AiQKLxxnzoIAAggggAACCMQUCOazWLt2bcz9tGHdunVxt7Ox4AIaDTNixAjba6+9XHDj5ptvtgkTJhS8YmpAAAEEEEAAAQQQQAABBBAosABBjQITUgECCCCAAAIIIFAwgT333NPKlSvnKglOfRSt1rlz50ZbnfJ1SjRenEvt2rXt0UcfNd0bjdq48cYbbdKkScWZhGtHAAEEEEAAAQQQQAABBDJCgKBGRtwGGoEAAggggAACxVlAeSU0xZHKlClTLNZojZ07d9q4ceMKhaps2bLuPFu3bi2U82XiSerWretGbNSvX98FNq677jr78MMPM7GptAkBBBBAAAEEEEAAAQQQKDYCBDWKza3mQhFAAAEEEEAgkwVOPfVU17wtW7bYHXfcYdGSdz/33HOWaCRHqq6xVq1arqqlS5emqsqsrKdevXousLH77rvbtm3bTIGNyZMnZ+W10GgEEEAAAQQQQAABBBBAIBcESBSeC3eRa0AAAQQQQACBQhf49ttvbezYsQnPe/DBB5s6xhOVTp062V/+8hf77LPPbOLEida7d2/r2bOnNWjQwI3c0AiN8ePH27777mtz5sxx1aVziqg2bdrY9OnTTdNdPfXUU3bYYYdZ+fLl3Xk1VVadOnUSXVLObFdAQzk2+vTpYytXrrRrrrnGhg4d6kxy5iK5EAQQQAABBBBAAAEEEEAgSwQIamTJjaKZCCCAAAIIIJBZApqGKJmpiNT5nUxQQ1d35513Wv/+/V3QYtasWaa/YGnevLkbKdCrVy+32k8RFdwnVcs9evSwl19+2X799VcbPny4+/N1t23b1kaNGuXfFotXTUE1cuRIF9j4+eef7eqrr7b77rvPBaKKBQAXiQACCCCAAAIIIIAAAghkiADTT2XIjaAZCCCAAAIIIIBA5cqVbfTo0TZgwABr2bKlVahQwSpWrGj77LOPC3Y88cQTVrLk//7nW6VKldKGppEYY8aMsZNPPtmNFvGJzNN2wiyoWEnDNWJDScQ1TdjAgQNt2rRpWdBymogAAggggAACCCCAAAII5I5AiT8TTu5M6eV8911Kq6MyBBBAAAEEEMhigVKlzBo2zOILyLymaxqqQYMGuYa99tprpo52CgIIIIAAAggggAACCCCAAALFReB/j/oVlyvmOhFAAAEEEEAAgSwWeOedd1zrq1evbpoSiYIAAggggAACCCCAAAIIIIBAcRIgqFGc7jbXigACCCCAAAIZLaBcDZs3b47ZRo3M+OSTT9z2E044wdKZKDxmI9iAAAIIIIAAAggggAACCCCAQBEKkCi8CPE5NQIIIIAAAgggEBSYOnWqPfTQQ9alSxc76KCDbPfdd7cdO3bY0qVL7b333rNJkya53WvWrGnnnXde8FCWEUAAAQQQQAABBBBAAAEEECgWAgQ1isVt5iIRQAABBBBAIFsE1q5day+++KL7i9bmWrVq2bBhw6xatWrRNrMOAQQQQAABBBBAAAEEEEAAgZwWIFF4Tt9eLg4BBBBAAIEiFiBReJ5uwLp162zChAn22Wef2XfffWd6v3HjRqtcubI1btzYDj/8cOvevbtVrFgxT/WyMwIIIIAAAggggAACCCCAAAK5IkBQI1fuJNeBAAIIIIBAJgoQ1MjEu0KbEEAAAQQQQAABBBBAAAEEEMhaARKFZ+2to+EIIIAAAggggAACCCCAAAIIIIAAAggggAACCBQvAYIaxet+c7UIIIAAAggggAACCCCAAAIIIIAAAggggAACCGStAEGNrL11NBwBBBBAAAEEEEAAAQQQQAABBBBAAAEEEEAAgeIlQFCjeN1vrhYBBBBAAAEEEEAAAQQQQAABBBBAAAEEEEAAgawVKJ21LafhCCCAAAIIIIBABgnMnj3bzj//fNttt91s0qRJVrr0f/9n1oYNG+zoo4+2HTt22Jtvvmn16tWL2up27dpFXR9t5YknnmiDBw8O25SO40uUKGEVKlSwSpUqWfXq1a158+a27777WqdOnaxatWph54/2Rm3UNUeWsmXLujpV7957720tW7a0v/71r9aiRYvIXXd5P336dOvXr98u60v9mZS+YsWKrt66deu6ug444AA74ogjrEyZMrvsH7miW7dutmLFisjVVr58eVenrrdZs2bWqlUrd/116tTZZV9WIIAAAggggAACCCCAAAIIpF+AoEb6jTkDAggggAACCBQDgVmzZrmr3G+//UIBDa3QegU01NEeK6CRqTw7d+60jRs3ur+VK1favHnz7PXXX7f77rvPunTpYpdffnlSwY3I69u6dautWbPG/S1ZssQFgR599FEXMLjsssssLwEaX/f27dtt/fr17m/58uU2c+ZMe+GFF1ww5owzzrDzzjsv7L744xK9btq0yfS3atUqW7BggY0bN84eeOABFyy58sorbY899khUBdsRQAABBBBAAAEEEEAAAQRSKEBQI4WYVIUAAggggAACxVfABzU0OiBY1LmuErk+uE9wWSMBBg0aFFy1y3KVKlV2WedXpPr4P/74wwUKfvzxR/vyyy9t4sSJtmXLFhs7dqxNmTLFhg4daq1bt/anj/k6fPhwq1WrltuuYIlGsCiw8dVXX7mgxrJly2zu3Ll28cUX2wUXXGB9+/aNWZff0KNHD9OfLwo+KLCh4MO0adPs888/t7Vr19qIESPs448/tmHDhrkgh98/2mvt2rXtn//8Z2jTtm3bXFs1ikOjcSZMmGC//fabc1D9t912mwtwhA5gAQEEEEAAAQQQQAABBBBAIK0CBDXSykvlCCCAAAIIIFBcBNThrRIZvFAgINp6tzLKfzR9VdOmTaNsSW5Vuo4/9NBDXQBh3bp1bqTG+PHjbfXq1TZgwAAbM2ZMwhELe+21V9R9jjnmGDfiQ9NU3XPPPbZ582Z77LHHrEaNGnbaaafFvWhNiRXNSlNZaWTGd999ZzfffLPNnz/f5syZY1dddZULcMSbjkrThkWrUw056aST3PWOHDnSnnvuOTeC5frrr3ftVTCJggACCCCAAAIIIIAAAgggkH4BEoWn35gzIIAAAggggECOC2gUg0YdKK9DcNSCRjRo9IFKZLAjW0mUW0KjE7p37+4uQSMhNFqjIKVkyZIuYKDRHDJU0RRPv/zyS0Gqdfk6Ro8e7XKBqCKNpvn3v/9doDqVY0TTTvXv39/Vo3t8++23F6hODkYAAQQQQAABBBBAAAEEEEhegKBG8lbsiQACCCCAAAIIRBXwU0/pCX8lq/ZFowM0fVPlypWtSZMmfnVOvA4cONDlCdHFaGqnRYsWFfi6FPg566yzXD3Ku6HREAUtGrly6623mpKeqzz77LOmKaUKWs4991xT/hSVb7/91iZPnlzQKjkeAQQQQAABBBBAAAEEEEAgCQGCGkkgsQsCCCCAAAIIIOAFlEtCiayDf4MHD3abNc1RcH2fPn3ceuWPOOSQQ8K2KZl1NpeyZcuG8lkoR8aHH36Yksvp2bOnaeSGSqrqVEBJ02epKOG3gk0FLQqSqK2+pKqtvj5eEUAAAQQQQAABBBBAAAEEogsQ1IjuwloEEEAAAQQQQACBBAIK1Pjic4f49/l9rVu3rjVq1MgdvmTJkgJPQeXbEWyrT97ut+X31QdKdHyq6sxvWzgOAQQQQAABBBBAAAEEECguAqWLy4VynQgggAACCCCAQCoEjjrqqLC8Gcr70K9fP1f1448/bso5obJjxw7r1auXKefC3Xffvcv0U3Xq1HH7Rf5HibIXLlwYuTr0vnz58la/fv3Q+8iFgh4fWV+89/vss48bVaFrXbx4cbxd87StefPmLsm3DlK+klq1auXp+Gg7t2jRIrRawZJUFCUqVxBm5cqVrp2pqJM6EEAAAQQQQAABBBBAAAEE4gsQ1Ijvw1YEEEAAAQQQQCBMoFKlSqY/X3wAQoGGYDJw5VlQQKNcuXLWsWNHK106uf/ZpcTiwWmN/Hn8a9u2bW3UqFH+7S6vBT1+lwrjrChTpowpcfZvv/1mmmIrVcUHhlTf+vXrU1Jt1apVQ/Wksq2qV0GN7du3O4fgZyN0QhYQQAABBBBAAAEEEEAAAQRSJsD0UymjpCIEEEAAAQQQKI4Cftqh/fffP+zyffLwVq1aJR3QCKsgS94oqKGycePGlLVYo1F8+f333/1igV59O1VJpre1QBfKwQgggAACCCCAAAIIIIBAjgsk98hgjiNweQgggAACCCCAQH4FfC6J4CgN1TV79mxXZWSwI9F5Eo3ESPfxieqP3O4DBKkcoRAMZFSsWDHylPl679upg1NVp+pKR1tVLwUBBBBAAAEEEEAAAQQQQCC6ACM1oruwFgEEEEAAAQQQSCigjnI//VRkUMOP1GjTpk3CerJ1h61bt4Y69atUqZKyy1i3bl2orlTVG6wzOBVV6ET5XPD1lipVKqXBknw2h8MQQAABBBBAAAEEEEAAgZwXYKRGzt9iLhABBBBAAAEEUiXQrVs3W7FiRdTqTj/99KjrBwwYELa+d+/e1rdv37B12fpGeUN27tzpmt+wYcOUXcb8+fNDdaWq3nTUuWbNGlu1alXKrz908SwggAACCCCAAAIIIIAAAgjsIsBIjV1IWIEAAggggAACCCCQjMDUqVNDu0WOVAltyOPCTz/9ZIsXL3ZHKaBRvXr1PNYQffd0tDUddUZvPWsRQAABBBBAAAEEEEAAAQS8ACM1vASvCCCAAAIIIIBAAoHhw4fbH3/8EdpryJAh9s0339j5559vXbp0Ca0fOXKkTZw40bp27WrnnntuaL0WatSoEfY+W99s2bLFXnnlFdf8EiVKWMeOHVNyKS+++KLt2LHD1XXUUUelpE5NETZt2jRXV926da1ly5YFrlcjVP71r3+F6klVW0MVsoAAAggggAACCCCAAAIIIBBVgKBGVBZWIoAAAggggAACuwoEp0Latm2bff/9926nTp06WdOmTUMH+JEGHTp0CFsf2iEHFu6//35buXKlu5IjjzzSGjduXOCrUtL1559/3tVTrlw5O/PMMwtc5+bNm+2WW24JTZPVq1cvK1264P8TeMyYMTZnzhzXvhYtWlj79u0L3FYqQAABBBBAAAEEEEAAAQQQSCxQ8P9Hl/gc7IEAAggggAACCOScgEZoqMO8YsWK1qxZs9D1KXG0D3a0bds2tD5XFnR99913n40fP95dUs2aNW3gwIEFujyNzHjrrbfs7rvvtu3bt7u6VKfqLkj57rvvbNCgQebzaeh+9OjRoyBVusToo0aNsmeffdbVs9tuu9lNN91UoDo5GAEEEEAAAQQQQAABBBBAIHkBghrJW7EnAggggAACCCAQEpgxY4ZbbtOmjZUqVSq0XqMNNDVRgwYNrHbt2qH12bKgQI2ma/JF021t2LDBlixZYrNmzbIPPvjANPWUiq5v6NChVq9ePb97zFcd//vvv7vt8vntt99s9erV9vXXX7upupYtW+a2lSxZ0pRM/dRTT41Zl9+wdu3asLaq7evXr7cFCxa46aaU88InMm/durXdc889CUdpaARO8Pr1Xm1dvny5zZ49295//33noTZUqlTJbr/9dtNIDQoCCCCAAAIIIIAAAggggEDhCBDUKBxnzoIAAggggAACOSYwc+ZMd0WRCbIV1FA58MD/z959h0lRbA0cPrBk2CWJRMmI5LQgKhlEshlRwYAKmFAx4IfgBcV8wYQKKCZQUEAQEFRAJQmSQXJOiuScET5P3dt9e2Z6ZmeHWXbCr55n7nRXV1dXvc0f3jlbdWqY72j7n1WrVkmHDh0CDlu3hrruuuuke/fukidPnoBtrYuPPPKIdej3u1KlSqbPWrVq+W3jvDBmzBjRT6CiicZ1G6u77rorxYCG9rNnz54U569BrAYNGkiPHj2kcOHCgR7PNQQQQAABBBBAAAEEEEAAgTALENQIMyjdIYAAAggggEDsC+h2SbpqQYt38MIKdsTK1lM5cuQwW2xpgnNdkVC5cmXRHCK5c+cO+UVnzpzZrHJITEw0uTgqVqwomn+kfPnyIfepKzx0rLp6QgMNOlZ9N/Xr1xd9XqhFt5fSPjV4o9uMaeCladOmUbkKJ1QD7kMAAQQQQAABBBBAAAEEIkkgwz9L8s+HdUD/7F1MQQABBBBAAAEEjIBuy1SiBBgIIIAAAggggAACCCCAAAIIIIBAWAQyhqUXOkEAAQQQQAABBBBAAAEEEEAAAQQQQAABBBBAAAEE0liAoEYaA9M9AggggAACCCCAAAIIIIAAAggggAACCCCAAAIIhEeAoEZ4HOkFAQQQQAABBBBAAAEEEEAAAQQQQAABBBBAAAEE0liAoEYaA9M9AggggAACCCCAAAIIIIAAAggggAACCCCAAAIIhEeAoEZ4HOkFAQQQQAABBBBAAAEEEEAAAQQQQAABBBBAAAEE0liAoEYaA9M9AggggAACCCCAAAIIIIAAAggggAACCCCAAAIIhEeAoEZ4HOkFAQQQQAABBBBAAAEEEEAAAQQQQAABBBBAAAEE0liAoEYaA9M9AggggAACCCCAAAIIIIAAAggggAACCCCAAAIIhEeAoEZ4HOkFAQQQQAABBBBAAAEEEEAAAQQQQAABBBBAAAEE0liAoEYaA9M9AggggAACCCCAAAIIIIAAAggggAACCCCAAAIIhEeAoEZ4HOkFAQQQQAABBBBAAAEEEEAAAQQQQAABBBBAAAEE0liAoEYaA9M9AggggAACCCCAAAIIIIAAAggggAACCCCAAAIIhEeAoEZ4HOkFAQQQQAABBBBAAAEEEEAAAQQQQAABBBBAAAEE0liAoEYaA9M9AggggAACCCCAAAIIIIAAAggggAACCCCAAAIIhEeAoEZ4HOkFAQQQQAABBBBAAAEEEEAAAQQQQAABBBBAAAEE0liAoEYaA9M9AggggAACCCCAAAIIIIAAAggggAACCCCAAAIIhEeAoEZ4HOkFAQQQQAABBBBAAAEEEEAAAQQQQAABBBBAAAEE0liAoEYaA9M9AggggAACCCCAAAIIIIAAAggggAACCCCAAAIIhEeAoEZ4HOkFAQQQQAABBBBAAAEEEEAAAQQQQAABBBBAAAEE0liAoEYaA9M9AggggAACCCCAAAIIIIAAAggggAACCCCAAAIIhEeAoEZ4HOkFAQQQQAABBNwEdh9zq6UOAQQQQAABBBBAAAEEEEAAAQQQCEmAoEZIbNyEAAIIIIAAAkEJ/H0+qGY0QgABBBBAAAEEEEAAAQQQQAABBIIRyBRMo1S12clfZKbKi8YIIIAAAgjEssCh07E8O+aGAAIIIIAAAggggAACCCCAAAIXWSD8QY16Yy/yFHgcAggggAACCESsQNFEkR21InZ4DAwBBBBAAAEEEEAAAQQQQAABBKJLgO2nout9MVoEEEAAAQQQQAABBBBAAAEEEEAAAQQQQAABBOJWgKBG3L56Jo4AAggggAACCCCAAAIIIIAAAggggAACCCCAQHQJENSIrvfFaBFAAAEEEEAAAQQQQAABBBBAAAEEEEAAAQQQiFsBghpx++qZOAIIIIAAAggggAACCCCAAAIIIIAAAggggAAC0SVAUCO63hejRQABBBBAAAEEEEAAAQQQQAABBBBAAAEEEEAgbgUIasTtq2fiCCCAAAIIIIAAAggggAACCCCAAAIIIIAAAghElwBBjeh6X4wWAQQQQAABBBBAAAEEEEAAAQQQQAABBBBAAIG4FSCoEbevnokjgAACCCCAAAIIIIAAAggggAACCCCAAAIIIBBdAgQ1out9MVoEEEAAAQQQQAABBBBAAAEEEEAAAQQQQAABBOJWgKBG3L56Jo4AAggggAACCCCAAAIIIIAAAggggAACCCCAQHQJENSIrvfFaBFAAAEEEEAAAQQQQAABBBBAAAEEEEAAAQQQiFsBghpx++qZOAIIIIAAAggggAACCCCAAAIIIIAAAggggAAC0SVAUCO63hejRQABBBBAAAEEEEAAAQQQQAABBBBAAAEEEEAgbgUIasTtq2fiCCCAAAIIIIBAZAskJyeLfoYMGZJmA+3SpYt5hn5TEEAAAQQQQAABBBBAAAEEIl8gU+QPkREigAACCCCAAAKRIbBw4ULp1q2b62CyZs0qefLkkXLlyknjxo2lZcuWkiVLFte28VKpAQm3kilTJklKSpIyZcrI1VdfLddff705d2tLHQIIIIAAAggggAACCCCAAAJOAVZqODU4RgABBBBAAAEEQhQ4deqU7Nq1S2bPni0vvviidOzYUf78888Qe4vt286ePSv79++XBQsWyNtvvy233nqrLF26NLYnzewQQAABBBBAAAEEEEAAAQTCIsBKjbAw0gkCCCCAAAIIxJvALbfcIvqxyoEDB2Tjxo0yfPhwE9zYtGmT9OjRQ7744gtJSEiwmsXld8WKFeX555+3565Bja1bt8qYMWNkyZIlsm/fPnniiSfkq6++kksvvdRupytjKAgggAACCCCAAAIIIIAAAgg4BVip4dTgGAEEEEAAAQQQCFIgb968UrZsWftTu3Zt6dChg3z99ddSpEgR08uGDRvk559/DrLH2G2WLVs220nNrrjiCrnuuutMroxmzZqZiR85csQEgGJXgZkhgAACCCCAAAIIIIAAAgiEQ4CgRjgU6QMBBBBAAAEEEPivQM6cOaVz5862x/z58+1jDjwFMmbMKI888ohdOXfuXPuYAwQQQAABBBBAAAEEEEAAAQTcBNh+yk2FOgQQQAABBBBA4AIEdDWCVTTPhr9y5swZGT9+vEybNs1sXXX06FHJnTu3lC9fXlq0aGE++sO/v6JbOOmWTbpN019//SWnT582ycrz5ctn+rjqqqukUaNGfhOW792719w/b948+eOPP+TEiROi91apUkVuvPFGufLKK/09Omz1xYoVM3M+dOiQ7Ny506NfK9H4Aw88IF27dvW4NnHiROnXr5+pmzBhghQqVMhYTpo0STZv3ixqq31fe+21cuedd4quFgm1fPfdd/LCCy/I33//LVWrVjV5QBITE0PtjvsQQAABBBBAAAEEEEAAAQQuQICgxgXgcSsCCCCAAAIIIOAmkDlzZrs6Uyb3/9zSJOLdu3eXLVu22G31QPNL/Prrr+bzzTffyIABA8yP/h6N/jnRQEifPn3Mj/fOaxqo0M+6detEf/gfNWqU2frJ2UaPp0yZIi+//LIJZDivaRBGP9r/9ddfL//3f/8n/ubgvO9Cjq3+z507F1I3J0+eNCs+vFfF6PZf+pk5c6YMHjxYsmfPnur+R44cKQMHDpTz58+LBoneeOONCwqQpHoA3IAAAggggAACCCCAAAIIIOAh4P7/sj2acIIAAggggAACCCCQGgFdKWAVK7+Gda7fx48flwcffNCsjtBzXU3Rrl07KVCggKnTvByLFy+WpUuXmgTaH374oUeycQ186CoFXY2gKyvat28vlStXNqs0Tp06Jdu3bzf3z5gxQ7v3KVOnTjWJu/WH+qJFi5r7S5cuLZonRIMt3377rcyZM8d863ZamvA8rYomWN+/f7/p/pJLLgnpMf3795cVK1ZImzZtRHN0aD+6cuXzzz+X5cuXy8qVK2XYsGEeW10F86AhQ4aI2mvRFR+6WsMZsAqmD9oggAACCCCAAAIIIIAAAgiEV4CgRng96Q0BBBBAAAEE4lxAtygaPny4rdC0aVP72DrQH8p1uyct9913nwlwWNcqVKgges/zzz9vVlPoj/Ljxo2TW265xWois2fPtldYvP/++z4rMapVq2Z+4NcVDN7l4MGD8tJLL5mVBxpI6dWrl8dKDE3i3aRJE3nvvffkk08+MSs9brrpJilZsqR3V2E518CDBle01KpVK6Q+1UgDDq1atbLv13lcffXV0qlTJ7O1lxp269bNY652Y68DHY+uyNDgkhbdiktXrATaCsyrC04RQAABBBBAAAEEEEAAAQTSSMD/Js1p9EC6RQABBBBAAAEEYlFAVxwsWLBAunTpImvXrjVT1OBE9erVPaareS80j4YWXR2h7b1LhgwZpGfPnva2U9aP61Y7XamhJSkpySegYbXRb80j4Z1LYsyYMaK5Oy699FJ59tln/f7IrzkstI1uCaU5JcJZdIWJbgul219ZAaCEhAS54447QnpM48aNPQIaVidZsmQxq1D0XHN2OFfQWG28v8+ePWsCSpb5XXfdJc899xwBDW8ozhFAAAEEEEAAAQQQQACBdBJgpUY6wfNYBBBAAAEEEIhuAV1tYW1N5D0TDSTcfPPN8uijj3pfktWrV8uRI0dMfdu2bT22lXI2zpUrl9nySIMQmzZtMnkyrO2ZrO/Dhw/LL7/8Yravct4b6FjzS2ipV6+e3wTiel3zXGjC8OnTp8vvv/+uVSEX3UrLSvrt1ok+q3fv3gEDNG73WXUtW7a0Dn2+deWLVXR1TLly5axTn29d2aIrMmbNmmWu6fu7++67fdpRgQACCCCAAAIIIIAAAgggkH4CBDXSz54nI4AAAggggECMClx++eXSoUMH11UQGzdutGeteTACFb2uQQ0turLBCmY0aNBAEhMTTXDk6aefNts21a9fX2rWrCn6bF314FZ0ayxrFYkmIddPMMVaGRJM29S0yZMnj0m+rashAgUbUuoz0NZYuprFKseOHbMOfb41z4kmbtcAjG4zpcEN3XaKggACCCCAAAIIIIAAAgggEFkCBDUi630wGgQQQAABBBCIEgHNcWHludBgwe7du82qhsmTJ5vk1Lp902effWaSbzunpKsrrKKJuQOV/Pnz25ed92kwYODAgWZbJH3uwoULzUcba2LvOnXqmMTjGuhwFu1Dx5ra4pabIzV9VKxY0WzpZN2jKzM02KBJzsNRvLfYcvbpzIOhW2n5K2vWrLEv6SobAho2BwcIIIAAAggggAACCCCAQEQJENSIqNfBYBBAAAEEEEAgWgQ0IFG2bFl7uOXLlxcNIug2S3379pU///xTXnzxRRN8sBt5HWjujFBLjRo1TALxn376SebMmSNLliyRXbt2ia5G+Pnnn83nqquuMgmvrR/9nQGNG264wawmCeb5mTNnDqaZ3zb6fKeV34bpeEHzm6jP1q1bzQoW9W3evHk6johHI4AAAggggAACCCCAAAIIuAkQ1HBToQ4BBBBAAAEEEAhRoE2bNqJ5KzTYoN+aPLx27dp2b87tkPbv3y8lSpSwr3kfOLd9ct5ntcuaNatoPgkrp4TmjJg9e7Z89dVXsm3bNpk7d66899578uSTT5pbcufObd0q58+fj/hAgz3Yi3Cgq19eeukl0RU2atenTx+zDVWzZs0uwtN5BAIIIIAAAggggAACCCCAQLACGYNtSDsEEEAAAQQQQACB4AQefvhhO6+FBhWcpUyZMvbpihUr7GO3g5UrV9rVwax0KFq0qNx2223y+eefS8GCBc2906ZNs/vQFRe6IkHLsmXL7HoO/iNQoEAB+eCDD6RYsWJm1cZzzz1nErHjgwACCCCAAAIIIIAAAgggEDkCBDUi510wEgQQQAABBBCIEQFdfWH9hb8GLubNm2fPrEKFCibJt1ZMmjRJ/OV50G2kpk6dau7TQISVJNzuKMBBrly5RPNYaDl48KBHy4YNG5rzLVu2mJUcHhc5McGgwYMHiwaIdDuqZ599VmbMmIEMAggggAACCCCAAAIIIIBAhAgQ1IiQF8EwEEAAAQQQQCC2BO69916xcmZ8/PHH9uSyZMkims9Cy8aNG+Wjjz6yr1kHujXU66+/bgck2rdvb10y37qt1N69ez3qnCdHjx4Va5VHkSJFnJdMHo0cOXKYun79+pkxeDTwOtHtrNavX+9VG9unhQoVEg1sFC5cWM6ePWsCG+pAQQABBBBAAAEEEEAAAQQQSH8Bcmqk/ztgBAgggAACCCAQgwK6XVSDBg3MX/kvXrxYli5dKtWrVzczvf/++03ODc2BMXToUNmwYYO0a9fOrMbQuq+//loWLVpk2latWlVuvPFGD6EffvhBnnjiCbnyyiulbt26oltaac6N48ePmyCF3r97925zz8033+xxb/78+U0i8549e5rAyF133SWaB+Tqq682qxT0R3xNOK5BkenTp4uO580335Ry5cp59BPrJxrQ0MBGly5djMczzzwj//73v41TrM+d+SGAAAIIIIAAAggggAACkSxAUCOS3w5jQwABBBBAAIGoFujcubO9dZGuyBg0aJCZT86cOU3uhu7du4tuA6VJxfXjXapVqyYDBw6083M4r2vwYc6cOebjrHcea0CjQ4cOzipz3KRJExkwYIDoSo1Dhw7J2LFjzcen4T8VGTNmlOzZs7tdivk63YJqyJAhJrChQaKnn37auGkgiYIAAggggAACCCCAAAIIIJA+AgQ10sedpyKAAAIIIIBAHAhUqlTJrKb47bffTF4NXf2gdVp0W6iRI0fKuHHjRJN561ZUmkcjd+7cUr58eWnRooX5aFDBu/To0cP0u2DBArPKQ7eiOnDggAlAaIJwXd2hW1xZK0O879dzXUXy7bffyvjx401gZNOmTSbAkZCQYFaMaB6P5ORkadq0qeh2TPFaNGm4rtjo2rWr7NmzR5588kl56623pHbt2vFKwrwRQAABBBBAAAEEEEAAgXQVyPDPns3nwzqCDH3D2h2dIYAAAggggEAUCxRNFNnxZBRPgKEjgAACCCCAAAIIIIAAAggggEAkCfj+6V8kjY6xIIAAAggggAACCCCAAAIIIIAAAggggAACCCCAAAL/FSCowT8FBBBAAAEEEEAAAQQQQAABBBBAAAEEEEAAAQQQiAoBghpR8ZoYJAIIIIAAAggggAACCCCAAAIIIIAAAggggAACCBDU4N8AAggggAACCCCAAAIIIIAAAggggAACCCCAAAIIRIUAQY2oeE0MEgEEEEAAAQQQQAABBBBAAAEEEEAAAQQQQAABBAhq8G8AAQQQQAABBBBAAAEEEEAAAQQQQAABBBBAAAEEokKAoEZUvCYGiQACCCCAAAIIIIAAAggggAACCCCAAAIIIIAAAgQ1+DeAAAIIIIAAAggggAACCCCAAAIIIIAAAggggAACUSFAUCMqXhODRAABBBBAAAEEEEAAAQQQQAABBBBAAAEEEEAAAYIa/BtAAAEEEEAAAQQQQAABBBBAAAEEEEAAAQQQQACBqBAgqBEVr4lBIoAAAggggAACCCCAAAIIIIAAAggggAACCCCAQCYIEEAAAQQQQAABBC5cYPny5dK5c2fJli2b/PLLL5Ip03/+M+vIkSPStGlTOXfunEyaNEkKFSrk+rDk5GTXerfKNm3aSN++fT0uXej9VmcnT56Ur776SqZPny47duyQ06dPS8GCBaVevXrSoUMHKVy4sNU04PfOnTtl1KhRMnv2bNm1a5dkyZJFihUrJs2aNZP27dsbJ38dpGYuVh8LFy60Du3vtm3bio4jmFKzZk0ZOnRoME1pgwACCCCAAAIIIIAAAgggkI4CBDXSEZ9HI4AAAggggEDsCCxbtsxMpnLlynZAQyu0XgMaGhjwF9CIFIXt27fLY489Jtu2bfMY0tatW0U/48ePl/79+0v9+vU9rnufzJw5U/r06SPHjh2zL2mwZNWqVeaj/bz99tty2WWX2dcv5KB48eIXcjv3IoAAAggggAACCCCAAAIIRJEAQY0oelkMFQEEEEAAAQQiV8AKalSvXt1jkEuWLDHn3vUejRwnFStWlOeff95R43uYlJTkW/nfmlDv1wCEM6Bx4403SvPmzSVr1qyiqyA+/fRTE6T4v//7Pxk2bJiUL1/edQxr1qwRbXPq1CnJkSOH3HPPPaIrL/T8xx9/lHHjxpmgiT5r+PDhkjNnTp9+dIVHSuW7774z92s7XbkSqBQoUEDefffdQE0ke/bsAa9zEQEEEEAAAQQQQAABBBBAIDIECGpExntgFAgggAACCCAQ5QK6/ZQW7+DF0qVLXetNpcv/6PZVZcuWdbkSXFWo92uAwVqh0b17d7nrrrvsB1atWlVq1aolXbp0EV1xMWDAAL9bNek1DWAkJCTIoEGDRO+1Su3atc3qjHfeecc8a8SIEdK1a1frsv0dzPwXL15s2mfIkEFatWpl3+t2oFuBBdOn273UIYAAAggggAACCCCAAAIIRJYAicIj630wGgQQQAABBBCIQgHdtmn//v3mh/wqVarYM9Af93XLJS3ewQ67UQQcnD171uS/0KGUKlVKOnbs6DOqatWqyfXXX2/qNaCwcuVKnzYrVqwQa2WKtnUGNKzG2rc+Q4uuyNBnp7Zs2bLFfr4GWyJ9W6/Uzo/2CCCAAAIIIIAAAggggAAC/gUIavi34QoCCCCAAAIIIBCUgLX1lK4GcG6npD/8nzlzRhITE6VMmTJB9ZUejXR7qaNHj5pHt27dWjJmdP9PRE28bRVNhu5dZsyYYVe1a9fOPnYeaN/6DC2aRN0twbezvduxbj1llZS2nrLa8Y0AAggggAACCCCAAAIIIBAbAmw/FRvvkVkggAACCCCAwEUSmDhxovTr18/1aWvXrjX5I7wv6o/3derU8aieMGGCFClSxKMuvU6sLbL0+brywV+pUKGC6PZWugWVFchxtrX60fwUV1xxhfOSx3HNmjXtc+2nbt269nlKB+fPn5cpU6aYZvqcJk2apHQL1xFAAAEEEEAAAQQQQAABBGJIwP3P8GJogkwFAQQQQAABBBBAILDApk2b7AYlS5a0j70PNDfFZZddZqo3b97sfVmsOm2jbf0V5zOse/y19a5ftGiR/PXXX6a6cePGJhm5dxvOEUAAAQQQQAABBBBAAAEEYlfA///bjN05MzMEEEAAAQQQQCBkAf0h3Zk3Y+/evdKtWzfT30cffSR58uQxx+fOnZNOnTqZpNmvvfaaz/ZTl156qesYdBXEhg0bXK9ppa5OKFq0qN/rody/e/du05/2rVtlBSoFCxaU9evXy4EDB+T06dOSJUsW01zzhxw8eNAc+5ub1W9SUpKZx4kTJ2TXrl1WdVDfzq2nrG2sUrpR83YEMs2cObOUKFEipW64jgACCCCAAAIIIIAAAgggEAECBDUi4CUwBAQQQAABBBCIHoFcuXKJfqxi/ViugQZnMvB169aZgEbWrFmlYcOGAVcuWH3ptyYW79Chg7PK41i3bho6dKhHnfMklPuPHz9uusiRI4ezK9djDXxYRe+zghpWH3rN2cZq6/2tbTSo4bzPu433uQZsfvrpJ1OtwZXatWt7N3E937NnT0DTwoULi24rRkEAAQQQQAABBHfx5+oAAEAASURBVBBAAAEEEIh8Abafivx3xAgRQAABBBBAIIIFlixZYkZXrVo1j1FaOScqVqwYdEDDo4OLeKKrLLQE2jLKGo6uarCKdZ+eO4+dbay23t9WG+d93m28zzU5+bFjx0x1y5Yt/SY0976PcwQQQAABBBBAAAEEEEAAgdgRYKVG7LxLZoIAAggggAAC6SBgJcd2rtLQYSxfvtyMxjvYkdIQU1qJkRb362oSLbpNU0rlzJkzdhPrPq1wHjvb2I29Dqw2zvu8mvicOreeatOmjc91fxWsxPAnQz0CCCCAAAIIIIAAAgggEH0CrNSIvnfGiBFAAAEEEEAgQgR01YC1/ZR3UMNaqVG1atUIGa3/YVjbTgWzFZRuGWUV6z49dx4721htvb+tNs77vNs4zzV3yfz5802Vrn5xJht3tuMYAQQQQAABBBBAAAEEEEAgtgVYqRHb75fZIYAAAggggEAYBdq2bSs7d+507bF9+/au9T169PCof+CBB6Rr164edel9YiX21kDDkSNHAiYLtxJ7582b186noePXFRe5c+eWQ4cOiZV43N+8Dh8+bPJp6HXNjRFMmTJlivz999+mabAJwoPplzYIIIAAAggggAACCCCAAALRJcBKjeh6X4wWAQQQQAABBBAIu0Dp0qXtPrds2WIfex/o9lQ7duww1aVKlfK+LFY/27dvD7iVlfMZbv34dPxPxeTJk0215uK47rrr3JpQhwACCCCAAAIIIIAAAgggEAcCrNSIg5fMFBFAAAEEEEAgPAKDBg0SKxeE9tivXz9ZvXq1dO7cWZo3b24/ZMiQIfLzzz+LJrO+++677Xo9yJcvn8d5JJw4t85atGiRVKlSxXVYOldr2yi3XCHajyZO1zZr1qyRypUru/azePFiu96tH/vifw/Wrl0r69evN2fXXHON5MmTx7sJ5wgggAACCCCAAAIIIIAAAnEiQFAjTl4000QAAQQQQACBCxcoUaKE3YmuWti8ebM5b9KkiZQtW9a+tnXrVnNcr149j3q7QYQd1KpVS3LlyiVHjx4VTcatgZgMGTL4jHLixIl2XaNGjexj66Bhw4byySefmNMJEya4BjXOnTtnnqGNEhMTJTk52brd73eoCcL9dsgFBBBAAAEEEEAAAQQQQACBqBVg+6mofXUMHAEEEEAAAQTSU0BXLZw8eVJy5swp5cqVs4dy8OBBO9hRs2ZNuz6SD3RLpw4dOpghaqBm+PDhPsNdvny5fPvtt6Ze51WpUiWfNroyo0aNGqZe2+o93mXEiBG2jz4zU6bAf2OjeTR++OEH043m7NBAEQUBBBBAAAEEEEAAAQQQQCB+BQL/v8j4dWHmCCCAAAIIIIBAQAFrC6WqVatKQkKC3Xbp0qVy/vx5ueyyy6RAgQJ2faQfdOrUSX788UfZtm2bvPPOO6J5MTR3hSYAX7hwoVmBoQEGPX/yySf9Tkev3XfffXLq1Cl55JFH5N577zWrMfRcgxPjxo0z9xYvXlw6duzotx/rwty5c2Xfvn3mVMeTUhDEuo9vBBBAAAEEEEAAAQQQQACB2BQgqBGb75VZIYAAAggggEAaC2juCC3OfBR6rkENLdaKBXMSBf+jK07efvtteeyxx0xgQ4MPVgDCGr626d+/v5QvX96q8vm+4oor5JVXXpE+ffrIsWPH5L333vNpowENfZb2l1Jxbj3VunXrlJpzHQEEEEAAAQQQQAABBBBAIMYFCGrE+AtmeggggAACCCAQfgHNC7Fs2TLTsXfwwgp2RMvWU04dXV3yxRdfyNdffy3Tp083qzU0MXrBggVFE3TffvvtUrhwYectrscNGjSQUaNGyciRI2X27Nmye/du0S2utP+mTZvKbbfdJtmyZXO911mpOT5mzpxpqkqVKuW65ZWzPccIIIAAAggggAACCCCAAAKxL5Dhn+0Rzod1mhn6hrU7OkMAAQQQQACBKBYomiiyw/9WRVE8M4aOAAIIIIAAAggggAACCCCAAALpIECi8HRA55EIIIAAAggggAACCCCAAAIIIIAAAggggAACCCCQegGCGqk34w4EEEAAAQQQQAABBBBAAAEEEEAAAQQQQAABBBBIBwGCGumAziMRQAABBBBAAAEEEEAAAQQQQAABBBBAAAEEEEAg9QIENVJvxh0IIIAAAggggAACCCCAAAIIIIAAAggggAACCCCQDgIENdIBnUcigAACCCCAAAIIIIAAAggggAACCCCAAAIIIIBA6gUIaqTejDsQQAABBBBAAAEEEEAAAQQQQAABBBBAAAEEEEAgHQQIaqQDOo9EAAEEEEAAAQQQQAABBBBAAAEEEEAAAQQQQACB1AsQ1Ei9GXcggAACCCCAAAIIIIAAAggggAACCCCAAAIIIIBAOggQ1EgHdB6JAAIIIIAAAggggAACCCCAAAIIIIAAAggggAACqRcgqJF6M+5AAAEEEEAAAQQQQAABBBBAAAEEEEAAAQQQQACBdBAgqJEO6DwSAQQQQAABBBBAAAEEEEAAAQQQQAABBBBAAAEEUi9AUCP1ZtyBAAIIIIAAAggggAACCCCAAAIIIIAAAggggAAC6SBAUCMd0HkkAggggAACCCCAAAIIIIAAAggggAACCCCAAAIIpF6AoEbqzbgDAQQQQAABBBBAAAEEEEAAAQQQQAABBBBAAAEE0kGAoEY6oPNIBBBAAAEEEEAAAQQQQAABBBBAAAEEEEAAAQQQSL0AQY3Um3EHAggggAACCCCAAAIIIIAAAggggAACCCCAAAIIpIMAQY10QOeRCCCAAAIIIIAAAggggAACCCCAAAIIIIAAAgggkHoBghqpN+MOBBBAAAEEEEAAAQQQQAABBBBAAAEEEEAAAQQQSAcBghrpgM4jEUAAAQQQQAABBBBAAAEEEEAAAQQQQAABBBBAIPUCBDVSb8YdCCCAAAIIIBCkwPnjx4JsSTMEEEAAAQQQQAABBBBAAAEEEEAgZQGCGikb0QIBBBBAAAEEQhU4dy7UO7kPAQQQQAABBBBAAAEEEEAAAQQQ8BHI5FNzgRXnk85fYA/cjgACCCCAAAKxInA+KaNkiJXJMA8EEEAAAQQQQAABBBBAAAEEEEh3gbAHNU4/fSbdJ8UAEEAAAQQQQCBCBBKTJGuEDIVhIIAAAggggAACCCCAAAIIIIBA9Auw/VT0v0NmgAACCCCAAAIIIIAAAggggAACCCCAAAIIIIBAXAgQ1IiL18wkEUAAAQQQQAABBBBAAAEEEEAAAQQQQAABBBCIfgGCGtH/DpkBAggggAACCCCAAAIIIIAAAggggAACCCCAAAJxIUBQIy5eM5NEAAEEEEAAAQQQQAABBBBAAAEEEEAAAQQQQCD6BQhqRP87ZAYIIIAAAggggAACCCCAAAIIIIAAAggggAACCMSFAEGNuHjNTBIBBBBAAAEEEEAAAQQQQAABBBBAAAEEEEAAgegXIKgR/e+QGSCAAAIIIIAAAggggAACCCCAAAIIIIAAAgggEBcCBDXi4jUzSQQQQAABBBBAAAEEEEAAAQQQQAABBBBAAAEEol+AoEb0v0NmgAACCCCAAAIIIIAAAggggAACCCCAAAIIIIBAXAgQ1IiL18wkEUAAAQQQQAABBBBAAAEEEEAAAQQQQAABBBCIfgGCGtH/DpkBAggggAACCCCAAAIIIIAAAggggAACCCCAAAJxIUBQIy5eM5NEAAEEEEAAAQQQQAABBBBAAAEEEEAAAQQQQCD6BQhqRP87ZAYIIIAAAggggAACCCCAAAIIIIAAAggggAACCMSFAEGNuHjNTBIBBBBAAAEEEEAAAQQQQAABBBBAAAEEEEAAgegXIKgR/e+QGSCAAAIIIIAAAhdNoG/fvpKcnCxt27a9aM/0fpA+W8egY0mrEgnzTKu50S8CCCCAAAIIIIAAAgggEM0CmaJ58IwdAQQQQAABBBBIT4EzZ87I9OnT5ddff5WVK1fKwYMH5ejRo5IrVy4pXLiwVKpUSZo0aSK1a9eWjBn5WxLrXWlQYufOndap/Z2QkGDsSpYsKXXq1JGbbrpJChQoYF/nAAEEEEAAAQQQQAABBBBAAAGCGvwbQAABBBBAAAEEQhD46aef5K233pI///zT5+5Dhw6JftasWSNjx46V4sWLS48ePaRevXo+ban4n8Dff/9t3JYtWyb6+fLLL81qjMaNG/+vEUcIIIAAAggggAACCCCAAAJxLUBQI65fP5NHAAEEEEAAgVAEPvroIxk8eLB965VXXikNGjSQ0qVLS2JiovlhfuvWrTJr1iz57bffZNu2bfL+++8T1LDF/nOgqzDeffddu/bs2bNmBceECROM3bFjx6RXr17yySefyBVXXGG3mzhxon3MAQIIIIAAAggggAACCCCAQHwJENSIr/fNbBFAAAEEEEDgAgX0B3croJEvXz555ZVXpFatWj69aqCjffv2smHDBhk4cKDZmsqnUZxXZMqUScqWLeuhoMELXZnx5ptvyhdffCG6xdewYcPkjTfe8GjHCQIIIIAAAggggAACCCCAQHwKsLlzfL53Zo0AAggggAACIQjs3r1bXn/9dXNn9uzZZejQoa4BDWfX+qP9oEGDpGPHjs5qjlMQ6Nq1q2TNmtW00tUu586dS+EOLiOAAAIIIIAAAggggAACCMSDACs14uEtM0cEEEAAAQQQCIuA5ng4efKk6Ut/dNeE1sEUTRLeqlUrv02XLl1qcm/o9759+yRLlixSpEgRs13V7bffLnnz5nW9d+HChdKtWzdzTVeP1KxZU3RrpsmTJ8vmzZvlwIED0rp1a5OXQhtpYGDRokUyZ84cWb58uegWWZrYXAM0+jxNzt2hQwcpVKiQ6/MuZmWOHDnMdl6rV6+W48ePy+HDhyVPnjxmCFai8TZt2thzs8bmbZKcnCxTp06Vb775RtavXy8nTpyQggULSsOGDeWee+6R3LlzW7em+nvevHny9NNPmz5LlCgh7733XkTYpXoi3IAAAggggAACCCCAAAIIRJEAQY0oelkMFQEEEEAAAQTST+D8+fMyadIkMwANAtx4440XPBgNMui2SqNHj/bo6/Tp07Ju3Trz+frrr+XVV1+VunXrerTxPtF7HnnkEZk/f773Jfv8ww8/FP14Fw1sWM8bM2aMvPjii2YLKO92F/tct6eyiiYRT23Rd9anTx+ZMmWKx62a42T48OHyyy+/GI9LLrnE43owJ9OmTTN96/ZYumWW5gbxF3wKpj/aIIAAAggggAACCCCAAAIIBCfwv/+nGFx7WiGAAAIIIIAAAnEpsHHjRjsvRo0aNSRnzpwX7KA/hFsBjaJFi8pdd91lfiDX1QQzZ84UDWhowOGJJ56Qzz77TC6//HK/z9S+dCWCJizXlQyFCxc2qz402bZVNDCgP+BrzooqVaqIPlO3ePrrr7/Myg0NaOiqiN69e8uIESOkVKlS1q0X/VuThm/ZssU8N3PmzCGtqPjggw/MvBo1amRWrFgmaj579mzZvn27yXfy8ssvp2p+48ePF71Hg1K6OkZzpuTKlStVfdAYAQQQQAABBBBAAAEEEEAgNAGCGqG5cRcCCCCAAAIIxJmABgyson+Zf6FFE4hrImwtZcqUkY8++kgSExPtbnXbJF2d8fjjj5tk2S+99JIJbNgNvA50fPfdd588+OCDXlf+d3rDDTdIly5dxLkCQq/qfPSH/9tuu03uvfde0dwhH3/8sVmx8b+7L+6Rbhd15MgR89Dq1av7jDmY0egWW+qhLs5y9dVXy6OPPiq6fdT06dPNNl3BrrLQ4JIGkLTUr1/fJIrPli2bs3uOEUAAAQQQQAABBBBAAAEE0lCAROFpiEvXCCCAAAIIIBA7AocOHbInky9fPvs41ANdFWElv9YtkpwBDatP/fG9Xbt25nTlypWiH3+lePHiJmDh77rWa94M74CGs73mmujUqZOp0pUiun3TxSy6OkNXT2huigEDBtiPtsZkVwR5UKFCBencubNP6wwZMsidd95p6nX1igY/gikazLACGi1btjRbhxHQCEaONggggAACCCCAAAIIIIBA+ARYqRE+S3pCAAEEEEAAgRgWcG7jFI4fsq3cF6VLl5bKlSv7ldPVFbrdkRa9p1KlSq5tmzdvLgkJCa7X/FXq1lYarNHk51YAw5qbzvePP/6QYsWK+bv9gut37twpuiLFX9HggyZC1+BOKOW6664T7cOtaMDDKjrPQEWDT6+88oqMGzfONGvfvr1JEO6v70B9cQ0BBBBAAAEEEEAAAQQQQODCBAhqXJgfdyOAAAIIIIBAnAg4c2hoEOBCiib11mTVWgIFNPS6bg2lqyt0FYPm9fBXypYt6++SR70GEjRJ9qxZs0SPA5WDBw+maVDD37PVunbt2mY1heYvCbWULFnS761JSUn2Nc0j4q/oSo7nnntOpk6dapqktMWXv36oRwABBBBAAAEEEEAAAQQQCI8AQY3wONILAggggAACCMS4QO7cue0Z7tu3zz4O5eDw4cP2bSltZaUBDX22PtN5n93Bfw+cP9J7X7PO58yZIz179jQrM6y6QN+nTp0KdPmCrxUoUMDezkk707lqwu38+fP7XWGRmodaq07c7smY8X+7sGrgwl/R/CJWQOOaa64JmLPEXx/UI4AAAggggAACCCCAAAIIhE+AoEb4LOkJAQQQQAABBGJYoFy5cvbs1q5dax9f6EG4tjBy/kjvNiZdddG7d28T0MiRI4d07NhRrrrqKrMSQwMJmTNnNrctWLDA/uHe2pLKrb9w1GkQI9gVJuF4Xih9aIBFt+BatmyZaFBoxIgRxi6UvrgHAQQQQAABBBBAAAEEEEDgwgX+9ydqF94XPSCAAAIIIIAAAjErUKZMGcmTJ4+Z35IlS0TzUYRanKsqUlr1odtOWUnKnfel9tnTpk2TI0eOmNveeOMNk1S8SpUqkjdvXjugoRetZ6W2/1htnyVLFnnnnXdErbS89dZb8uWXX8bqdJkXAggggAACCCCAAAIIIBDxAgQ1Iv4VMUAEEEAAAQQQiAQBXVHRpk0bM5QTJ07YybtDGZv+UF68eHFz64oVKwJ2oatCNLChRQMroZZNmzaZW3UrqyuvvNJvN6tXr/Z7LV4vaI6Pd999VypWrGgIBg4cKF999VW8cjBvBBBAAAEEEEAAAQQQQCBdBQhqpCs/D0cAAQQQQACBaBK44447xMrTMGTIENmyZUtQwz937pxMmTLFo22dOnXMuQYbAgU2xo8fb99n3WNXpOLAyhuheTJ0PG5FE6BPnjzZ7VLc1+kWXe+9955UqFDBWOhqlzFjxsS9CwAIIIAAAggggAACCCCAwMUWIKhxscV5HgIIIIAAAghErcCll14qzzzzjBm/rtbo0qWLLFq0KOB8NGjx6KOPyvDhwz3a3XLLLWLlwXj55Zddt7OaN2+eTJgwwdxXqVIl0U+o5bLLLjO3auDCSnzt7EuDHi+++KLs2bPHWc2xQyAxMdEENsqXL29qX3vtNRk3bpyjBYcIIIAAAggggAACCCCAAAJpLUCi8LQWpn8EEEAAAQQQiCmBdu3aye7du2Xw4MGyf/9+6dq1q9StW1caNmwopUqVEv2L/sOHD8u2bdtk9uzZMnfuXNGAweWXX+7hoAmy77zzThPsWLdunUk+fffdd4v+YK4Bk1mzZsmoUaPMvZrEu1evXh73p/bk2muvlffff19Onz4tL7zwgugzdRsqHa8GXnQ7Jd16qlq1aiYpdmr7j5f2mtdEV2w89NBDxlADUhqcuv766+OFgHkigAACCCCAAAIIIIAAAukqQFAjXfl5OAIIIIAAAghEo8D9998vpUuXNkmj//zzT9EVFfrxV7Rt9+7dfS7rCg5dOTF69GjZsWOHvPTSSz5tNOjw6quvmmCHz8VUVBQsWFCeffZZ6d+/v+gWVJ999pn5OLvQwMeNN95ofrB31nPsKaAJ4zVA1K1bN9mwYYN5bwkJCXbOFc/WnCGAAAIIIIAAAggggAACCIRTgKBGODXpCwEEEEAAAQTiRqBJkyZSv359mT59usyZM0dWrVolBw4ckGPHjpnVD4ULF5YqVapI06ZNpVatWqKJxr2L/oV/z549pXnz5vLNN9/IkiVLzOoPXZlRtGhRueaaa0TzeOTNm9f71pDOdZVJiRIlzOqQZcuWyZEjR0R/oNdVJG3bthUNaixcuDCkvuPtJnX74IMPzEodXemiq180sNGyZct4o2C+CCCAAAIIIIAAAggggMBFFchw/p8Sziee6n9hWyOEcyz0hQACCCCAAALpLJCYJFkfezadB8HjEUAAAQQQQAABBBBAAAEEEEAgVgRIFB4rb5J5IIAAAggggAACCCCAAAIIIIAAAggggAACCCAQ4wIENWL8BTM9BBBAAAEEEEAAAQQQQAABBBBAAAEEEEAAAQRiRYCgRqy8SeaBAAIIIIAAAggggAACCCCAAAIIIIAAAggggECMCxDUiPEXzPQQQAABBBBAAAEEEEAAAQQQQAABBBBAAAEEEIgVAYIasfImmQcCCCCAAAIIIIAAAggggAACCCCAAAIIIIAAAjEuQFAjxl8w00MAAQQQQAABBBBAAAEEEEAAAQQQQAABBBBAIFYECGrEyptkHggggAACCCCAAAIIIIAAAggggAACCCCAAAIIxLgAQY0Yf8FMDwEEEEAAAQQQQAABBBBAAAEEEEAAAQQQQACBWBEgqBErb5J5IIAAAggggAACCCCAAAIIIIAAAggggAACCCAQ4wIENWL8BTM9BBBAAAEEEEAAAQQQQAABBBBAAAEEEEAAAQRiRSBTrEyEeSCAAAIIIIAAAukpsHz5cuncubNky5ZNfvnlF8mU6T//mXXkyBFp2rSpnDt3TiZNmiSFChVyHWZycrJrvVtlmzZtpG/fvm6X5Ndff5WJEyfKqlWrZO/evXL+/HnJmzevlC9fXlq0aCHNmjWTjBkD/13LsWPHZPz48TJz5kzZuHGjHD16VLJmzWrGXrNmTbn55pulbNmyrs/XSn324sWLZeXKlbJ582Y5cOCAHD58WDJnziyXXHKJVKlSRdq2bSuB5jxkyBD58MMP/T7D7cIDDzwgXbt2dbtk5jBmzBgzpy1btsiJEyckX758UqlSJbn++uvlmmuucb2PSgQQQAABBBBAAAEEEEAAgcgSIKgRWe+D0SCAAAIIIIBAlAosW7bMjLxy5cp2QEMrtF4DGgULFvQb0AjHlE+fPi29e/eWn376yae7Xbt2iX40SDF69GgZOHCgJCYm+rTTijVr1siTTz5p2jsbnD171gQ4NMjxzTffyIMPPij33HOPs4l9PGDAADNvu+K/B2fOnJFt27aZz3fffWcCLP369TMBE++2oZyXKFHC9TYNOD3zzDMmyONsYLmoWevWreX555+XhIQEZxOOEUAAAQQQQAABBBBAAAEEIkyAoEaEvRCGgwACCCCAAALRKWAFNapXr+4xgSVLlphz73qPRo6TihUrmh/XHVU+h0lJST51b7zxhh3Q0BUId911l1xxxRUmwLJhwwb57LPPZOfOnaLj6dWrl7z77rs+feiqkscee0z27dtnrlmrMooWLSoHDx6U3377zQRFNMAxaNAgKVy4sFx33XU+/WTJkkX03mrVqknJkiXN6ozcuXObFRvr1q0zQZE//vhDpk2bJhkyZJBXXnnFp49bb73VrHDxueCo0GCRrs7QlSU5c+aURo0aOa7+51BXZXTv3t2s1NAVKroqQ1fO5MmTR3QMY8eOlfnz54sGWXLkyCE9e/b06YMKBBBAAAEEEEAAAQQQQACByBEgqBE574KRIIAAAggggEAUC+hqAC3ewYulS5e61ptKl//R7asCbe3kcosJQnz77bfmkgY8hg8fblaGWG11TLr11B133CF//vmnzJ0712wRpQEUZ9Etp6yAhm5T9eqrrzovS7169cyWUbqSQ8uwYcNcgxoaMLG23/Lo4J+Tq666Sm677Taz0uP333+XqVOnmm27ypUr59FUAzP6CVTmzJljAhraRserdt7lrbfeMgENre/Tp4/Z9spqo0GfJk2ayAsvvGC27NLtqXRrL92SioIAAggggAACCCCAAAIIIBCZAoE3VI7MMTMqBBBAAAEEEEAgogS2b98u+/fvN1sXab4Iq5w6dcoED/TcO9hhtQnH94oVK8wWV9qX5qrQra68S65cuUxQw6q3gjDWuX476+6//37nJfu4YcOGJj+HVmzatMkOKtgN/jnwF9Cw2mjwoUOHDtapWT1in6TiQFdXWEW3j/IumstDAx9adNWI2ngXXSnSo0cPyZ49u8k/oitaKAgggAACCCCAAAIIIIAAApErQFAjct8NI0MAAQQQQACBKBGwtp7SFRa6DZJVNFG25pHQ/BVlypSxqsP+rc+wim4V5a8UK1bMvqRbSHmXUPpx3uPdX6Bzp5PmA0lt0eTlM2bMMLfpnGvUqOHTxerVq02gQi9cffXVPtetCn0/VjBKE62fPHnSusQ3AggggAACCCCAAAIIIIBAhAmw/VSEvRCGgwACCCCAAAKRLTBx4kTR5NZuZe3atWZ7Ju9rmquiTp06HtUTJkyQIkWKeNSFeqJ5K6yieSL8lR07dtiX3JJqa93s2bNNG+3H3zZYVj+aJ0NzU4RSfvjhB/s25/jtyhQONB+HroTR0qpVK5Obw/uWQ4cO2VX58+e3j90OrK2uNKCxatUqkxPErR11CCCAAAIIIIAAAggggAAC6SvASo309efpCCCAAAIIIIDABQto8KFq1aqmn0mTJsmePXt8+tRk2iNHjjT1urKhbt26Pm1uuOEGs4WWXtB8GW5Fgx4avNFy8803uzVxrdOk3pqvY8GCBfLUU0/JlClTTDsNaLiNxbUTR+XkyZPtM7etp/SibillFV3ZEag4r+u2WhQEEEAAAQQQQAABBBBAAIHIFGClRmS+F0aFAAIIIIAAAhEq0LhxY3urIh3i3r17pVu3bma0H330kb1yQX/E79Spk1lN8Nprr/lsP3XppZe6zlBXCmzYsMH1mlbqD/VuW0z961//ku7du4uusOjYsaN5tibC1vwW2p8mD9drurKif//+kjlzZp9nlCpVSp555hl5/fXXTQJvzUlx0003mecdPHhQ5s+fL19//bW5TxN+33vvvT59eFdoHoudO3d6V5tznccbb7yRYg4O75s12fmSJUtMtebKcG6r5Wyr87HKokWLjIt17vzWLbQ0L4lVdu3aZR3yjQACCCCAAAIIIIAAAgggEGECBDUi7IUwHAQQQAABBBCIbAFNuK0fq1gBCP2B3pkMfN26dSagkTVrVtHk2iklz7b6062PnEm0rXrru2bNmjJ06FDr1P7WraM0yfWYMWPk888/l7feesu+pgf6fA2yaN9uicStxrr6QoMhn376qfz888+ycOFC65L51gCCBjN0dUSwc/Lo4J+ThIQE6dKlixmLM7eGdzt/57pK4/z58+ZymzZt/DUTNdHP1q1bTcLwpUuXerwj68YRI0aIBm2soqtaKAgggAACCCCAAAIIIIAAApEpwPZTkfleGBUCCCCAAAIIRImAc8WAc8hW8vCKFSuG/OO/s79gjmfNmiXff/+9HD9+3Ke5JgafOnWquW4FBHwa/VOh2zBpvg9dleFWdLWHBhWcKxvc2ll1gwYNklGjRpmtrwYPHmxWtWj+Cl3VoitY3MZq3evv29p6SgNG1157rb9mpv7BBx8037py5rHHHjMrTXR1jXps27ZNBgwYIO+//77HyhUrV0fAjrmIAAIIIIAAAggggAACCCCQLgKs1EgXdh6KAAIIIIAAArEioH/9r8W5SkPPly9frl+i2yOlpvhbiZFSH2+++aZ88cUXplmjRo3MqozLL79cMmbMKJs3b5avvvpKNMn5u+++awISr776qp0/w+pbf+x/6KGHRHNKZMuWTR555BFp1qyZFCpUSHT1ggZwPvjgA9GtnDRYoAnTmzdvbt3u+q0rJZwlOTlZ2rdvb/rW4MT69etN/o4cOXI4m/k9/v33300wQhs0aNDAY9WM2006/q5du8qQIUPMHHRrLf04iyY8v/vuu+Wdd94x1cGOxdkHxwgggAACCCCAAAIIIIAAAhdHgJUaF8eZpyCAAAIIIIBADAroD/3W9lPeQQ1rpYaVwDstp6/Ju62Ahuaw+Pe//22CKZp/Q1cz6HZSmnPj/vvvN8PQbaVGjx7tMyTNb6EBjQwZMpjtq+655x6Tr0K3mdIf/jVY8sknn4jmqtA8FC+88IJJ/u3TUQoVSUlJJiCizTSooX0GW7777ju7qb8E4XaD/x488MADJhhz5ZVXSpYsWezLatOyZUuzikQDN1bR8VEQQAABBBBAAAEEEEAAAQQiU4CVGpH5XhgVAggggAACCESgQKCk17r6wK306NHDo1p/YNeVA+Es48ePN91pMMLabsmtf82F8eWXX5otn3SLKWfujsOHD5scGnpfnTp1RFdUuBVdxdC5c2fp06ePaFLzH3/8UW6//Xa3pgHrNDBSvHhxs+pi+vTp8vDDDwdsrxc1kKJbaGnJnz+/aLLyYEvt2rVFP6dPnzbJ3XULLk3WbiVM162orFK6dGnrkG8EEEAAAQQQQAABBBBAAIEIE2ClRoS9EIaDAAIIIIAAAgikVkC3l9KiuSr0h3p/RVcmWD/Ya/JsZ9FzzTuhRVd2BCoVKlSwL2/ZssU+Tu1Bnjx5zC07d+4M6lbNGXLo0CHTtkWLFj7bZwXTia7UKFKkiGhidyugofetWbPGvr1SpUr2MQcIIIAAAggggAACCCCAAAKRJcBKjch6H4wGAQQQQAABBCJYQJNe62oBq2hOidWrV5uVC87cEpq/Qbd40q2NNFeDs2jgIdwlISHBdKnJr1MqVhvrHqu98/zvv/+2ql2/rT70ovM+18YBKvfs2WOuBpvDIpStpwI83r6k24jNnTvXnOt2Yc6tqOxGHCCAAAIIIIAAAggggAACCESEAEGNiHgNDAIBBBBAAAEEokHAmfRaf9i3Vkg0adJEypYta0/BWgVRr149j3q7QZgPdNWB5sLQVQw6Jt3aya3o9Y0bN5pLulrBWfRct6/SbZk0IXigoonCreLdj1Wf0vfKlSvFWqFRpkyZlJrLwYMHZc6cOaadJkDXT7jKp59+KqdOnTLd3XrrreHqln4QQAABBBBAAAEEEEAAAQTSQIDtp9IAlS4RQAABBBBAIPYFdIWG5pTImTOnlCtXzp6w/vhuBTtq1qxp16flQf369e3uBwwY4LGaxLqgW0tpAnFrpYnzHm2jW0FVqVLFNNeAw6RJk6xbPb41EPHxxx+bOg2CaODGWVasWOGxlZPzmnW8e/du6du3r3UqwST8/uGHH8RaIdKqVSv73pQO9B59J/7KlClT5LPPPjOX9X3ptlYUBBBAAAEEEEAAAQQQQACByBVgpUbkvhtGhgACCCCAAAIRLLB48WIzOt2uyLkF09KlS81qh8suu0wKFChwUWagCcxHjhxpginz5s2TTp06yW233WaCLTo2XcUxduxYWb58uRmPJtm+8847fcb20EMPmYTduv2Ubq01f/58ufbaa02ejuPHj4uu0NDnWHkt2rVrJyVLlvToRwM6eq+6NGjQwKyoyJs3r2mjwYyFCxfKxIkT5ejRo6ZOk5Lr+FMq1tZTOh/d1ivYos/RoEnjxo2lbt26ZrwajNmxY4dooGTmzJmmK11x8sILL5jVKsH2TTsEEEAAAQQQQAABBBBAAIGLL0BQ4+Kb80QEEEAAAQQQiAEBa4um6tWre8xGgxpaatSo4VGfliea8Pqdd96RJ598UtatWycbNmyQl156yfWRulXV66+/blZmeDdITk42AQm998SJEzJ58mTz8W6n55pD5Nlnn3W7ZOo0gGIFUfw10mBGz549JWPGwIuHNRn5qlWrTDcamNCgTGqKbi31/fffm4/bfdWqVZP+/fuTS8MNhzoEEEAAAQQQQAABBBBAIMIECGpE2AthOAgggAACCCAQ+QK6ldOyZcvMQL2DF1aw42JtPWVpFS5cWD7//HOz+mD69Omydu1aOXDggFk1kpSUZFZtNGrUyKxayJ49u3Wbz7duv6RzGjdunFmpoflBdLVDlixZzIoN3aKqTZs2ogEQt6IrOxITE82KjDVr1ogmA9+/f7/ZOipXrlyiK1g0iKBbSDm37XLry6qzVmnoeTBbVVn36bc+s3fv3rJgwQKzLda+ffvk9OnTognbK1asaIIzTZs2ZYWGE41jBBBAAAEEEEAAAQQQQCCCBTL8kwzyfDjHd6p/r3B2R18IIIAAAgggEM0CiUmS9TH/f80fzVNj7AgggAACCCCAAAIIIIAAAgggcPEFAq/1v/jj4YkIIIAAAggggAACCCCAAAIIIIAAAggggAACCCCAgKsAQQ1XFioRQAABBBBAAAEEEEAAAQQQQAABBBBAAAEEEEAg0gQIakTaG2E8CCCAAAIIIIAAAggggAACCCCAAAIIIIAAAggg4CpAUMOVhUoEEEAAAQQQQAABBBBAAAEEEEAAAQQQQAABBBCINAGCGpH2RhgPAggggAACCCCAAAIIIIAAAggggAACCCCAAAIIuAoQ1HBloRIBBBBAAAEEEEAAAQQQQAABBBBAAAEEEEAAAQQiTYCgRqS9EcaDAAIIIIAAAggggAACCCCAAAIIIIAAAggggAACrgIENVxZqEQAAQQQQAABBBBAAAEEEEAAAQQQQAABBBBAAIFIEyCoEWlvhPEggAACCCCAAAIIIIAAAggggAACCCCAAAIIIICAqwBBDVcWKhFAAAEEEEAAAQQQQAABBBBAAAEEEEAAAQQQQCDSBAhqRNobYTwIIIAAAggggAACCCCAAAIIIIAAAggggAACCCDgKkBQw5WFSgQQQAABBBBAAAEEEEAAAQQQQAABBBBAAAEEEIg0AYIakfZGGA8CCCCAAAIIIIAAAggggAACCCCAAAIIIIAAAgi4ChDUcGWhEgEEEEAAAQQQQAABBBBAAAEEEEAAAQQQQAABBCJNgKBGpL0RxoMAAggggAACCCCAAAIIIIAAAggggAACCCCAAAKuAgQ1XFmoRAABBBBAAAEEEEAAAQQQQAABBBBAAAEEEEAAgUgTIKgRaW+E8SCAAAIIIIAAAggggAACCCCAAAIIIIAAAggggICrAEENVxYqEUAAAQQQQAABBBBAAAEEEEAAAQQQQAABBBBAINIECGpE2hthPAgggAACCCCAAAIIIIAAAggggAACCCCAAAIIIOAqQFDDlYVKBBBAAAEEEEAAAQQQQAABBBBAAAEEEEAAAQQQiDQBghqR9kYYDwIIIIAAArEkcDSWJsNcEEAAAQQQQAABBBBAAAEEEEAgvQUIaqT3G+D5CCCAAAIIxLLA+VieHHNDAAEEEEAAAQQQQAABBBBAAIGLLZAp7A88lxT2LukQAQQQQAABBKJTIEPGxOgcOKNGAAEEEEAAAQQQQAABBBBAAIGIFAh7UCPr8WcjcqIMCgEEEEAAAQTSQYC/dUgHdB6JAAIIIIAAAggggAACCCCAQOwKsP1U7L5bZoYAAggggAACCCCAAAIIIIAAAggggAACCCCAQEwJENSIqdfJZBBAAAEEEEAAAQQQQAABBBBAAAEEEEAAAQQQiF0Bghqx+26ZGQIIIIAAAggggAACCCCAAAIIIIAAAggggAACMSVAUCOmXieTQQABBBBAAAEEEEAAAQQQQAABBBBAAAEEEEAgdgUIasTuu2VmCCCAAAIIIIAAAggggAACCCCAAAIIIIAAAgjElABBjZh6nUwGAQQQQAABBBBAAAEEEEAAAQQQQAABBBBAAIHYFSCoEbvvlpkhgAACCCCAAAIIIIAAAggggAACCCCAAAIIIBBTAgQ1Yup1MhkEEEAAAQQQQAABBBBAAAEEEEAAAQQQQAABBGJXgKBG7L5bZoYAAggggAACCCCAAAIIIIAAAggggAACCCCAQEwJENSIqdfJZBBAAAEEEEAAAQQQQAABBBBAAAEEEEAAAQQQiF0Bghqx+26ZGQIIIIAAAggggAACCCCAAAIIIIAAAggggAACMSVAUCOmXieTQQABBBBAAAEEEEAAAQQQQAABBBBAAAEEEEAgdgUIasTuu2VmCCCAAAIIIIAAAggggAACCCCAAAIIIIAAAgjElABBjZh6nUwGAQQQQAABBBBwF/jzzz8lOTnZfCZOnOjeKI1r27Zta57ft2/fNH5S2nV/sRxjwSrt3gI9I4AAAggggAACCCCAQDwLZIrnyTN3BBBAAAEEEEAgNQILFy6Ubt26BX3Lv/71L9EfpymRI6BBiXbt2rkOKEuWLJI7d24pV66cNGzYUFq3bi3ZsmVzbUslAggggAACCCCAAAIIIIBA+giwUiN93HkqAggggAACCCCAQIQJnD59Wvbs2SO//vqrvPLKK3LHHXfI5s2bI2yUDAcBBBBAAAEEEEAAAQQQiG8BVmrE9/tn9ggggAACCCAQosAtt9wi+glUChYsGOhy3F1Lr22v/EHraowHH3zQvnzq1CnZsGGDjBw50nxv27ZNunfvLqNHj7ZXbBQpUkR0xQ4FAQQQQAABBBBAAAEEEEAgfQQIaqSPO09FAAEEEEAAgSgXyJs3r5QtWzbKZxHfw09MTPR5h5UqVZKWLVuabcaWL18uO3fulPHjx0uHDh3iG4vZI4AAAggggAACCCCAAAIRIsD2UxHyIhgGAggggAACCCCAQGQIaG4N5wqOuXPnRsbAGAUCCCCAAAIIIIAAAggggICwUoN/BAgggAACCCCAQBoLOJNTp5Q8XBOL6+qANm3aSN++ff2OTLdJ+uabb2TRokWye/duOX78uOTJk0fKlCkjV155pUlyfckll/i9Xy/MmzdPvvrqK1m1apUcPnxYChQoIFdddZV07txZAm2dpXknRo0aZe7fsWOHnDx50iTY1tUr+nzto3HjxpIrVy6P56c0t71798rPP/8sCxYskPXr15v8Fn///beZV4UKFaRFixbSrFkzyZgx7f8uR1dsWEXfh1VSepdDhgyRDz/80DTXbap0Sys1/uGHH2T79u2mvmTJkub93HzzzZIpU+j/Of7xxx/L+++/b/pU75deekk0IENBAAEEEEAAAQQQQAABBGJZIPT/FxXLKswNAQQQQAABBBCIUAH9kf/tt982eR/Onz/vMcp9+/aJfubPn28SXAcKigwaNEg+/fRTj/v1B/uxY8fKTz/9JEOHDpVSpUp5XNeTJUuWyOOPPy7Hjh3zuLZ//37Rz8aNG+XHH380gYj69et7tAl0ovNq1aqVnDt3zqeZBlH0M3PmTPn222/ljTfekBw5cvi0C2eFM9jgNqZgnqXv4tFHH5V169Z5NNcgkn40qDRgwIBUB2n0veu/gREjRph+NVjUu3dvSUhI8HgOJwgggAACCCCAAAIIIIBALAoQ1IjFt8qcEEAAAQQQQCBmBfSv8SdMmGDmpysx2rdvL1WrVjWrIg4ePCgrVqwwQYlAAOPGjRPNF1GzZk256aabpESJEnLkyBH57rvvzOfAgQPywgsvyCeffOLRzenTp6VXr14moJEzZ07RlQbJycmSL18+OXPmjPzxxx+m319++cXjvmBOrABN7dq15eqrrza5LnTlhwZPtF/Na6Fj/u233+S1116Tfv36BdNtyG10JYxVdAVLKOXpp582wSXNx6EBnty5c8uWLVtk2LBhpn7WrFmi70Idgy0a/Onfv79YSdfvuOMOeeKJJyRDhgzBdkE7BBBAAAEEEEAAAQQQQCCqBQhqRPXrY/AIIIAAAgggkF4C+sO/84dv73HoD/36CWeZMWOGHdDQQIb+tb4mu3aWunXryv333y9//fWXs9rjWIMDN954owlQOH8Mr1OnjmTOnNkEEH7//XdZs2aNXHHFFfa9y5YtMysmtEJ/WPdeiVGlShWzRVSPHj3MllT2jUEc6CoDXSVy2WWX+bSuVauWtGvXTqytnSZPniz33XefFC9e3KdtuCo+++wzuyt9fihFV2PoihgN/FhFPXV7Lg1G6UqOMWPGBB3U0KDSc889Z7bo0v66detm3rXVN98IIIAAAggggAACCCCAQDwIENSIh7fMHBFAAAEEEEAg7AL6Y7R+/JUHHnhAunbt6u9ySPXWD+3ZsmUzqxW8AxrOTgsVKuQ89TjWFR66isAZ0LAadOzY0QQ19Hzp0qUeQQ39Ed4qNWrUsA59vnXrJu98Gj6NvCp0LG4BDWczDdaMHj1adEWKbkWlYw1n0fwXGqhSZ92CS4uuSNHVLKGU2267zSOgYfWhKzZ0yyjd/kufd/To0RS9NGfKU089ZbYWUyt9fxoYoSCAAAIIIIAAAggggAAC8SZAUCPe3jjzRQABBBBAAIGoFNAf8nX1hJZrr73WJPUOdSJNmzb1m1Bak1hrvgr9EV23fXIWZ+Jx3f7o9ttvd14O67HmsdAgim4/dfbsWbvvSy+91AQ1vPNU2A1ScTBp0iTRj7+iDrrVVagrblq2bOmvaztYpNtuqXP58uX9ttV3/9hjj8nKlStN3gzdekuTplMQQAABBBBAAAEEEEAAgXgUIKgRj2+dOSOAAAIIIIDABQukxUqMQIPSH/GtvBOBVkkE6sO6poGLQEVXgGhQwzsZePXq1aVo0aLmR3hNcD1lyhRp3Lix6HgqVapktq4K1G9K13R+2qcmA9fcILpywl/RH/rTqmgOjYYNG0qnTp3MfEN9TiBnXa1hFbX2V/bu3StdunSRTZs2SdasWU2QpV69ev6aU48AAggggAACCCCAAAIIxLwAQY2Yf8VMEAEEEEAAAQRiQcD5I75zxUQoc9PtqwKVjBkzmsu6WsJZdFupN998U3r27GkSXWvOCP1o0R/cNfF469atzUoSzZGRmqIBDN1S6ddffw3qtkABj6A6+KeRBi4efPBBu3mWLFkkKSlJ8uTJY9ddyEEgZ+fWX5r821+ZN2+efUm3MyOgYXNwgAACCCCAAAIIIIAAAnEqQFAjTl8800YAAQQQQAABBEIRKF26tIwaNUpmzZpl8losWbJEtm/fblZVzJ07V/TzxRdfmCTmqdm26eOPP7YDGhoc0XwRmlQ7f/78JmBiBVp0hYw+01q1EsocrHt0RUrZsmWt04j8rlatmuzYscNsxTV06FCpXLmyCR5F5GAZFAIIIIAAAggggAACCCBwEQT+82d4F+FBPAIBBBBAAAEEEIhXAesHeZ2/9+oHb5MTJ054V5lz5+oB3ZIoPYuuwmjUqJE8//zzMm7cOPn+++/NcYUKFcywVq9eLS+//HLQQ9QAxfjx40173cpq8ODB0qxZMylWrJhkz55dnH6HDh0Kut9YaKjJ099//33JmzevnDx5Uh5//HGTwD0W5sYcEEAAAQQQQAABBBBAAIFQBAhqhKLGPQgggAACCCCAQCoENOG0VY4cOWId+nzrD/b+frTXRNLWlkW6UiGSim6H1a5dO/nkk0/sBNi6kkN/hA+m6Jw1KbgWTWLuDGI479fcE1u3bnVWxcVxmTJl5IMPPjDbYqmBJg1fvnx5XMydSSKAAAIIIIAAAggggAAC3gIENbxFOEcAAQQQQAABBMIsoHkadKsjLVYOCrdH/Pjjj363VdLE0lWrVjW3TZ06Vfbs2ePWRbrWac4N3TpKi+aJOHr0aFDjceaUCBQI0dUczrZBdR4jjXSbLF2xof8ONIH7o48+apKpx8j0mAYCCCCAAAIIIIAAAgggELQAQY2gqWiIAAIIIIAAAgiELqDbKmmZMWOGyZHg3dOWLVvMtkve9c7zu+++25zqD/+arDtQ0GDXrl3OW8NybOXP8NfZmTNnZPHixeayrk5xbpnl7x6t162VrKDPDz/8IKdPn/ZpvnLlyhR9fG6KsYrLL79c3nvvPZPMXAMbjzzySMAgWYxNn+kggAACCCCAAAIIIIAAAkaAROH8Q0AAAQQQQAABBC6CwK233moSa586dUq6du0qmvBaE2HrdkILFiyQkSNHmh/3deulAwcOuI6oQYMGcv3118u3335rth/SPjWhtiaTzpkzpxw8eFA0n4Wu+NAfwPv27evaT6iV8+fPl2HDhkn16tWlXr16Uq5cOTvXw7Zt22Ts2LGyZs0a072OU1duBFN0zi1atJDRo0fL+vXr5f7775c77rhDihcvbgI3c+bMkTFjxpj8GrrVlT4rXov+m9HAxkMPPSS6lZkGNnQFh9ZTEEAAAQQQQAABBBBAAIF4EAju/2nGgwRzRAABBBBAAAEE0lDgqquukg4dOsioUaNEV1H079/f42mFChWSgQMHSvfu3T3qvU969eolWbNmNQEA3YJKf+B2KxrUSIuiic51NYa1IsPtGQ0bNpSHH37Y7ZLfOm2/bNkyWbdunVl90Lt3b4+2uu3S66+/blZrxHNQQ1E0Ifu7775rjA8fPmy+NedGWr1zjxfBCQIIIIAAAggggAACCCCQzgIENdL5BfB4BBBAAAEEEIgfgaeeekoqV64s33zzjaxdu1bOnj0rGsxo3LixdOzYMajtmhISEuSZZ54xibl1ZcSiRYtMfg3d+kl/+NfVExpAad26ddhhO3XqZPrXFRs6fg2qWKtK8ufPL5UqVTLP1VUcqS25cuWSjz/+WEaMGCHTpk2T7du3i861YMGCZlWIBoT0mPIfAf13NGjQILNSQxOt68qNwYMHi+beoCCAAAIIIIAAAggggAACsSyQ4fw/JawTfDasvdEZAggggAACCESzQNI/g+8VzRNg7AgggAACCCCAAAIIIIAAAgggEEkCJAqPpLfBWBBAAAEEEEAAAQQQQAABBBBAAAEEEEAAAQQQQMCvAEENvzRcQAABBBBAAAEEEEAAAQQQQAABBBBAAAEEEEAAgUgSIKgRSW+DsSCAAAIIIIAAAggggAACCCCAAAIIIIAAAggggIBfAYIafmm4gAACCCCAAAIIIIAAAggggAACCCCAAAIIIIAAApEkQFAjkt4GY0EAAQQQQAABBBBAAAEEEEAAAQQQQAABBBBAAAG/AgQ1/NJwAQEEEEAAAQQQQAABBBBAAAEEEEAAAQQQQAABBCJJgKBGJL0NxoIAAggggAACCCCAAAIIIIAAAggggAACCCCAAAJ+BQhq+KXhAgIIIIAAAggggAACCCCAAAIIIIAAAggggAACCESSAEGNSHobjAUBBBBAAAEEEEAAAQQQQAABBBBAAAEEEEAAAQT8ChDU8EvDBQQQQAABBBBAAAEEEEAAAQQQQAABBBBAAAEEEIgkAYIakfQ2GAsCCCCAAAIIIIAAAggggAACCCCAAAIIIIAAAgj4Fcjk9woXEEAAAQQQQAABBIIWWL58uXTu3FmyZcsmv/zyi2TK9J//zDpy5Ig0bdpUzp07J5MmTZJChQq59pmcnOxa71bZpk0b6du3r8elC7l/yJAh8uGHH3r0l9LJAw88IF27dvVo1rZtW9m5c6dHXUonEyZMkCJFing069KliyxevNijzt9J4cKFZeLEiR6XL/R+j844QQABBBBAAAEEEEAAAQQQiCgBVmpE1OtgMAgggAACCCAQrQLLli0zQ69cubId0NAKrdeARsGCBf0GNKJxziVKlLjgYefKlUvy589/wf3QAQIIIIAAAggggAACCCCAQPwIsFIjft41M0UAAQQQQACBNBSwghrVq1f3eMqSJUvMuXe9RyPHScWKFeX555931PgeJiUl+Vb+tyaU+2+99VazmsRvp/9c0MCMrs44duyY5MyZUxo1auTTfNCgQXLmzBmfemfF/PnzZeDAgabq2muvlaxZszov+xyPGjXKp85ZkTlzZuepz/GF3u/TIRUIIIAAAggggAACCCCAAALpKkBQI135eTgCCCCAAAIIxIqAbj+lxTt4sXTpUtd6U+nyP7p9VdmyZV2uBFcVyv04XlTDAABAAElEQVT58uUT/QQqc+bMMQENbdOsWTOzzZZ3+2BWbwwbNsy+rXXr1vaxv4MLsdA+L/R+f+OiHgEEEEAAAQQQQAABBBBAIH0E2H4qfdx5KgIIIIAAAgjEkMD27dtl//79kpCQIFWqVLFndurUKVm1apU59w522I2i5OC7776zRxpMMMJu7Dg4evSozJw509QULVrUJwDkaMohAggggAACCCCAAAIIIIAAAq4CBDVcWahEAAEEEEAAAQSCF7C2ntJVAbo1k1VWrlxptmNKTEyUMmXKWNVR963BiBkzZphxazCiRo0aIc1h6tSpooEeLaEGRkJ6MDchgAACCCCAAAIIIIAAAgjEjADbT8XMq2QiCCCAAAIIIHAxBCZOnCj9+vVzfdTatWslOTnZ59qRI0ekTp06HvUTJkyQIkWKeNRF6sm0adPsYESrVq0kQ4YMIQ3VWu2h92s/FAQQQAABBBBAAAEEEEAAAQRSK8BKjdSK0R4BBBBAAAEEEIgzgcmTJ9szDnWFxR9//CHWihbdiqtYsWJ2nxwggAACCCCAAAIIIIAAAgggEKzA/7N3H1BSFNvjx++Sc17JSUElIzkjSUEBARUx8FByEhX/Zp6iYoBnQMVA+AkYEAT1SRAUFQTFRI6CKDmHJWd2/9x6r/v1zM7Mzi4zuz0z3zpndjpUV1d9ej0H+27VZaZGsFLUQwABBBBAAAEELgm0aNHCI2/GwYMHpX///sZmwoQJUqBAAbOdmJgo3bt3NzMcRo4cmWz5qSuuuMKn55kzZ2Tz5s0+z+nBnDlzii4B5a9c7vXe7e7evVtWrFhhDteoUSPNwQidpZGUlGTaSU1gJJCFNpZSIvDLvd50mB8IIIAAAggggAACCCCAAAKuESCo4ZpHQUcQQAABBBBAIBIE8uTJI/qxivXS3Dvx9aZNm0xAI3v27NK8eXPJkiW4f3ZpYvFu3bpZzSf7rlWrlowbNy7ZcevA5V5vtWN96ywNKxjRvn1763Cqv63ZHurRunXroK8PZKGNLF26NGBbl3t9wMY5iQACCCCAAAIIIIAAAgggkO4CLD+V7uTcEAEEEEAAAQSiScA5i8E5LmuppcqVKwcd0HBe75ZtZzCiTZs2aeqWWuzcudNcqwEeZ1AoTQ1yEQIIIIAAAggggAACCCCAQMwKBPcngzHLw8ARQAABBBBAAIHAAitXrjQVNE+Es6xevdrs6pJNqSkpzcRIqa3Lvd7Z/po1a2T79u3mULNmzdIcjLAShGtDqZ3tkdJMDGd/fW1f7vW+2uQYAggggAACCCCAAAIIIIBAxgkwUyPj7LkzAggggAACCES4wMmTJ+38F95BDWumRvXq1SN2lM5gRGryYDgHfO7cOfn222/NoSJFikj9+vWdp9lGAAEEEEAAAQQQQAABBBBAIFUCzNRIFReVEUAAAQQQQCCWBTp06CB79uzxSdC1a1efx4cOHepxvE+fPtKvXz+PY27cOX/+vMyfP990rXDhwtKwYcM0dXPRokVy7Ngxc23btm0lc+bMaWqHixBAAAEEEEAAAQQQQAABBBBQAWZq8HuAAAIIIIAAAgggkExg8eLFcvToUXP8coIRztkeqV16KlmnOIAAAggggAACCCCAAAIIIBDzAszUiPlfAQAQQAABBBBAIFiBMWPGiM5gsMqzzz4rGzZskJ49e8oNN9xgHZaxY8fKggULpF27dtKjRw/7uG4UKlTIY9+tO85gRFqXnkpISJCff/7ZDPHqq6+WChUquHW49AsBBBBAAAEEEEAAAQQQQCBCBAhqRMiDopsIIIAAAgggkPECZcuWtTtx4cIF2bJli9lv2bKlxwv7bdu2meNNmjTxOG5f7PKNI0eOyE8//WR6qcEI/aSlfP3116JOWpilkRZBrkEAAQQQQAABBBBAAAEEEPAWYPkpbxH2EUAAAQQQQACBIAR0hsaZM2ckd+7cUrFiRfsKDQhYwY5atWrZxyNpwxmMuOmmm9LcdWu2h+bR0CWsKAgggAACCCCAAAIIIIAAAghcrgBBjcsV5HoEEEAAAQQQiEmB5cuXm3FXr17dI/n1ypUrJSkpSUqXLi3x8fERaeMMRugSWmkpf//9t1maS69t1KhRxCy7lZaxcg0CCCCAAAIIIIAAAggggED6CRDUSD9r7oQAAggggAACUSSwYsUKM5qaNWt6jEqDGlquu+46j+ORsrN161ZZv3696W6DBg2kcOHCaeq6FRjRi9OakyNNN+YiBBBAAAEEEEAAAQQQQACBqBYgqBHVj5fBIYAAAggggEA4BBITE2XVqlWmae/ghRXsiNSlp0IRjFCfefPmGZ+8efNKs2bNwvEYaBMBBBBAAAEEEEAAAQQQQCAGBeIuLY+QFNJxPx7S1mgMAQQQQAABBCJZIN+lzj8ZyQOg7wgggAACCCCAAAIIIIAAAggg4CYBZmq46WnQFwQQQAABBBBAAAEEEEAAAQQQQAABBBBAAAEEEPArQFDDLw0nEEAAAQQQQAABBBBAAAEEEEAAAQQQQAABBBBAwE0CBDXc9DToCwIIIIAAAggggAACCCCAAAIIIIAAAggggAACCPgVIKjhl4YTCCCAAAIIIIAAAggggAACCCCAAAIIIIAAAggg4CYBghpuehr0BQEEEEAAAQQQQAABBBBAAAEEEEAAAQQQQAABBPwKENTwS8MJBBBAAAEEEEAAAQQQQAABBBBAAAEEEEAAAQQQcJMAQQ03PQ36ggACCCCAAAIIIIAAAggggAACCCCAAAIIIIAAAn4FCGr4peEEAggggAACCCCAAAIIIIAAAggggAACCCCAAAIIuEmAoIabngZ9QQABBBBAAAEEEEAAAQQQQAABBBBAAAEEEEAAAb8CBDX80nACAQQQQAABBBBAAAEEEEAAAQQQQAABBBBAAAEE3CRAUMNNT4O+IIAAAggggAACCCCAAAIIIIAAAggggAACCCCAgF8Bghp+aTiBAAIIIIAAAggggAACCCCAAAIIIIAAAggggAACbhIgqOGmp0FfEEAAAQQQQAABBBBAAAEEEEAAAQQQQAABBBBAwK8AQQ2/NJxAAAEEEEAAAQQQQAABBBBAAAEEEEAAAQQQQAABNwkQ1HDT06AvCCCAAAIIIIAAAggggAACCCCAAAIIIIAAAggg4FeAoIZfGk4ggAACCCCAAAIIIIAAAggggAACCCCAAAIIIICAmwQIarjpadAXBBBAAAEEEEAAAQQQQAABBBBAAAEEEEAAAQQQ8CtAUMMvDScQQAABBBBAAAEEEEAAAQQQQAABBBBAAAEEEEDATQIENdz0NOgLAggggAACCCCAAAIIIIAAAggggAACCCCAAAII+BUgqOGXhhMIIIAAAgggcNkCB09ddhM0gAACCCCAAAIIIIAAAggggAACCFgCBDUsCb4RQAABBBBAIPQCF5NC3yYtIoAAAggggAACCCCAAAIIIIBAzApkCfnIT54IeZM0iAACCCCAAAIRKnDhzKWO547QztNtBBBAAAEEEEAAAQQQQAABBBBwm0Bc0qUS0k7FjwlpczSGAAIIIIAAAhEsUPxSQGP1fRE8ALqOAAIIIIAAAggggAACCCCAAAJuEmD5KTc9DfqCAAIIIIAAAggggAACCCCAAAIIIIAAAggggAACfgUIavil4QQCCCCAAAIIIIAAAggggAACCCCAAAIIIIAAAgi4SYCghpueBn1BAAEEEEAAAQQQQAABBBBAAAEEEEAAAQQQQAABvwIENfzScAIBBBBAAAEEEEAAAQQQQAABBBBAAAEEEEAAAQTcJEBQw01Pg74ggAACCCCAAAIIIIAAAggggAACCCCAAAIIIICAXwGCGn5pOIEAAggggAACCCCAAAIIIIAAAggggAACCCCAAAJuEiCo4aanQV8QQAABBBBAAAEEEEAAAQQQQAABBBBAAAEEEEDArwBBDb80nEAAAQQQQAABBBBAAAEEEEAAAQQQQAABBBBAAAE3CRDUcNPToC8IIIAAAggggAACCCCAAAIIIIAAAggggAACCCDgV4Cghl8aTiCAAAIIIIAAAggggAACCCCAAAIIIIAAAggggICbBAhquOlp0BcEEEAAAQQQQAABBBBAAAEEEEAAAQQQQAABBBDwK0BQwy8NJxBAAAEEEEAAAQQQQAABBBBAAAEEEEAAAQQQQMBNAgQ13PQ06AsCCCCAAAIIIIAAAggggAACCCCAAAIIIIAAAgj4FSCo4ZeGEwgggAACCCCAAAIIIIAAAggggAACCCCAAAIIIOAmAYIabnoa9AUBBBBAAAEEEIgCgb59+0qdOnVEv8NVxo4da+6h96EggAACCCCAAAIIIIAAAgjEjkCW2BkqI0UAAQQQQAABBC5PYOnSpdK/f3/TSJ8+faRfv34pNjh8+HCZPXu2qTdz5kwpUaJEitdkdAUNRixfvjxZNzJlyiR58uSRUqVKSe3ataVLly5SunTpZPU4gAACCCCAAAIIIIAAAggggEC4BJipES5Z2kUAAQQQQAABBNJJQAMnOmOhQ4cOYb1jYmKiHDt2TNavXy8ffvihdO3aVaZPnx7We9I4AggggAACCCCAAAIIIIAAAk4BZmo4NdhGAAEEEEAAAQQQ8BCYOnWqva9Bjf3798u3335rZp+cP39eRo0aJcWLF5cmTZrY9caNG2dvs4EAAggggAACCCCAAAIIIIBAKAUIaoRSk7YQQAABBBBAAIEoE6hQoYLHiK6++moTwLj22mvllVdekaSkJHnvvfc8ghoeF7CDAAIIIIAAAggggAACCCCAQAgFWH4qhJg0hQACCCCAAAIIxIqALj2lMzS0/PHHH3L48OFYGTrjRAABBBBAAAEEEEAAAQQQyEABZmpkID63RgABBBBAAAEELIFTp07Jp59+Kj/88INs27ZNTp8+LQULFpSqVauaXBlNmza1qtrfY8eOlfHjx9v7e/bsMbk17AP/3dAE56EumjS8UqVKovfUsnfvXilUqJDZthKN16pVS7yXotq9e7d07NjR1HvmmWfM2H755ReZNm2aydWhOTvi4+OlYcOG0rNnTylatKipm5YfGzdulPvvv98EXAoXLixjxoyRihUrpqUprkEAAQQQQAABBBBAAAEEEHCJAEENlzwIuoEAAggggAACsSugMx0eeughOXDggAeC5q/4/vvvzadFixYyYsQIyZ49u0edjNzJkuV//5TUfBtpKRpomDRpkselGvj47LPPzLg1KFK+fHmP88HsrFixwpieOHFCSpQoIe+8846UKlUqmEupgwACCCCAAAIIIIAAAggg4GKB//2fqIs7SdcQQAABBBBAAIFoFdDAxcCBA0VnKMTFxUn79u3lxhtvlPz588vff/8tH3/8sWzatEkWLFggw4cPl5deesmmuP3226VVq1by7rvvmhkeOsPhrbfess+He2Pz5s32LYoUKWJvB7vxxRdfyOrVq0VndHTp0kXKli0rx48flzlz5phPQkKCPPfcczJx4sRgmzT1fvzxR3nsscfk7NmzcuWVV8rbb79tZn+kqhEqI4AAAggggAACCCCAAAIIuFKAoIYrHwudQgABBBBAAAG3C+gLd+dLfX/91Zf0gcqrr75qAhpa56mnnpJOnTrZ1XV5pzZt2siQIUNEl5CaP3++CXo0btzY1NHlnvSTN29es68zJ7wTe9uNhXhDAwcadNFSsmRJKVasWKrvoAGNzp07y5NPPmkCOlYD9erVk6xZs8q///1vWbNmjcnZoYnJgynz5s0TXdbq4sWLUqVKFXnzzTdNgCiYa6mDAAIIIIAAAggggAACCCDgfgGCGu5/RvQQAQQQQAABBFwoMGPGDNHP5RRdbmrhwoWmiUaNGnkENKx2s2XLJk8//bR5+a8v6jXvhhXUsOqk17cuMaUzS7799lt577337Nv+4x//sLdTs6GzOx555BGPgIZ1/T333GOCGrq/cuVKCSaoMX36dBk1apQkJSWJBkZeeeUVyZUrl9Uk3wgggAACCCCAAAIIIIAAAlEgQFAjCh4iQ0AAAQQQQACByBRYtmyZmVGgvbeSZ/saieaEqF+/vixZskSsazJnzuyrasiP1alTJ2CbOtPi1ltvDVjH30ldOkuDNr5KuXLlTEBCE6jv2rXLVxWPYxMmTLADLZp/5IUXXvDbtseF7CCAAAIIIIAAAggggAACCESUAEGNiHpcdBYBBBBAAAEE3CLQp08f6devX4rd0TwYs2fP9lnvr7/+so9XrVrV3va1oec1qHHmzBnzkr9MmTK+qqXLsRw5ckiNGjXkjjvukGbNmqX5nhq4CFR0WS0Napw8eTJQNdElvD755BNTp0OHDjJs2DBJr6BPwI5xEgEEEEAAAQQQQAABBBBAIOQCBDVCTkqDCCCAAAIIIIBAcAJHjx61K2pujEClcOHC9mlNKp5eZerUqfatNFCgyznpslGhCBpocCRQyZQpkzmty14FKlZA46qrrpJ//vOfYl0X6BrOIYAAAggggAACCCCAAAIIRKbAf/5PMTL7Tq8RQAABBBBAAIGoEYiLi3PlWDTxuPUpX768FC1aNCQBjVAOtmXLlqY5nfmieTQoCCCAAAIIIIAAAggggAAC0StAUCN6ny0jQwABBBBAAAGXC+TPn9/u4aFDh+xtXxvO8/ny5fNVJWaPvfjii3L99deb8WsidV2OioIAAggggAACCCCAAAIIIBCdAgQ1ovO5MioEEEAAAQQQiAABXS7JKmvXrrU2fX6vW7fOHNclm0qWLOlRx62zPDw6GcadLFmyyEsvvSRNmzY1d9HlqN54440w3pGmEUAAAQQQQAABBBBAAAEEMkqAoEZGyXNfBBBAAAEEEIh5gdq1a9tLOc2cOdOvx969e+XXX381553XWBdky5bNbJ47d846FHPfWbNmlVGjRknjxo3N2D/88EN56623Ys6BASOAAAIIIIAAAggggAAC0S5AUCPanzDjQwABBBBAAAHXCsTHx9vLJi1ZskRmz56drK/nz5+X5557Ti5cuGDOde3aNVkdTdytJSEhQU6ePJnsfKwc0MDGv/71L2nYsKEZ8uTJk+Wdd96JleEzTgQQQAABBBBAAAEEEEAgJgQIasTEY2aQCCCAAAIIIOBWgaFDh4qVI0ODFyNGjDCzMjZs2CBz586VHj16yG+//Wa636ZNG3smgnM81atXN7uJiYlmGaY1a9bIjh077I+zbrRv66wVTRZev359M9T3339fxo4dG+3DZnwIIIAAAggggAACCCCAQMwIZImZkTJQBBBAAAEEEEDAhQJFixY1swkeeughOXDggPz73/82H++utmjRQoYPH+592OzXrVtXqlWrJhrMmDdvnvk4Ky5dutS5G/Xb2bNnN8nC1fT333+X8ePHm2W+evfuHfVjZ4AIIIAAAggggAACCCCAQLQLMFMj2p8w40MAAQQQQAAB1wtce+218tlnn8ngwYOlatWqkjdvXtGllHR5Kg1mvPbaa2ZZJX1Z76tkypRJxowZI7169ZKrr75acuXKJbGePFwTqr/++utSq1YtQ/bee+/JxIkTffFxDAEEEEAAAQQQQAABBBBAIIIE4pIulZD2N35MSJujMQQQQAABBBCIYIHiuUVW3xfBA6DrCCCAAAIIIIAAAggggAACCCDgJgFmarjpadAXBBBAAAEEEEAAAQQQQAABBBBAAAEEEEAAAQQQ8CtAUMMvDScQQAABBBBAAAEEEEAAAQQQQAABBBBAAAEEEEDATQIENdz0NOgLAggggAACCCCAAAIIIIAAAggggAACCCCAAAII+BUgqOGXhhMIIIAAAggggAACCCCAAAIIIIAAAggggAACCCDgJgGCGm56GvQFAQQQQAABBBBAAAEEEEAAAQQQQAABBBBAAAEE/AoQ1PBLwwkEEEAAAQQQQAABBBBAAAEEEEAAAQQQQAABBBBwkwBBDTc9DfqCAAIIIIAAAggggAACCCCAAAIIIIAAAggggAACfgUIavil4QQCCCCAAAIIIIAAAggggAACCCCAAAIIIIAAAgi4SYCghpueBn1BAAEEEEAAAQQQQAABBBBAAAEEEEAAAQQQQAABvwIENfzScAIBBBBAAAEEEEAAAQQQQAABBBBAAAEEEEAAAQTcJJDFTZ2hLwgggAACCCCAQKQKrF69Wnr27Ck5cuSQhQsXSpYs//ln1vHjx6VVq1aSmJgos2fPlmLFivkcYp06dXwe93Wwffv2Mnz4cI9Tl3v9qVOn5I8//pB169aZz/r162X37t3mHsWLF5dZs2Z53C+1O0888YTMnz/fvmzmzJlSokQJe9/Xxp9//imffvqpLFu2TPbv3y+ZMmWSokWLSpMmTaRr166i/QpUfvzxR3ssu3btkoSEBDlx4oTkypVLSpYsKbVr15bOnTtLuXLlAjXDOQQQQAABBBBAAAEEEEAAARcJENRw0cOgKwgggAACCCAQuQKrVq0yna9ataod0NADelwDGvoy3l9Aww2jfuihh0zwIBx9Wbx4sUdAI5h7jB07ViZMmCBJSUke1bds2SL6+fzzz+Xpp582ASOPCv/duXDhgjz44IO+TokGmjSAo59p06ZJ//795d577/VZl4MIIIAAAggggAACCCCAAALuEiCo4a7nQW8QQAABBBBAIEIFrKBGzZo1PUawYsUKs+993KOSY6dy5crmZb3jULLNfPnyJTtmHUjr9c7gQf78+aVSpUqis090BsflFL1+5MiRpolChQrJ4cOHU2xu0qRJMn78eFOvSJEi0r17d6lRo4bZV+cPPvhADh06JMOGDZPChQuLP9s8efKY2RgaaNKZGdqWzqQ5cOCACeDobBGduTFmzBjRurfddluKfaMCAggggAACCCCAAAIIIIBAxgoQ1MhYf+6OAAIIIIAAAlEioAEALd4v2FeuXOnzuDno44e+dK9QoYKPM8EdSuv1bdu2lS5dukiVKlWkdOnS5mYdOnS47KDGu+++K3v37pV69erJFVdcYZbgCjSSffv2ybhx40yV+Ph4E8DQb6togKJNmzbSo0cPE5zQgMnHH39slqay6ui3Lv/13XffSebMmZ2H7e3mzZvLHXfcYQImx44dE50ZoktR+atvX8gGAggggAACCCCAAAIIIIBAhgqQKDxD+bk5AggggAACCESDwI4dO8wMBH0hXq1aNXtIZ8+eFc1NocU72GFXcsmGBjQ0sGEFNELRLR27Lu+ULVs2eeyxx4Jq8ptvvpFz586Zuv369RNnQMNqQIMjek6L5t346aefrFMe3ykFKHT2RuvWrc01mm9j69atHtezgwACCCCAAAIIIIAAAggg4D4Bghrueyb0CAEEEEAAAQQiTMBaekpnWOTOndvuvSbdPn/+vOTNm1euuuoq+3gsbGhOixEjRph8IjqromzZskEN2woCaeVGjRr5vaZhw4b2OZ2RkdbifF5WMCWtbXEdAggggAACCCCAAAIIIIBA+AVYfir8xtwBAQQQQAABBKJIYNasWfLss8/6HNHGjRulTp06yc5pYmpdfslZNJ9DiRIlnIeialuXhNq0aZOUKVNG7rvvvqDHdvToUbuu5uDwVzSXhlWsvCXWfrDfZ86ckR9++MFUz5Qpk+lrsNdSDwEEEEAAAQQQQAABBBBAIGMECGpkjDt3RQABBBBAAAEEolZg165ddqJvXXZKl58KtuTKlcuuqkm8CxQoYO87N/ScVXbv3i0aoNB8IikVnUFy8OBB0dk1kydPlu3bt5tLOnbs6DHLJqV2OI8AAggggAACCCCAAAIIIJAxAgQ1MsaduyKAAAIIIIBAhAq0aNHCI2+GviDv37+/Gc2ECRPsl/CJiYkmCbXm1dBk1t7LT2leCF9FX85v3rzZ1ylzLGfOnKK5IPyVy73eX7upOf7SSy+ZIMONN94o9evXT82lUr58eVm4cKG5Zvny5dKyZUuf1+s5qyQlJYkmGPe3xJUGPTRo4a/oUlYPPvigv9McRwABBBBAAAEEEEAAAQQQcJEAQQ0XPQy6ggACCCCAAALuF8iTJ4/oxypWAEIDDc5k4Lr0kgY0smfPLs2bN5csWYL7Z5fmlOjWrZvVfLLvWrVqybhx45Idtw5c7vVWO2n9/uqrr+SXX34xRkOHDk11M82aNZOJEyea6zRI1LhxY2PobEhd9ZyznDp1yrkb1LbOAtGZJBo4SSmpeFANUgkBBBBAAAEEEEAAAQQQQCDsAsH933XYu8ENEEAAAQQQQACByBSw8jnUqFHDYwBW8vDKlSsHHdDwaCACd44cOSKvv/666fmgQYPEmfci2OFUq1ZNmjZtKosXLzY5Ofr27SvaVvXq1U0Tq1evlrffftucy5o1q0nEric00OGv6KyYqVOnmtMXL16UAwcOyJIlS+TLL78UnVWyc+fOVOX98HcfjiOAAAIIIIAAAggggAACCIRfgKBG+I25AwIIIIAAAghEscDKlSvN6JyzNPSAvnzX4h3sMAcD/EhpJkaAS82py70+pfYDnR89erQkJCRIlSpV5NZbbw1UNeC54cOHy/333y8662TdunUycODAZPWbNGkiGtRYsGCBOefMxeFdWWfJVKhQwT58zTXXiF7fuXNns3SYBkk0t8Yzzzxj12EDAQQQQAABBBBAAAEEEEDAnQKZ3NkteoUAAggggAACCLhf4OTJk3b+C++ghjVTw5ph4P7RXF4Pf//9d5k9e7ZZxumJJ56QTJnS/s/M/Pnzm0TjQ4YMSZYno3jx4ib/xWuvveYxOyNfvnypHkDFihVlwIAB5rpZs2aZZbNS3QgXIIAAAggggAACCCCAAAIIpKsAMzXSlZubIYAAAggggEAkC3To0EH27Nnjcwhdu3b1edw7r0SfPn2kX79+PutG8sHJkyeb7leqVEm2bdtmPt7j0YTdVlm0aJEULFjQ7GpCce+iuUj+8Y9/mM+xY8dEl7bKnTu3x5JWOrtCix4vWrSodxNB7Wu+k5dfftnU/e6776RBgwZBXUclBBBAAAEEEEAAAQQQQACBjBEgqJEx7twVAQQQQAABBBCIKoFz586Z8axdu1aeeuqpFMf2yiuv2HV8BTXsk5c2dBaG90yMo0ePihUk0bwlcXFxzkuC3rYCK3qBv4BV0I1REQEEEEAAAQQQQAABBBBAIOwCBDXCTswNEEAAAQQQQCBaBMaMGWMnptYxPfvss7Jhwwbp2bOn3HDDDfYwx44da3I9tGvXTnr06GEf141ChQp57LOTNgHNpZGYmGgubtOmTdoauXTV/v377Wtz5sxpb7OBAAIIIIAAAggggAACCCDgTgGCGu58LvQKAQQQQAABBFwoULZsWbtXFy5ckC1btpj9li1beiSi1uWXtGgyameCanMwSn+MGzcuxZFpAnDNu6Fl5syZUqJEiRSv8VXh7NmzMnHiRHNKZ3C0bdvWV7Wgjn377bd2vVh5VvaA2UAAAQQQQAABBBBAAAEEIlAg7RkcI3CwdBkBBBBAAAEEEAiVgM7QOHPmjMnnoAmnraK5H6xgR61atazDfKdC4ODBg/YsDO/L1FyXt9q1a5c59eCDD0quXLm8q8nChQtF2wlUli9fLhMmTDBVMmfOLCktgxWoLc4hgAACCCCAAAIIIIAAAgikjwAzNdLHmbsggAACCCCAQJQJ6AtxLdWrVxd9IW6VlStXSlJSkpQuXVri4+Otw67/3rFjh2jfneXUqVNmV79nzZrlPCUNGzaUIkWKeBwL1c7cuXNl+vTpZkmvmjVrmvtoH9avXy8zZsyQnTt3mlt16tRJOnbs6PO2GtR44oknzGyZunXrypVXXil58+Y1y4fp9ZqoXGdpWEtYaQL3cuXK+WyLgwgggAACCCCAAAIIIIAAAu4RIKjhnmdBTxBAAAEEEEAgggRWrFhheqsv3Z3FCgxcd911zsOu39Z+a44QX0WTcnufe++998IW1NA+aBLwSZMm+eqOCSJ1795dBg0a5PO8dfD8+fMmt4nm3/BXsmfPLgMGDJB77rnHXxWOI4AAAggggAACCCCAAAIIuEiAoIaLHgZdQQABBBBAAIHIENC/7l+1apXprHfwwgp2sPRU2p9lixYtRPNmLF261MzKSEhIkKxZs8oVV1xhZojccsstZuZFoDsMGTJE9Bno8/jrr7/k0KFDou3ExcVJ/vz5zfV16tSR9u3bhzU4E6iPnEMAAQQQQAABBBBAAAEEEEi9QNyl5RGSUn9ZgCvixwQ4ySkEEEAAAQQQiCmB4rlFVt8XU0NmsAgggAACCCCAAAIIIIAAAgggED4BEoWHz5aWEUAAAQQQQAABBBBAAAEEEEAAAQQQQAABBBBAIIQCBDVCiElTCCCAAAIIIIAAAggggAACCCCAAAIIIIAAAgggED4Bghrhs6VlBBBAAAEEEEAAAQQQQAABBBBAAAEEEEAAAQQQCKEAQY0QYtIUAggggAACCCCAAAIIIIAAAggggAACCCCAAAIIhE+AoEb4bGkZAQQQQAABBBBAAAEEEEAAAQQQQAABBBBAAAEEQihAUCOEmDSFAAIIIIAAAggggAACCCCAAAIIIIAAAggggAAC4RMgqBE+W1pGAAEEEEAAAQQQQAABBBBAAAEEEEAAAQQQQACBEAoQ1AghJk0hgAACCCCAAAIIIIAAAggggAACCCCAAAIIIIBA+AQIaoTPlpYRQAABBBBAAAEEEEAAAQQQQAABBBBAAAEEEEAghAIENUKISVMIIIAAAggggAACCCCAAAIIIIAAAggggAACCCAQPgGCGuGzpWUEEEAAAQQQQAABBBBAAAEEEEAAAQQQQAABBBAIoQBBjRBi0hQCCCCAAAIIIIAAAggggAACCCCAAAIIIIAAAgiET4CgRvhsaRkBBBBAAAEEEEAAAQQQQAABBBBAAAEEEEAAAQRCKEBQI4SYNIUAAggggAACCCCAAAIIIIAAAggggAACCCCAAALhEyCoET5bWkYAAQQQQAABBBBAAAEEEEAAAQQQQAABBBBAAIEQChDUCCEmTSGAAAIIIIAAAggggAACCCCAAAIIIIAAAggggED4BAhqhM+WlhFAAAEEEEAAAQQQQAABBBBAAAEEEEAAAQQQQCCEAgQ1QohJUwgggAACCCCAAAIIIIAAAggggAACCCCAAAIIIBA+AYIa4bOlZQQQQAABBBBAAAEEEEAAAQQQQAABBBBAAAEEEAihAEGNEGLSFAIIIIAAAgh4CRw/53WAXQQQQAABBBBAAAEEEEAAAQQQQCDtAgQ10m7HlQgggAACCCCQkkBSUko1OI8AAggggAACCCCAAAIIIIAAAggELZAl6JrBVsyZOdia1EMAAQQQQACBaBfIGfp/akQ7GeNDAAEEEEAAAQQQQAABBBBAAAH/AqF/09C+jP+7cQYBBBBAAAEEYkugQI7YGi+jRQABBBBAAAEEEEAAAQQQQACBsAqw/FRYeWkcAQQQQAABBBBAAAEEEEAAAQQQQAABBBBAAAEEQiVAUCNUkrSDAAIIIIAAAggggAACCCCAAAIIIIAAAggggAACYRUgqBFWXhpHAAEEEEAAAQQQQAABBBBAAAEEEEAAAQQQQACBUAkQ1AiVJO0ggAACCCCAAAIIIIAAAggggAACCCCAAAIIIIBAWAUIaoSVl8YRQAABBBBAAAEEEEAAAQQQQAABBBBAAAEEEEAgVAIENUIlSTsIIIAAAggggAACCCCAAAIIIIAAAggggAACCCAQVgGCGmHlpXEEEEAAAQQQQAABBBBAAAEEEEAAAQQQQAABBBAIlQBBjVBJ0g4CCCCAAAIIIIAAAggggAACCCCAAAIIIIAAAgiEVYCgRlh5aRwBBBBAAAEEEEAAAQQQQAABBBBAAAEEEEAAAQRCJUBQI1SStIMAAggggAACCCCAAAIIIIAAAggggAACCCCAAAJhFSCoEVZeGkcAAQQQQAABBBBAAAEEEEAAAQQQQAABBBBAAIFQCRDUCJUk7SCAAAIIIIAAAggggAACCCCAAAIIIIAAAggggEBYBQhqhJWXxhFAAAEEEEAAAQQQQAABBBBAAAEEEEAAAQQQQCBUAgQ1QiVJOwgggAACCCCAAAIIIIAAAggggAACCCCAAAIIIBBWAYIaYeWlcQQQQAABBBBAILwCffv2lTp16oh+p7Xs3r3btKHtzJo1K63NmGu1Df1om5TIEli6dKn9e6Db4SrW78jYsWPDdQvaRQABBBBAAAEEEEAAgSgWyBLFY2NoCCCAAAIIIIBASAX0RW///v39tpkzZ06Jj4+XKlWqSMeOHaVu3bp+63ICgVALBPr9zJ49uxQsWFCuueYaadOmjbRu3VqyZOF/BUL9DGgPAQQQQAABBBBAAAEEwi/ATI3wG3MHBBBAAAEEEIgRgdOnT8v27dtl7ty5MmDAAHnmmWfk4sWLMTJ6hulmgbNnz8revXvlhx9+kGHDhknPnj3l4MGDbu4yfUMAAQQQQAABBBBAAAEEfArw51k+WTiIAAIIIIAAAggEFrjttttEP85y9OhRWbNmjUyZMkUOHz4sc+bMkaJFi8rAgQOd1dhGIOwC3r+fGnBbv369fPzxx2ZpMN1++OGHZdKkSRIXF2f6o8tChXPZqbAPmhsggAACCCCAAAIIIIBATAgQ1IiJx8wgEUAAAQQQQCDUArqUT4UKFZI1W7t2bWnWrJl0795d9K/jp02bJn369JGsWbMmq8sBBMIl4Ov3s1q1atKuXTvp0aOH7NixQ9atWyeLFy82v6/h6gftIoAAAggggAACCCCAAAKhFmD5qVCL0h4CCCCAAAIIxLzAlVdeKY0bNzYOJ0+elK1bt8a8CQDuEMiXL5/ce++9dmd+/vlne5sNBBBAAAEEEEAAAQQQQCASBJipEQlPiT4igAACCCCAQMQJlCxZ0u7zuXPn7G1rY+zYsTJ+/HizG2jJH2fy5/fee090iaBARQMousTQr7/+anIm5M2bV6677jq5++67Rf9SP9jy7bffyueffy5//vmnnDp1SooVKyYtWrQwf+WvbV5O0TwjmndE7/HHH3+ILtuVK1cuKVeunLmHLp2UI0eOgLfYvHmzfPDBB2a5pCNHjpgk2LVq1TLjvPbaa2X48OEye/ZsKV68uMyaNcujrdSYWt4626Zfv34e7Xg/wxMnThj777//3izxpGOoVKmS9OrVS2rUqGFfq0uTTZ06VRYuXGjqaRJvPd+3b1/Rvoe7aCJ7q+zZs8faNJb9+/c3+75+17xNjx8/7jFeTTxesWJF6dKli5kRYjecyo3ExEQZOXKkfPbZZ+bK22+/XR599FF7maxUNkd1BBBAAAEEEEAAAQQQiDIBghpR9kAZDgIIIIAAAgi4Q8D5slgDAulRfvrpJ3n88cdF8ydY5dChQyZ4oC/aH3zwQbnrrrusU36/n3vuOZk5c6bH+W3btpn8C5on5N133zUBCI8KQe5osuqhQ4fKpk2bPK7QwMaqVavMR19mjx49WsqWLetRx9r56quvRPt44cIF65Ds27fPBErmz59vEmHbJ9JpQ8eluVM0UbxV9DksWbLEBJheeOEFad26tQkSPfDAA7J//36rmpw5c0YWLVokv/zyi7z55pspBq7sC9O4ocEHq2gAIS1Fg2dDhgwxQRnn9StWrBD9rF69Wh577DHnqaC29Zk+/fTT8s0335j6GhAaMGBAUNdSCQEEEEAAAQQQQAABBGJD4H//RxMb42WUCCCAAAIIIIBA2AX0ha/mKtCisyMKFy4c9nsePHjQvMzPnDmzDBo0SDS3hxadlTB58mTRZbBee+01KVGihFx//fXmnK8f06dPNwml9a/5NQBSpkwZk/RcZz1owODAgQMyePBgkyskd+7cvprwe0xnVOhLag1AZMuWTTp16iQ6u0L7pLNBdHbJJ598YvI96AtznXGSJ08ej/Y08PHss8+KzvbQmRA6A6VBgwYmZ8mGDRtM4EUDCLoEWHoWDSZpoOK+++6Thg0bmr6tXLlSdDaH2j///PNm1oYGljTXigZAdOwaYNAloN5//33RGT3DL80w+eKLL8Kag0VnuVilSJEi1mbQ3xqE0cCUBqL0edarV8/MtNm4caOZfaTPV3+PNLeMWgRbtF2dkaGBIE1e/tBDDwUVhAu2feohgAACCCCAAAIIIIBAdAgQ1IiO58goEEAAAQQQQCCdBRISEsT5clhvr8vx6F+oT5kyxby41hfy+vI3PYrOEND7TZw4UcqXL2/fsnr16tK8eXPp2bOnebk+atQoadKkiXmZbldybKxfv97kA3n11Vc96miOkKuuukp0WSKdlTBhwgTRGQepKa+88ooJaOiSUNqOc4kubUeXemrVqpVJrL5r1y4TjNEAjbPoskQa0NCgiLZRtWpV+7Ru6/UaWNAX7OlZdObJuHHjPPpTuXJlExTSQIYGNjSXRVJSkhlXqVKl7O5pvwsUKGCWXFLbH3/80SzDZVcI4YbOhNBgkVWs4Je1H8y3/u6fP3/eBGL0d8IqutSWttetWzfz+6+BjWCDGvrfjjpp0EoDc8OGDZMOHTpYTfONAAIIIIAAAggggAACCNgCJAq3KdhAAAEEEEAAAQSCF5gxY4Z5easvcK2P5l146623RF/63nrrrebldWryWAR/d981e/fu7RHQsGrpi2cNamjR2QSay8Ff0WCBvlB2LlFk1dU2rJfYujyVvtgOtuzevdvM9ND6+tf43gENqx3NKaE5FLTo7BBnWbt2rb1s1R133OERQLDqFSpUKN0CSdY99fvOO+/02R8NIGkQR4v+XmjOCmdAw5y49ENf4GtuDS26fFOoiy6FtWzZMjOLZ82aNaZ57VebNm3SdCsdh/W74GygdOnSJoimxzRAEUzRJdI0X4nW198/DVwR0AhGjjoIIIAAAggggAACCMSmAEGN2HzujBoBBBBAAAEEwiigeQo0J4AGPnwlCQ/HrXW5nvbt2/ttumPHjnai5d9++81vvfr160t8fLzP85kyZbLvoUsPaZLvYIvOPrCWjGrUqFHAy3RZJi261JXOXLCKLk9llZtuusnaTPatgYT8+fMnOx7OAzfccIPf5itUqGDO6TPyV0+X0tKAgBadpXK5RZPQ68wX69O0aVMTONDAhhYN/ujMGQ0ipLboONq2bev3Mp2xoUV/R3QGRqCiwS4NxulMF00W/8YbbwRcHi1QW5xDAAEEEEAAAQQQQACB2BBg+anYeM6MEgEEEEAAAQRCLKCzMvSvy51FcwLs3LlTNJm2LkGl+SE0z8OYMWNMjgVn3VBva14KXcLIXylYsKDJXaEvzL2XzXJeo7k0AhXneW0n2Jko6qBFjTRwEmzRXCFWovW//vrLXKYv4gPlzNDli6655hoJFLwJ9v7B1vOX1Fyvz5s3r2lGn0++fPn8NmnV0/wi4So6Q6Zly5bSvXt3E9hIy310HIF+15xj1GW3rHF530tzz2hODg1eaRBKAxrO5cS867OPAAIIIIAAAggggAACCKgAQQ1+DxBAAAEEEEAAgRAJ6F/b61/la64JTbCtCas1WbQmgdbE0OEs+pf3KRWto0GNY8eO+a2qwY9AxXkf/Uv8YMvhw4eDrepRT4MgVrH+6l9fmmvgIlAJ9NI90HVpPafP3l/RGS5aAtXR8zoDQovOaLncctttt4l+tGi7urSVmngnXk/LfVIahzVebVtnLfkrmnjeKk888QQBDQuDbwQQQAABBBBAAAEEEAgoQFAjIA8nEUAAAQQQQACBtAnccsstZoaGvvjX/BPhDmpYL8TT1tv/XRWqdv7X4n+2rJfb+mJdE3wHW/zl3gj2+litp8Epa9krtxpoEnEN+mm+D01gr7NvAs3Aces46BcCCCCAAAIIIIAAAgikrwBBjfT15m4IIIAAAgggECMC+tfqmiNBgxq6hNKRI0c8luzx/mt2576TyDlTwXnce1uTLadUrNkSzuWBvK+x6ngft/ad51OTt8Kqq0srlS9fPsWZFtb9nN/WMkY600RnMwSaraHe/orTOikpyV8187Ld70lOXLaALjV17733mplN+ns1YMAAGTt2rJQrV+6y26YBBBBAAAEEEEAAAQQQiF4BEoVH77NlZAgggAACCCCQwQLOZYSc29otTYpslUDLQW3bts2qFvBbEy4HepGfkJAgWkfLVVdd5betdevW+T2nJ9avX2+fD9SOXem/G5rjQosmTrfya/z3VNBf1l/xaxt///233+vUeuPGjX7Ph9re7404kaJA7dq15fXXXzfLY2lgrn///rJ9+/YUr6MCAggggAACCCCAAAIIxK4AQY3YffaMHAEEEEAAAQTCKKAzLKwX71Y+A+ftnMsqBXrJ/8033zgv87utMw40Qbm/MmvWLLFmJQRK1P3rr7+amSW+2tElpGbPnm1O6WyPa6+91lc1n8eaNm1q54zQJOppKfXq1bMv++qrr+xt740ff/zRzJDxPm7ta1J1qwSy//rrr61qfIdRoG7duvLqq6+awIbOatLAxs6dO8N4R5pGAAEEEEAAAQQQQACBSBYgqBHJT4++I4AAAggggIBrBXQZnbNnz5r+ae4A76WSqlevbh/Tl/xWwME5oA8++EBSmjnhrP9///d/snXrVuchs71lyxaTrFx3ihQpIs2bN09WxzqgsyA0wbn3zBI9P2nSJNm8ebOp2rFjR8mWLZt1WYrfuqRQ69atTT0N1Hz00UcBr9GE5vPmzfOoo2YVK1Y0x6ZNmyZr1671OK87OiPltddeS3bceUADMlY7GuzxlfBccz1MnTrVeRnbYRRo0KCBvPLKK+Z3av/+/dKvXz8CG2H0pmkEEEAAAQQQQAABBCJZgJwakfz06DsCCCCAAAIIZJiAvjy3XvBbndCAgC6do7MIlixZYg7rLA39y3PvUqhQIfOSX2cD/PzzzzJ06FC5/fbbRY/v3bvXtPH999+LvshfvXq19+XJ9jV/h/bpvvvukx49eogu66Nl2bJlJhhx4sQJs//II49I1qxZzbavH5UrV5bFixdLr1695K677pIyZcqI5jvQGRrWrJGiRYtK7969fV0e8Njjjz9ulq/SgMXo0aNl0aJFctNNN5nlsLRPGlz4888/jd3SpUvl+uuvl7Zt23q0+dhjj0nfvn3NMlbqevfdd4sGjfR6nXUxceJE0WWMrr76atm0aZM9O8SjkUs7av3iiy+aun369DHjLVu2rOhSYDrTY8aMGVKpUqWg7L3bZj9tAvocNWG4/o7u27fP5NgYN26cFC9ePG0NchUCCCCAAAIIIIAAAghEpQBBjah8rAwKAQQQQAABBMItoC+99ROoFCxYUJ5//nmpUKGCz2oayNAX8RoI0UCCfpzlhhtukE6dOsnAgQOdh31ux8fHy8MPPywaOBgzZkyyOpoce8iQIdKqVatk55wH9GX/8uXLRWcwPPnkk85TZltnerz11luSJ0+eZOdSOqDJwnU2yRNPPCErVqww99F7+Su5c+dOdqpmzZry9NNPy4gRI0SX+NL29GMVnRGj7Wu7GtTwN5tEXTXwtHDhQrNM2FNPPWU1Yb71mekLdu+gikcldkIu0KRJExk5cqQ8+uijsmfPHhMQ1FlPxYoVC/m9aBABBBBAAAEEEEAAAQQiU4CgRmQ+N3qNAAIIIIAAAi4U0NkCurSRJtBu1KiR6BJNuu+vFC5cWCZdWtJp8uTJsmDBAjNDI2fOnOb6zp07S7t27URnLARb9IXwhx9+KLpslV6n+Qny5s0rGgi45557zKyPYNp65plnRPNufPHFF2Y2yunTp81LZZ05ce+99wYcU0rta1Bk/PjxZjaEzlLRWSg6s+LChQumrzrjRGenNGvWTGrVquWzufbt24smHrfGqQnSNYBUo0YNM3OjatWqdoDIX/BFgzz68vzzzz83ARxdoktLqVKlpE2bNmaWSo4cOXzen4PhFdBn//LLL5sAnc7q0Rk5GtjQGUIUBBBAAAEEEEAAAQQQQCDu0vrNSSFlGOg/QWVI70NjCCCAAAIIIOB+gQKXXgq/GHhmgPsHQQ8jUUBnYmiyaQ0M6WwZCgIIIIAAAggggAACCCCAQHQIkCg8Op4jo0AAAQQQQAABBBD4r4AmV9eAhpZq1ar99yhfCCCAAAIIIIAAAggggAAC0SBAUCManiJjQAABBBBAAAEEYkhgx44dfkerS1G98MIL5rzm09C8JBQEEEAAAQQQQAABBBBAAIHoESCnRvQ8S0aCAAIIIIAAAgjEhMCgQYOkRIkSojk+KlasaJKWHz9+XFauXGmSt2suES09e/aUAgUKxIQJg0QAAQQQQAABBBBAAAEEYkWAoEasPGnGiQACCCCAAAIIRImApoTTROiBkqjffvvtJqgRJUNmGAgggAACCCCAAAIIIIAAAv8VIKjBrwICCCCAAAIIIIBARAkMHz5cFi9eLMuXL5dDhw5JQkKCZM6cWQoXLiw1a9aUzp07S40aNSJqTHQWAQQQQAABBBBAAAEEEEAgOAGCGsE5UQsBBBBAAAEEEEDAJQK1a9cW/VAQQAABBBBAAAEEEEAAAQRiT4BE4bH3zBkxAggggAACCCCAAAIIIIAAAggggAACCCCAAAIRKUBQIyIfG51GAAEEEEAAAQQQQAABBBBAAAEEEEAAAQQQQCD2BAhqxN4zZ8QIIIAAAggggAACCCCAAAIIIIAAAggggAACCESkAEGNiHxsdBoBBBBAAAEEEEAAAQQQQAABBBBAAAEEEEAAgdgTIFF47D1zRowAAggggAACYRBYvXq19OzZU3LkyCELFy6ULFn+88+s48ePS6tWrSQxMVFmz54txYoV83n3OnXq+Dzu62D79u1l+PDhHqcu93pnY6dPn5ZZs2bJggULZOvWrXLkyBHJmzevxMfHS40aNaRZs2bSoEED5yUe2ydOnJAZM2bIokWLzPXaXqFChaRKlSpyyy23SOPGjT3qe+/o2NTKV8mcObPkzp1bypQpI/Xr15cuXbpI0aJFfVUNeEyfR69evWTNmjV2vaVLl9rbbCCAAAIIIIAAAggggAACCLhTgKCGO58LvUIAAQQQQACBCBNYtWqV6XHVqlXtgIYe0OP6Al1fvPsLaLhpqPpi/9lnn5U9e/Z4dOvw4cOin40bN8rKlSv9BjU0uPPoo4/KwYMHPa7ft2+f6Of777+Xm2++WZ5++mnRAEVqy8WLF+XYsWOydu1a8/nkk09MgKdly5apamr69OkeAY1UXUxlBBBAAAEEEEAAAQQQQACBDBMgqJFh9NwYAQQQQAABBKJJwApq1KxZ02NYK1asMPvexz0qOXYqV65sXvg7DiXbzJcvX7Jj1oHLuf7XX3+VoUOHytmzZ83MjFtvvVVq164tBQsWlDNnzphZF4sXLzbBDet+zm+d1TFkyBDRmRqZMmUyszJ0lkqBAgVk165d8tlnn8lvv/0mc+bMkVy5csljjz3mvNzn9pgxY6RIkSL2uQsXLsj+/fvlu+++k6+++kpOnTolTz75pGhwo3z58na9QBt6/TvvvCNxcXGSP39+MxMlUH3OIYAAAggggAACCCCAAAIIuEeAoIZ7ngU9QQABBBBAAIEIFtAZClq8gxc6q8HXcXPQxw9dvqpChQo+zgR3KK3XJyQkmOCABjSuvvpqeeutt6Rw4cIeN9WxderUSc6fP+9x3NoZPXq0CWjo/j//+U/p0KGDdUquvfZa0dkUzz33nFnaSpen0mW0dEmqQEWXmSpRooRHFW1Ll8DS4+PHjxcNdEyZMkWeeuopj3r+dkaNGiUnT56Ujh07ys6dO2X58uX+qnIcAQQQQAABBBBAAAEEEEDAZQIkCnfZA6E7CCCAAAIIIBB5Ajt27DCzF3Q5pWrVqtkD0ADB+vXrzb53sMOu5JINnRFx9OhRkxPk1VdfTRbQcHYza9aszl2zrUGRn376yWxr3g1nQMOqrDMjdCZIzpw5JSkpSSZPnmydStP3PffcY19nRnhGcAAAQABJREFUOdsH/Gzo8lea80Rnj+isEgoCCCCAAAIIIIAAAggggEBkCRDUiKznRW8RQAABBBBAwIUC1tJTOsNCk1hbZd26dWZWgybZvuqqq6zDrvvWHBXz5s0z/WrXrp0UL1481X3csGGDCVTohY0aNfJ7vVpYgZ8lS5aYZa38Vk7hhFprcEKLv9kjziZ0Wax//etf5tADDzxgX+uswzYCCCCAAAIIIIAAAggggIC7BVh+yt3Ph94hgAACCCCAgMsEZs2aZRJp++qWJtGuU6dOslPHjx+XevXqeRyfOXNmsmWVPCqk447mydBZJVqaN29u31nzaBw4cMDMrNClqHSmhb+iszys4r1slXXc+i5UqJDZ1PZ1hkWtWrWsU6n6Pn36tJldohcFk4RdZ6PoePR+vmaSpOrmVEYAAQQQQAABBBBAAAEEEMgQAYIaGcLOTRFAAAEEEEAAAfcIrF271u6MzjbRGSaaSPv333+XxMREc06Thbdu3Vp69+7tc2kqXVLKKjojIlBxnv/777/THNT48MMP7dkhmmMjUNGcJ5qoPEuWLPL4448Hqso5BBBAAAEEEEAAAQQQQAABFwsQ1HDxw6FrCCCAAAIIIOA+gRYtWtjLJ2nvDh48KP379zcdnTBhgr2kkQYDunfvbmZAjBw5MtnyU1dccYXPwenshc2bN/s8pwc1eFCyZEm/59NyvQYWrLJ06VJ5/vnn5eLFi9Yh8605M6ZPny6ak0KTiGsycWcpX768vbts2TJx5ruwT1za0GWinEGUffv2OU8n296+fbucOnXKPq792r9/vyxYsEBmz55tjuvMC0367a9oIvERI0aYAIg+kyuvvNJfVY4jgAACCCCAAAIIIIAAAgi4XICghssfEN1DAAEEEEAAAXcJ5MmTR/RjFSsAoYEGZzLwTZs2mYBG9uzZzZJOOkMgmKLLMXXr1s1vVX2BP27cOL/n03K95tSwyksvvWSWmRowYIDcfPPNZlaGJkLXWRG69NahQ4fk//2//ydTpkzxcChbtqzoZ9u2bSZh+MqVKz08rPY/+ugjOXLkiLUrJ0+etLd9bQwePNjXYXMsPj5eevToIV26dJFs2bL5rTdp0iTRwI0+o169evmtxwkEEEAAAQQQQAABBBBAAAH3C5Ao3P3PiB4igAACCCCAgIsFVqxYYXpXo0YNj15aycMrV65sljzyOOmyHc1NYRXNrfHPf/7TvPzXPBVZs2Y1MxueeeYZ6dy5s6m2e/dumTFjhnWJ/a2BEC06S0UTcX/66admJovOlNAZF6+++qpZ1krbtIqVy8PaT8235sf44osvRHOC+Ct634kTJ5rTjzzyiOTIkcNfVY4jgAACCCCAAAIIIIAAAghEgEBwfzIYAQOhiwgggAACCCCAQEYI6IwELc5ZGrqvORy0eAc7zMEAP1KaiRHgUnMqLdc7ZzlUrFjRzNDwdZ9BgwbJnDlz5Ny5czJ//ny59957Pappzo1+/frJ2LFjzQyMUaNGiX6cJX/+/GZ2xZtvvmkO58qVy3k62bZ3QvWkpCTRmSWa90NnYCxfvtzkyBg6dKjceeedya5/8cUXzYyZli1bSpMmTZKd5wACCCCAAAIIIIAAAggggEBkCTBTI7KeF71FAAEEEEAAARcJ6NJJ1vJT3kENa6ZG9erVXdRj313JnTu3faJBgwb2tvdGgQIFpFKlSubwn3/+afJjeNfp06ePvPvuu1K/fn2PJaF0Ga527drJJ598IjoDxCr58uWzNoP6jouLEw2MNGrUyNznuuuuM7kyRo8eLVu3bvVo48svvxTNEaLj0yWzKAgggAACCCCAAAIIIIAAApEvwEyNyH+GjAABBBBAAAEE0kmgQ4cOsmfPHp9369q1q8/jOoPAWfSlv85mcFMpWrSorFmzxnRJtwMV67wuMXX06FEpUqRIsup169YV/eiMDk2krrMrNDG6teyULglllctJ2p05c2a5++67RZcA0wTiOotEZ5NYZfLkyWZTZ69Yy4RZ56xvTYBula+//tpsajL2Zs2aWYf5RgABBBBAAAEEEEAAAQQQcJEAQQ0XPQy6ggACCCCAAAIIZISAM7CgwYFARYMZVkkp+bkua1WiRAmruv39xx9/2NtVqlSxt9OyUa5cOfsya9aMdeD8+fNmU3NuBMq7YdV/6qmnzGbx4sUJalgofCOAAAIIIIAAAggggAACLhMgqOGyB0J3EEAAAQQQQMC9AmPGjPFYcunZZ5+VDRs2SM+ePeWGG26wO645JRYsWGCWW+rRo4d9XDcKFSrkse+GHZ3JYJVdu3ZZmz6/d+7caY7rclKpXTpKL9Qlu37++WfThi7N5VyKyhxM5Q9NQm6VlAIyVj2+EUAAAQQQQAABBBBAAAEEIleAoEbkPjt6jgACCCCAAALpLFC2bFn7jvoyfcuWLWZfk1BXqFDBPrdt2zazrYmpncftCi7b0LwUBQsWFF2KSWc0PPzww6JLO3kXDXhs2rTJHNYE6JkypT49myb3Pnv2rGnj9ttv975Fqvc1qGQVa2ksa3/WrFnWpt/vvn37mmTjWkHzb1AQQAABBBBAAAEEEEAAAQTcLZD6/xN193joHQIIIIAAAgggkC4C+jL9zJkzJgl1xYoV7XseOXLEDnY4Z0DYFVy4oQGMe+65x/RMc4ZMmDAhWS81iDNy5Eixlp/q0qWLzzo6fn9l7ty54sxz0bZtW39Vgzp+7NgxmThxol23cePG9jYbCCCAAAIIIIAAAggggAAC0SnATI3ofK6MCgEEEEAAAQTCLLB8+XJzB11CyTmrYeXKlSYxdunSpSU+Pj7MvQhd8926dZP58+eL5rsYP3686GyT9u3bm+WydMmpKVOmyOrVq80NNXjQqlWrZDc/ceKE3HzzzdKiRQtp0KCBaL6LuLg40es1CfeiRYvMNZpn47nnnjPnkjXidUCTip86dcrj6PHjx2Xt2rUybdo02bt3rzmns02aN2/uUY8dBBBAAAEEEEAAAQQQQACB6BMgqBF9z5QRIYAAAggggEA6CKxYscLcpWbNmh5306CGFn3JHklFc2SMHj1aHnroIZMn5JtvvhH9eBcNaLz44ot+AxK6tNS8efPMx/ta3ddlq0aMGBF0Lo3Bgwf7asbjWJ06dcwsEg2gUBBAAAEEEEAAAQQQQAABBKJbgKBGdD9fRocAAggggAACYRDQJZhWrVplWvYOXljBjkhZesrJU6RIEbOc05dffmlmVmjOEJ0VkT9/fqlSpYp06NDBzMJwXuPczpMnjwwbNkx+//13M+Pj0KFDcu7cOTPbo3LlyiaZus7wuNzgQ65cuUT7qm3eeOONorlLLrdN5zjYRgABBBBAAAEEEEAAAQQQcK9AXNKlEtLuDZwT0uZoDAEEEEAAAQQiWKBADpEXky9TFMEjousIIIAAAggggAACCCCAAAIIIJCBAiQKz0B8bo0AAggggAACCCCAAAIIIIAAAggggAACCCCAAALBCxDUCN6KmggggAACCCCAAAIIIIAAAggggAACCCCAAAIIIJCBAgQ1MhCfWyOAAAIIIIAAAggggAACCCCAAAIIIIAAAggggEDwAgQ1greiJgIIIIAAAggggAACCCCAAAIIIIAAAggggAACCGSgAEGNDMTn1ggggAACCCCAAAIIIIAAAggggAACCCCAAAIIIBC8AEGN4K2oiQACCCCAAAIIIIAAAggggAACCCCAAAIIIIAAAhkoQFAjA/G5NQIIIIAAAggggAACCCCAAAIIIIAAAggggAACCAQvQFAjeCtqIoAAAggggAACCCCAAAIIIIAAAggggAACCCCAQAYKENTIQHxujQACCCCAAAIIIIAAAggggAACCCCAAAIIIIAAAsELENQI3oqaCCCAAAIIIIAAAggggAACCCCAAAIIIIAAAgggkIECBDUyEJ9bI4AAAggggAACCCCAAAIIIIAAAggggAACCCCAQPACBDWCt6ImAggggAACCCCAAAIIIIAAAggggAACCCCAAAIIZKAAQY0MxOfWCCCAAAIIIIAAAggggAACCCCAAAIIIIAAAgggELwAQY3graiJAAIIIIAAAggggAACCCCAAAIIIIAAAggggAACGShAUCMD8bk1AggggAACCCCAAAIIIIAAAggggAACCCCAAAIIBC9AUCN4K2oigAACCCCAAAIIIIAAAggggAACCCCAAAIIIIBABgoQ1MhAfG6NAAIIIIAAAggggAACCCCAAAIIIIAAAggggAACwQsQ1AjeipoIIIAAAggggAACCCCAAAIIIIAAAggggAACCCCQgQIENTIQn1sjgAACCCCAAAIIIIAAAggggAACCCCAAAIIIIBA8AIENYK3oiYCCCCAAAIIIIAAAggggAACCCCAAAIIIIAAAghkoABBjQzE59YIIIAAAghEu0DS+XPRPkTGhwACCCCAAAIIIIAAAggggAAC6ShAUCMdsbkVAggggAACsSaQlBRrI2a8CCCAAAIIIIAAAggggAACCCAQToEsoW48MWdcqJukPQQQQAABBBCIUIGknPz9RIQ+OrqNAAIIIIAAAggggAACCCCAgCsFQh7UON0prysHSqcQQAABBBBAIP0F4rJlk1zpf1vuiAACCCCAAAIIIIAAAggggAACUSrAn09G6YNlWAgggAACCCCAAAIIIIAAAggggAACCCCAAAIIRJsAQY1oe6KMBwEEEEAAAQQQQAABBBBAAAEEEEAAAQQQQACBKBUgqBGlD5ZhIYAAAggggAACCCCAAAIIIIAAAggggAACCCAQbQIENaLtiTIeBBBAAAEEEEAAAQQQQAABBBBAAAEEEEAAAQSiVICgRpQ+WIaFAAIIIIAAAggggAACCCCAAAIIIIAAAggggEC0CRDUiLYnyngQQAABBBBAAAEEEEAAAQQQQAABBBBAAAEEEIhSAYIaUfpgGRYCCCCAAAIIIIAAAggggAACCCCAAAIIIIAAAtEmQFAj2p4o40EAAQQQQAABBBBAAAEEEEAAAQQQQAABBBBAIEoFCGpE6YNlWAgggAACCCCAAAIIIIAAAggggAACCCCAAAIIRJsAQY1oe6KMBwEEEEAAAQQQQAABBBBAAAEEEEAAAQQQQACBKBUgqBGlD5ZhIYAAAggggAACCCCAAAIIIIAAAggggAACCCAQbQIENaLtiTIeBBBAAAEEEEAAAQQQQAABBBBAAAEEEEAAAQSiVICgRpQ+WIaFAAIIIIAAAggggAACCCCAAAIIIIAAAggggEC0CRDUiLYnyngQQAABBBBAIGYEZs2aJXXq1DGf3bt3R/W4ly5dao9Vt8NVLM+xY8eG6xa0iwACCCCAAAIIIIAAAgggcBkCWS7jWi5FAAEEEEAAAQRiSkBfpvfv39/vmHPmzCnx8fFSpUoV6dixo9StW9dv3Vg7Ecgue/bsUrBgQbnmmmukTZs20rp1a8mShX+mxtrvCONFAAEEEEAAAQQQQAABBIIRYKZGMErUQQABBBBAAAEEghA4ffq0bN++XebOnSsDBgyQZ555Ri5evBjElbFd5ezZs7J371754YcfZNiwYdKzZ085ePBgbKMwegQQQAABBBBAAAEEEEAAAZ8C/AmcTxYOIoAAAggggAACgQVuu+020Y+zHD16VNasWSNTpkyRw4cPy5w5c6Ro0aIycOBAZ7WY3/a202DQ+vXr5eOPPxZdRku3H374YZk0aZLExcUZL10WKpzLTsX8QwEAAQQQQAABBBBAAAEEEIgQAYIaEfKg6CYCCCCAAAIIuEtAl0uqUKFCsk7Vrl1bmjVrJt27dxedgTBt2jTp06ePZM2aNVndWD3gy65atWrSrl076dGjh+zYsUPWrVsnixcvNpax6sS4EUAAAQQQQAABBBBAAAEEkguw/FRyE44ggAACCCCAAAKXJXDllVdK48aNTRsnT56UrVu3XlZ7sXJxvnz55N5777WH+/PPP9vbbCCAAAIIIIAAAggggAACCCCgAszU4PcAAQQQQAABBBAIg0DJkiXtVs+dO2dvOzd27twpCxculGXLlsnmzZvNklV6Xmcy6MyFDh06SKNGjZyXBNzW++jMkHnz5om2raVcuXLSvn176dKli2TOnNnj+j///FPuvPNOc2zw4MEeAQWPiv/dmTp1qrzyyitmT5eGqlq1qq9ql3VMk6xbZc+ePdamWXrKStL+3nvviS5H5SzDhw+X2bNnS/HixWXWrFly/Phxs5zV999/b5a00sTjFStWNA46IyStJTExUUaOHCmfffaZaeL222+XRx991F4mK63tch0CCCCAAAIIIIAAAggggEBwAgQ1gnOiFgIIIIAAAgggkCoB5wv5YsWKJbt2165d0qlTp2TH9YAmzdbP/PnzzZJMmnBcX8oHKseOHZPHHntMNmzY4FFNl3HSj7Y1evRoyZUrl31eX/JXrlzZ5LDQgIBzloRdybGhwQItOhMlHAENbds5Tg0gpKXozJghQ4aYYIbz+hUrVoh+Vq9ebayc54LZvnDhgjz99NPyzTffmOq9evUyCeGDuZY6CCCAAAIIIIAAAggggAACoREI/H/HobkHrSCAAAIIIIAAAjEloC/VNR+EFp1xUbhw4WTj1xf2mmejQYMGUr9+fRMo0OWXNDixfft2+fTTT+Xvv/+WuXPnSqlSpaRfv37J2nAeePHFF01Ao02bNmZmRqFChWTbtm0mabkm3l6+fLl5IW/NtLCu1cCKntc+68v+6tWrW6c8vjdt2iQbN240xzp27OhxLpQ7OmPFKkWKFLE2g/4+c+aMDB06VDRpuwYd6tWrZwI52vfx48fLvn37ZPr06SZXR8OGDVPVrs7IWLJkiZmV8dBDD8ldd90V9PVURAABBBBAAAEEEEAAAQQQCI0AQY3QONIKAggggAACCMSYQEJCglkyyjlsXfJIAwNTpkwxScLz5MljXrA761jb+sJeZz74enGvL+JvvfVWee6550ydjz76SO6++27R9vwVDUwMGjRI7rvvPrtKpUqVpHXr1qIv4DU/hS519eOPP0qTJk3sOjfeeKO8/vrrcvr0aXMvf0GNmTNnmmt0JsXNN99sXx/KDZ0J8fHHH9tNatL11BZ9LufPn5f3339frrrqKvtytdD2unXrZp6NBjaCDWroc33wwQdl1apVZgmvYcOGmaXB7MbZQAABBBBAAAEEEEAAAQQQSDcBghrpRs2NEEAAAQQQQCCaBGbMmCH68VUyZcpkghL6l/xly5b1VUVy5sxpPj5PXjoYFxdnXqR/9dVXJuDw66+/SqtWrfxVN/kifC0fpUEIfQl/yy23iAYNtM/OoEbu3LlN4EMDLLqs0sMPPyw5cuTwuI8GCXTGiJamTZuanB8eFS5zRwMqGpQZN26crFmzxrSmuTF01klaiubecAY0rDZKly4tzZs3N+PUAEUw5dChQ3L//feLzlTJli2b6IyY66+/PphLqYMAAggggAACCCCAAAIIIBAGgUxhaJMmEUAAAQQQQACBmBbQpaU0QKABBH9Jwr2BNOCgSyNt2bLFzADRZZgOHDgg+fPnN1U1qXegorMnNBDiqxQtWtQsc6XnNCn5xYsXPapZuT1OnjwpmljbuyxatMgs56THQ7H0lC4DpYm+rY8GSnR5Le2bFl06S5fJ0iBCaosatG3b1u9lOmNDiy5PpTMwApXdu3dL7969TUBDc5G88cYbBDQCgXEOAQQQQAABBBBAAAEEEEgHAWZqpAMyt0AAAQQQQACB6BPo06dPsjwXms9h586dMmfOHLME1SeffGLyXIwZMybZ7AcV0UDG559/LjobQ3M+6IwIf+XIkSP+TpnjVapUSfG8Lj2lsyI0SXmZMmXs+jVq1DA5PTSHh87YuOmmm+xzumElCNelsho1auRxLpQ7JUuWlJYtW0r37t1NYCMtbRcoUED0469o3hKraBAnb9681q7Ht+YY0ZwcVmBJAxrhSo7ucWN2EEAAAQQQQAABBBBAAAEEAgoQ1AjIw0kEEEAAAQQQQCB4AV22qUKFCvLAAw+YoMELL7wgK1euNPkdBg4c6NGQzhQYPHiwCXp4nPCzc/bsWT9n/nO4YMGCAc/r7AeraDJy76IzMEaPHi1Lly4VnaFQokQJU+XgwYMmH4fu6GyQzJkze1+a6v3bbrtN9KNFZ1Zkz57dBCIC5QwJ9ibeS2d5X6dLg1lFZ9T4K/Pnz7dPPfHEEwQ0bA02EEAAAQQQQAABBBBAAIGMFfjf/9VlbD+4OwIIIIAAAgggEFUCmsPCWjrKSrLtHKAur7RhwwZzSHM0vPbaa2ZGhM6m+P33301wQQMMunSUlqSkJPPt74e/paf81fc+3r59e8maNau5z+zZs+3Tum0tVxWKpae0YQ3AaPBHP5r7olSpUgGToNudSccNTSKueU+0jBo1SnQWCwUBBBBAAAEEEEAAAQQQQCDjBQhqZPwzoAcIIIAAAgggEIUCOiNAE1Nr0dkOzuWjTpw4IdZMgHbt2pn8Ec2aNRNNjq0zDZwBipTyPlh0hw8ftjZ9fjvPO5dgsirrkk2aRFuLLp9lBVGsAIcuUeUv6bnVRjR961JTOnNFn4faDRgwQHRJKgoCCCCAAAIIIIAAAggggEDGChDUyFh/7o4AAggggAACUSxgzXDQITq3d+zYYfJp6PE2bdrol8+iL9FPnTrl85z3wXXr1nkf8thfv3692deX9Jq7wlexEoZrzg1N2r1q1Sr7RX6oZmn4uq9bj9WuXVtef/11szzWoUOHpH///rJ9+3a3dpd+IYAAAggggAACCCCAAAIxIUBQIyYeM4NEAAEEEEAAgfQW0KTh1pJFVs4Iqw/OAIcm7vZXPvvsM3+nkh3XZOPW7Arvk/v375dffvnFHNYX9f7yYtSrV8/MFtGKumSWlSA8V65cAYMv3veLpv26devKq6++agIbOuNGAxuaDJ6CAAIIIIAAAggggAACCCCQMQIENTLGnbsigAACCCCAQJQLjB07Vqzk3pqfwRlI0BwS1hJTzqWenCSLFi2STz/91Hko4PamTZvkgw8+SFbnwoULMmLECDl//rw5ZyXoTlbx0gFdMsuakfH999/bS2S1atVKNLARq6VBgwZmibBs2bKJBoj69etHYCNWfxkYNwIIIIAAAggggAACCGS4QJYM7wEdQAABBBBAAAEEIlAgISFBNm/e7NHzc+fOmeWJdNbEkiVLzDmdpaF/3e8smr+icePGoknBtd6gQYNEgw2aU0PzN2hAQXNZ6DJRmlND75VSqVy5srz11luiwY2bb75ZChUqZPry8ccfi7U0VdOmTUU/gYoGNcaPHy8608QqmvQ81osGpjRh+COPPCL79u0zOTbGjRtnz2yJdR/GjwACCCCAAAIIIIAAAgiklwBBjfSS5j4IIIAAAgggEFUCM2bMEP0EKgULFpTnn39eKlSokKza448/Lr1795a9e/fKb7/9Zj7OSsWKFTOzAx544AHnYb/bTz75pLnX119/LfrxLproW2dspFSKFi0qOjPBCsqUKVNGatasmdJlMXG+SZMmMnLkSHn00Udlz549JlilM3L0WVEQQAABBBBAAAEEEEAAAQTSR4Dlp9LHmbsggAACCCCAQAwIZM2aVQoXLiyam+LBBx8UzYmhAQJfRV+Ef/TRR9K9e3fRwIEubZQnTx65+uqrpU+fPjJlyhS58sorfV3q81i+fPnk/fffl8GDB5s2cufObZaM0hkcOrtAZxXosWDKTTfdZFezlqOyD8T4RrNmzeTll1+WLFmyiCZU11k4OnODggACCCCAAAIIIIAAAgggkD4CcZcSSiaF8lYnFy8OZXO0hQACCCCAAAIRLBB36UV9rvr1I3gEsdn1t99+WyZOnGjygGjOjyJFisQmBKNGAAEEEEAAAQQQQAABBBBwnQAzNVz3SOgQAggggAACCCCQcQIXL14UzQmipVGjRgQ0Mu5RcGcEEEAAAQQQQAABBBBAAAEfAgQ1fKBwCAEEEEAAAQQQiFWBuXPn2ssp3XrrrbHKwLgRQAABBBBAAAEEEEAAAQRcKkCicJc+GLqFAAIIIIAAAgikl8COHTvkwoULsn79enn99dfNbTW3R+PGjdOrC9wHAQQQQAABBBBAAAEEEEAAgaAECGoExUQlBBBAAAEEEEAgegU6d+7sMThNgv34449LXFycx3F2EEAAAQQQQAABBBBAAAEEEMhoAYIaGf0EuD8CCCCAAAIIIOASgXz58sm1114r/fr1k+rVq7ukV3QDAQQQQAABBBBAAAEEEEAAgf8JENT4nwVbCCCAAAIIIIBATAosXbo0JsfNoBFAAAEEEEAAAQQQQAABBCJPgEThkffM6DECCCCAAAIIIIAAAggggAACCCCAAAIIIIAAAjEpQFAjJh87g0YAAQQQQAABBBBAAAEEEEAAAQQQQAABBBBAIPIECGpE3jOjxwgggAACCCCAAAIIIIAAAggggAACCCCAAAIIxKQAQY2YfOwMGgEEEEAAAQQQQAABBBBAAAEEEEAAAQQQQACByBMgqBF5z4weI4AAAggggAACCCCAAAIIIIAAAggggAACCCAQkwJZYnLUDBoBBBBAAAEEEAixwOrVq6Vnz56SI0cOWbhwoWTJ8p9/Zh0/flxatWoliYmJMnv2bClWrJjPO9epU8fncV8H27dvL8OHD/d1Ktmxn376SR544AH7eJ8+faRfv372fqCN06dPy9dffy2//PKLbNy4URISEuTMmTOSN29eKVWqlFSrVk3atGljvn21s3v3blm0aJEs+//t3Xe4VdWZOOAPLCCgKApYsGMDRVQ0GgtjjUaNJiHqz9ExGguTWKJmxhRjmZgYjRqdmMSWqrGM9RFjSWKLxhakqdiwYUGlKDZAEH75duacObcB93ruvede3vU8x7P32muvvda7/UPPd9f6Hn88Jk2aFG+//XYsWLAgVlxxxdhkk01ijz32KGxKVo31Ub+uFsdUf4zOCRAgQIAAAQIECBAgQKD1BAQ1Ws9WzwQIECBAgMASJDB+/Phitptuumk5oJEVWZ8Bjf79+zcZ0GgtpgwA/PjHP25R9zfeeGNceumlMWPGjAb3Z3AjP0888URcffXVMWjQoDj55JNj8803L7f95S9/Gb/+9a+LIEa58n8PMriRn/vvvz/+8Ic/xLnnnrtYNrU4pvpzc06AAAECBAgQIECAAAECrSsgqNG6vnonQIAAAQIElhCBUlBj6NChdWY8duzY4rx+fZ1GFScZIDjttNMqahoerrDCCg0rG6nJwMKUKVOiT58+jQYnGrmlCMCcffbZcfPNNxeXu3btGsOHD4/tt9++WJ3Rq1evIqCRKy8yKDFu3LiYOHFi/P73v4/zzz+/3OW0adOKgMZyyy0X//Iv/xLbbLNNrLnmmtGtW7d46aWX4tprry3uy3u//vWvx1VXXRU9evQo3195kEGhWhtT5fgcEyBAgAABAgQIECBAgEDbCQhqtJ21JxEgQIAAAQKdWCC3n8pSP3iRP/o3Vl9UNvKP3L5q4MCBjVxpXtXTTz8d1113XSy77LJF0OCss85arA4uv/zyckBjrbXWinPOOSc22GCDBvdut912ceihhxZBjfPOO6/B9d69e8dxxx0XI0aMiJ49e9a5nltPfe5zn4tTTz01/vznP8fkyZOLFRu5NVZjpRbH1Ng41REgQIAAAQIECBAgQIBA6wtIFN76xp5AgAABAgQIdHKBV199tVgJsdRSS9XJLzFnzpxiNUJOv36wozVJPvnkk8ggRn4ffvjhxQqLxXleBkJ+9atfFU379u0bV1xxRaMBjcq+cl65zdSee+5ZWR3HH398HHbYYQ0CGqVGaXXKKafEMsssU1TdfffdpUt1vmtxTHUG6IQAAQIECBAgQIAAAQIE2lRAUKNNuT2MAAECBAgQ6IwCpa2ncoVF5aqEp556KubOnVsk1l5//fXbbOqZ5yITe+dKiwwsLG75zW9+U2w/le3/4z/+o9i2anHuzdUgmTC8uSUThpdWgbz22muN3l6LY2p0oCoJECBAgAABAgQIECBAoE0EbD/VJsweQoAAAQIECHQWgVGjRsWZZ57Z6HQykDBs2LAG195///0ip0TlhVtvvTVWX331yqqqHL/xxhtFgu/s7Dvf+U6x/dTidJxjzBwZWXJcmQejLcrHH39cPCZXbtQvtTim+mN0ToAAAQIECBAgQIAAAQJtK2ClRtt6exoBAgQIECBAoFUFfvzjH8fs2bNjr732iq233nqxn5W5P3K7qiyZLyMThLd2mTFjRpE0PJ+zzjrrNHhcLY6pwSBVECBAgAABAgQIECBAgECbClip0abcHkaAAAECBAh0dIGdd965Tt6MadOmxciRI4tpZQ6K3FIpy/z584tE2plXI5Nt199+ql+/fkW7+v/IgMSkSZPqV5fPl1tuuVhjjTXK55UHd955Zzz00EPFdlcnnnhi5aVFHj/33HPlNpnIuy3KlVdeWQ6kNLZ9VS2OqS1cPIMAAQIECBAgQIAAAQIEmhYQ1GjaxhUCBAgQIECAQAOBXr16RX5KpRSAyEBDZTLw/EE+AxrdunWL4cOHx9JLL95/dk2cODEOOuigUvcNvrfccsu47LLLGtTPnDkzLrjggqL+G9/4xmLnwyh1lPeXykorrVQ6bLXvJ598MjL3R5b+/fvHiBEjGjyrFsfUYJAqCBAgQIAAAQIECBAgQKBNBVp/X4E2nY6HESBAgAABAgTaVmDs2LHFAzfffPM6Dy4lDx80aNBiBzTqdNDMkwsvvDByO6dNN900vvSlLzXz7oiPPvqofE+uBmnNMn369DjllFOKVRpdunSJM844I7p3797gkbU4pgaDVEGAAAECBAgQIECAAAECbSqweH8y2KZD8jACBAgQIECAQMcRyLwPWSpXaeT5hAkT8ivqBzuKyoX8o6mVGAu5JUaPHh2ZwDyTbWdy8Jbkw+jRo0f5EbNmzSofV/vgww8/jG9+85vx1ltvFV0fe+yxTeb+qMUxVdtDfwQIECBAgAABAgQIECDQPAErNZrnpTUBAgQIECBAoCyQP9CXtp+qH9QordQYMmRIuX1rHHz88cfxox/9qOj6wAMPjI022qhFj+ndu3f5vlzx0Rolt+M6+eST4+mnny66P/TQQ+Owww5r8lG1OKYmB+sCAQIECBAgQIAAAQIECLSJgJUabcLsIQQIECBAgEBnENh3331jypQpjU7lgAMOaLT+pJNOqlN/1FFHxTHHHFOn7tOc3HPPPTF58uRii6v11lsv7rrrrgbdvfTSS+W6F154odwmt6oqJR3fcMMNy22eeeaZ8nG1DubNmxff/va3i1Ul2ef+++8fJ5xwwkK7r8UxLXTALhIgQIAAAQIECBAgQIBAqwsIarQ6sQcQIECAAAECBFpPYO7cuUXnGTQ466yzFvmgDILkJ8vpp59eDmrkSpPcvuqTTz6Jhx56KObPn9+ibawaG0D2ddppp8UDDzxQXN59993ju9/9bmNN69TV4pjqDNAJAQIECBAgQIAAAQIECLS5gKBGm5N7IAECBAgQINBRBS6++OIoBRFyDmeeeWaxldIRRxwRe+yxR3lal156adx7772x1157NdheqU+fPuV2tXSw/PLLx/Dhw4uAR65Gue+++2KXXXapyhBze6w//elPRV877rhj/OAHP1isgEktjqkqIDohQIAAAQIECBAgQIAAgRYLCGq0mM6NBAgQIECAwJImsPbaa5ennCsjSts65Y//AwcOLF975ZVXiuMddtihTn25QRUPckus/CysZCLxkSNHFk0Wtv3V4YcfXgQzcmXFT37ykyL5+eIEYTKvx/333x+5AqN+ueCCC+KWW24pqrfZZps455xziq2y6rdr6rwWx9TUWNUTIECAAAECBAgQIECAQOsLSBTe+saeQIAAAQIECHRCgUx2PXv27OjZs2dssMEG5Rm+++675WDHlltuWa7vCAebbLJJfO1rXyuGOnXq1DjyyCPLidCbGv+ECROKe+68884GTXLFytVXX13UZ8L0888/P5ZddtkG7RZWUYtjWth4XSNAgAABAgQIECBAgACB1hWwUqN1ffVOgAABAgQIdFKBMWPGFDPLH+szF0WpjBs3LhYsWBBrrrlm9O3bt1TdYb5zJce0adPi5ptvLhKQH3zwwcW2VLnqJOfUo0ePyMDNpEmT4q9//WuUHPr161dnjtdee21cfvnlRV1eO/744+P111+v06b+yTrrrNPoKo5aHFP9sTsnQIAAAQIECBAgQIAAgbYRENRoG2dPIUCAAAECBDqZwNixY4sZZTLrypJBjSxbbLFFZXWHOe7atWt873vfi4022ihypcU777xT5AfJHCFNlQzsZF6RylJKRp51b7/9drHqo/J6Y8e33nprrL766g0u1eKYGgxSBQECBAgQIECAAAECBAi0iYCgRpswewgBAgQIECDQmQQy58T48eOLKdUPXpSCHR1t66n672fEiBHx+c9/vkjw/fDDD8ezzz5bBDjmzJkTmcB7wIABkcGMTJA+ePDg+re3ynktjqlVJqpTAgQIECBAgAABAgQIEGhSoMs/tkdY0OTVFlz48IEHWnCXWwgQIECAAIHOKNDlH/kTenzmM51xauZEgAABAgQIECBAgAABAgQItIOAROHtgO6RBAgQIECAAAECBAgQIECAAAECBAgQIECAQPMFBDWab+YOAgQIECBAgAABAgQIECBAgAABAgQIECBAoB0EBDXaAd0jCRAgQIAAAQIECBAgQIAAAQIECBAgQIAAgeYLCGo038wdBAgQIECAAAECBAgQIECAAAECBAgQIECAQDsICGq0A7pHEiBAgAABAgQIECBAgAABAgQIECBAgAABAs0XENRovpk7CBAgQIAAAQIECBAgQIAAAQIECBAgQIAAgXYQENRoB3SPJECAAAECBAgQIECAAAECBAgQIECAAAECBJovIKjRfDN3ECBAgAABAgQIECBAgAABAgQIECBAgAABAu0gIKjRDugeSYAAAQIECBAgQIAAAQIECBAgQIAAAQIECDRfQFCj+WbuIECAAAECBAgQIECAAAECBAgQIECAAAECBNpBQFCjHdA9kgABAgQIECBAgAABAgQIECBAgAABAgQIEGi+gKBG883cQYAAAQIECBAgQIAAAQIECBAgQIAAAQIECLSDgKBGO6B7JAECBAgQIECAAAECBAgQIECAAAECBAgQINB8AUGN5pu5gwABAgQIECBAgAABAgQIECBAgAABAgQIEGgHAUGNdkD3SAIECBAgQIAAAQIECBAgQIAAAQIECBAgQKD5AoIazTdzBwECBAgQIECAAAECBAgQIECAAAECBAgQINAOAoIa7YDukQQIECBAgAABAgQIECBAgAABAgQIECBAgEDzBQQ1mm/mDgIECBAgQIAAAQIECBAgQIAAAQIECBAgQKAdBAQ12gHdIwkQIECAAAECBAgQIECAAAECBAgQIECAAIHmCwhqNN/MHQQIECBAgMDiCnw8d3FbakeAAAECBAgQIECAAAECBAgQWKSAoMYiiTQgQIAAAQIEWiywYEGLb3UjAQIECBAgQIAAAQIECBAgQKC+wNL1Kz7teZf5frz4tIbuJ0CAAAECnUWgS/j7ic7yLs2DAAECBAgQIECAAAECBAjUgkDVgxo9PqqFaRkDAQIECBAgUBMC3ar+nxo1MS2DIECAAAECBAgQIECAAAECBNpHwJ9Pto+7pxIgQIAAAQIECBAgQIAAAQIECBAgQIAAAQLNFBDUaCaY5gQIECBAgAABAgQIECBAgAABAgQIECBAgED7CAhqtI+7pxIgQIAAAQIECBAgQIAAAQIECBAgQIAAAQLNFBDUaCaY5gQIECBAgAABAgQIECBAgAABAgQIECBAgED7CAhqtI+7pxIgQIAAAQIECBAgQIAAAQIECBAgQIAAAQLNFBDUaCaY5gQIECBAgAABAgQIECBAgAABAgQIECBAgED7CAhqtI+7pxIgQIAAAQIECBAgQIAAAQIECBAgQIAAAQLNFBDUaCaY5gQIECBAgAABAgQIECBAgAABAgQIECBAgED7CAhqtI+7pxIgQIAAAQIECBAgQIAAAQIECBAgQIAAAQLNFBDUaCaY5gQIECBAgAABAgQIECBAgAABAgQIECBAgED7CAhqtI+7pxIgQIAAAQIECBAgQIAAAQIECBAgQIAAAQLNFBDUaCaY5gQIECBAgAABAgQIECBAgAABAgQIECBAgED7CAhqtI+7pxIgQIAAAQIECBAgQIAAAQIECBAgQIAAAQLNFBDUaCaY5gQIECBAgAABAgQIECBAgAABAgQIECBAgED7CAhqtI+7pxIgQIAAAQIEOrXApZdeGsOGDSs+7TXRo48+unh+frdWqYV5ttbc9EuAAAECBAgQIECAAIFaFFi6FgdlTAQIECBAgACBWhQYPXp0jBw5stGhdevWLVZaaaXYaKONYvfdd4/ddtstll7af2o1irWYlRmMGDNmTIPWXbt2jV69esWAAQNiq622ii996Uux5pprNminggABAgQIECBAgAABAgQ6n4CVGp3vnZoRAQIECBAg0A4Cc+bMiTfffDPuv//+OPXUU+OII46IadOmtcNIGn/kqFGjyisn3njjjcYbdZDa+fPnx3vvvRcTJ06MK6+8Mg444IC4/vrrO8joDZMAAQIECBAgQIAAAQIEPo2APx/8NHruJUCAAAECBJZYgREjRkR+SmXWrFnFj+x/+MMfIoMG+YP7ySefHL/97W+jS5cupWa+Wyhw7bXXlu/MoMbbb78df/nLX+K2226LuXPnxrnnnhurrbZa7LDDDuV2l112WfnYAQECBAgQIECAAAECBAh0DgFBjc7xHs2CAAECBAgQaGOB3Gpq4MCBdZ662WabxV577RWHHXZYvPrqq/HUU0/FAw88EDvttFOddk6aL1DfesMNNywCGBtvvHGcd955sWDBgrjkkkvqBDWa/xR3ECBAgAABAgQIECBAgECtC9h+qtbfkPERIECAAAECHUpghRVWiK9+9avlMT/88MPlYwfVF8itp3KFRpZnnnkmZsyYUf2H6JEAAQIECBAgQIAAAQIEakbASo2aeRUGQoAAAQIECHQWgcGDB5enMmXKlPJxblGVKzceffTRePrpp+P111+P2bNnx/LLLx/rrbde7LjjjvHlL385evToUb6nsYN777232HYp+3jnnXdimWWWKZKU9+3bt0icnf1suummxa2NJTf/whe+0KDbXOUwbNiwBvX33Xdf3HHHHfHkk08Wz1p22WWLpNz5jIMOOigyiNOeJZOGb7LJJlFyzrwmffr0KYZUSjS+5ZZbRv2tqHKLsJLD6aefHvvuu2888sgjcd111xVbh2XOjvTcbrvtivwo/fv3b/E0n3322TjuuOOKgMvKK68cF198cWywwQYt7s+NBAgQIECAAAECBAgQWJIFBDWW5Ldv7gQIECBAgECrCCy99P/9J1bmfyiVE044IcaMGVM6LX+/++67RX1eu+GGG+Kiiy6KddZZp3y9dPDJJ5/E9773vSKXRKkuvzOnxEcffVQEScaNGxcPPfRQkUC7sk1zj/NH/VNOOSX+/ve/17n1448/LgIyGVDJsZ5//vmR2261Z2nKuzljykBD5j+pLBn4uPHGG+Oee+4pgiLrrrtu5eXFOh47dmyceOKJ8cEHH8Tqq68ev/jFL2LAgAGLda9GBAgQIECAAAECBAgQINBQ4P/+j7vhNTUECBAgQIAAAQItEJg0aVL5rlVWWaV8nEGJzA2ROTYGDRoUpWu5yiBXX2Ti61y9kQnGr7766ujWrVv53jzIIEK2yTJ06NDYf//9ix/Iu3fvHjNnzoznn38+crur/AG9VHLVSCbZvv/+++OXv/xlUZ0/4JeeXWq3xhprlA4jAxdf//rXi+2cllpqqfjc5z4X22+/fWSbefPmFQGYTIieWz1loCaPS1tAlTtpw4OmvBd3CDfffHNMmDAhckXHl770pVh77bXj/fffjz/+8Y/FJ1fD/Nd//Vf85je/Wdwui3YPPvhgERiaM2dOsRLn5z//ebH6o1mdaEyAAAECBAgQIECAAAECdQQENepwOCFAgAABAgQIfDqB/NE/f+Qvla222qp0GLnN0VprrVU+Lx3kVlG777577LfffsU2Ra+88kqx5VMGLSpLKaCR7XO7qMoVCtnuM5/5TBxyyCFFgKN033LLLVcEUnJlRankGHLVQFPl8ssvLwIauS1WrizI7Z0qSwZUMiH64YcfHtOmTYv8sf6ss86qbNJmxxk4ePHFF4vnZdBl1VVXbfazM6DxxS9+Mb773e9Gly5dyvdvs802xdZet9xySzzxxBOFSSYmX5xy5513Fu87A1kZWPrv//7v6N279+Lcqg0BAgQIECBAgAABAgQILERAovCF4LhEgAABAgQIEFhcgcyX8fjjj8c3vvGN4gfwvC9XL2SwolQaC2iUruV3BiVyFUeWXFlRv0yfPr2oGjJkSIOARmXbT/PjeW5jdf311xfdjRw5skFAo/ScnNuRRx5ZnGawJeffViW39MrcGVdddVV8+9vfLj/23/7t38rHzTnIVSv/8R//USegUbo/g0Slklt7LU5Jv+9///uRAY0MjOQKmU/zThbnmdoQIECAAAECBAgQIEBgSRGwUmNJedPmSYAAAQIECFRVIFcz5KepksmqzzvvvMjE2k2V3NYotznK7Z5KZaWVVioOn3vuuVJV+Tt/fJ88eXKRbPyII46IFVdcsXytWgeZ16O0fdWuu+660G632GKL4nquTsmVILl9U2uVxpKYVz4rV1pkkvWWlJxnU+8pc5tk4vZSzpJF9X/FFVcUq2iy3c477xw//OEPm+x7UX25ToAAAQIECBAgQIAAAQINBQQ1GpqoIUCAAAECBAi0WCC3QNpll13i0EMPjQxs1C/51/7XXXddPPbYY3W2iarfLpOH1y977713kc/i1VdfLfJp5I/mubojgwv9+/ev37xF5xMnTizft+eee5aPF3VQWkWyqHbVvJ65RDbffPM48MADyytcWtJ/Y0nZK/vJbbgyqPHhhx9WVjc4zqTp11xzTVG/7777xqmnnhqZk0QhQIAAAQIECBAgQIAAgeoJCGpUz1JPBAgQIECAwBIkMGLEiMhPlszDkEm9c+VEr169mlS49NJLF7q6o/LGTC5dv2TOjddeey1+//vfF6spRo0aFfnJMmDAgBg+fHh85StfKY7r37u457l6pCVl9uzZLbltse/JZOelkoGCXD2RK1eqETTI4MjCSteu/9yxNbe9WlgpBTTWX3/9Yvup0n0Lu8c1AgQIECBAgAABAgQIEGiegKBG87y0JkCAAAECBAgUArlN1MCBAxdbI1dmlLarytUcuZIjE25nYuv8Ub2U9DsTgOcWRk2VzNnxpS99qUgk/ve//73I35EBhQx2ZILyXAXyrW99qxxwaaqfpuozD0SpZM6K0rhKdU19V2ulSFP9N8e6qT5auz5X6Nxzzz3xwgsvFFuP/ed//mdrP1L/BAgQIECAAAECBAgQWOIEBDWWuFduwgQIECBAgEB7CNx8883FY1dYYYX47W9/G6XcGfXHMnPmzPpVDc4zSXfm1MhP5rN46qmnIpN133TTTZErPM4555zYdNNNY+ONN25w76IqKhNa5xhbO1ixqPF0pOs/+tGPisTl9913X/zP//xPsYrk5JNP7khTMFYCBAgQIECAAAECBAjUvMA/19LX/DANkAABAgQIECDQsQVefPHFYgJbbbVVkwGNbJAJt5tTciVF5pXIH8/POuus4tYFCxbE3XffXaeb3CJrccpGG21UbjZ+/PjysYNFC+S7OPvss2PHHXcsGud2VBdddNGib9SCAAECBAgQIECAAAECBBZbQFBjsak0JECAAAECBAi0XKC0rdPCck8888wz8eSTT7b4IVtvvXX53vqJxpdddtnytY8//rh8XP8gE4+XckxkHosMkCiLL7DMMsvEueeeG9tvv31x05VXXhk/+9nPFr8DLQkQIECAAAECBAgQIEBgoQKCGgvlcZEAAQIECBAgUB2BNddcs+ho3Lhx8eqrrzboNBN0n3baaQ3qKytuv/32YrupyrrK40ceeaR8mnk7Kksm1S6VzL/RVFl++eXjgAMOKC5PmDAhLrjgglhYguzp06fHLbfc0lR3S2R9BjZ+8pOfxHbbbVfM/3e/+1384he/WCItTJoAAQIECBAgQIAAAQLVFpBTo9qi+iNAgAABAgQINCKw9957xwMPPBCzZs2Ko48+Og477LDYZJNNipYZPMgk3xkgGDJkSOR5YyWDHrmd0c4771y0GzBgQOQKjBkzZsSjjz4aN9xwQ3Fbjx49Ys8996zTRW4r1a1btyLnRiYjz62SMjdH167//BuXvn37lldojBw5MsaMGVOsGsktlB5//PHYf//9Y8MNN4zlllsu3n///SIZdiY/f+ihh4qE6Xld+T+BfC/nnXdenHTSScW7+fWvf13k2DjmmGP+r5EjAgQIECBAgAABAgQIEGi2gKBGs8ncQIAAAQIECBBovsBuu+0W++67b4waNSqmTp1a/OBd2ctSSy1V/AD+3nvvNRnUyPYZ+MjgRSmAUdlHHvfq1SsyYfWqq65a51LPnj3jwAMPjN///veR21wde+yxda5noGPYsGFFXf4g//Of/zzOOOOMuPfee+O5554rtlSqc0PFSfatNBTIINL5558fJ554Yvz973+Pyy+/vAhsHHnkkQ0bqyFAgAABAgQIECBAgACBxRIQ1FgsJo0IECBAgAABAp9e4PTTT4/Me3HzzTcXgYK5c+fGyiuvHFtssUWx5dOmm24al156aZMPuu666+LBBx+M3MLq9ddfLwIcH3zwQeTKjHXWWSe23XbbGDFiRNFnY50cd9xxsdZaa8Uf//jHyMTleW8p10f99hmoyC2U8lm33XZbjB07NqZNmxaZEyQDJ7m91eDBg2OHHXYonlv/fuf/FMj8JD/96U/j+OOPL1a/ZPAoA1iHH344IgIECBAgQIAAAQIECBBogUCXfyR/rG72xzv+2oJhuIUAAQIECBDolALd/pGcepdtO+XUTIoAAQIECBAgQIAAAQIECBBoewGJwtve3BMJECBAgAABAgQIECBAgAABAgQIECBAgACBFggIarQAzS0ECBAgQIAAAQIECBAgQIAAAQIECBAgQIBA2wsIarS9uScSIECAAAECBAgQIECAAAECBAgQIECAAAECLRAQ1GgBmlsIECBAgAABAgQIECBAgAABAgQIECBAgACBthcQ1Gh7c08kQIAAAQIECBAgQIAAAQIECBAgQIAAAQIEWiAgqNECNLcQIECAAAECBAgQIECAAAECBAgQIECAAAECbS8gqNH25p5IgAABAgQIECBAgAABAgQIECBAgAABAgQItEBAUKMFaG4hQIAAAQIECBAgQIAAAQIECBAgQIAAAQIE2l5AUKPtzT2RAAECBAgQIECAAAECBAgQIECAAAECBAgQaIGAoEYL0NxCgAABAgQIECBAgAABAgQIECBAgAABAgQItL3A0m3/SE8kQIAAAQIECHQ+gQkTJsQRRxwR3bt3j/vuuy+WXvqf/5n1/vvvx6677hrz58+P2267LVZdddVGJz9s2LBG6xur3GeffeKMM86oc6k17+/WrVusuOKKseGGGxZz2XPPPcvzqzOIRk7mzZsXd9xxR/zlL3+JSZMmxYwZM6JHjx6xyiqrxKabbhrbbbdd7Lbbbo3cWbdq7ty5cffdd8dDDz0UTz31VLz77rvxwQcfRK9evWK11VaLwYMHxy677BJbb711dO3a8O92Pv7443j22WeLe/P+/Lz66quxYMGC4kGjR4+u+0BnBAgQIECAAAECBAgQIFCTAoIaNflaDIoAAQIECENQtGcAADCaSURBVBDoaALjx48vhpw/1JcCGlmR9RnQ6N+/f5MBjVqf65w5c+Ktt94qPg888EBce+21cdFFF8XKK6+80KE///zzceqpp8YLL7xQp93MmTMjP1mfgYpFBTXuueeeuPDCC+ONN96o00+elPp65pln4sYbb4y11lorTjrppNhhhx3qtD377LNj1KhRdeqcECBAgAABAgQIECBAgEDHExDU6HjvzIgJECBAgACBGhQoBTWGDh1aZ3Rjx44tzuvX12lUcTJo0KA47bTTKmoaHq6wwgoNK/+3pjXunzVrVhGA+J//+Z947rnnIgMIp5xySlxxxRVNjiMDGiNHjiyCDrnSY7/99ottt902+vXrF7nqYvLkyfHwww9HyaepjvIZl1xySfnyZz7zmdhpp51ivfXWi+WXX77o/5VXXokMtjz66KNFv7/4xS8aBDVKKzKyo549e8ZGG20Ued/06dPLfTsgQIAAAQIECBAgQIAAgdoXENSo/XdkhAQIECBAgEAHEMjtp7LUD16MGzeu0fqispF/5PZVAwcObOTK4lW11v2bbbZZ5LZThxxySLz88suR88o5DxkypMHAcmVHBj1yFUVut5VBhlxBUVmyv7333rsIcFTWVx7feuut5YBGnz59IldbbLXVVpVNiuMMdBxwwAHF9lYXXHBBsTVV/Uaf/exni3sz6LPuuusWW1QdffTRghr1oZwTIECAAAECBAgQIECgxgUabjhc4wM2PAIECBAgQIBArQlkbobMFbHUUktF/lhfKvnj/sSJE4vT+sGOUpuO9J0Bk6985SvlIZfmVq7434Mrr7yyWDGRuS1+/OMfNwhoVLZfZpllKk/Lx2+//Xace+65xflyyy0Xl112WaMBjfIN/zjIYNDFF19cBF4q6/N4jz32iH333TfWX3/9RnNu1G/vnAABAgQIECBAgAABAgRqU0BQozbfi1ERIECAAAECHUigtPVU/qieWxuVSiajzq2Wcpuk/DG9M5Q11lijPI1Mvl2/fPLJJ3HTTTcV1dtss02RDLx+m8U5v/rqq2P27NlF02OOOSbWWWedxbmtCFh8/vOfX6y2GhEgQIAAAQIECBAgQIBAxxOw/VTHe2dGTIAAAQIECLSjQCabPvPMMxsdwbPPPhvDhg1rcO3999+P/IG/suTWSquvvnplVYc4njJlSnmcubVU/ZJbUuUqiyyZ+6JUctXK1KlTY9llly0SjOeqlqZK5r+47bbbisu5SuOLX/xiU03VEyBAgAABAgQIECBAgMASJiCosYS9cNMlQIAAAQIECLRUIFdOXH/99cXtGWyoH6jJC0888US5+1y5kgnBf/aznxWJvOfNm1dc69WrVxHwyJwWAwYMKLcvHbzwwgvlvBhbbLFFndUvpTa+CRAgQIAAAQIECBAgQGDJFBDUWDLfu1kTIECAAAECLRTYeeed6+TNmDZtWowcObLo7YorrogVV1yxOJ4/f34ceuihkSsUzjnnnAbbT/Xr16/REWTgYNKkSY1ey8oMJlRuAVW/YWvcX+ozAxovvvhidOnSJY4//vjyXCvH8NJLL5VPM6H4CSecELNmzSrX5cEHH3wQt99+e9x///1F3oxM9F1Znn/++fLpxhtvXD52QIAAAQIECBAgQIAAAQIEBDX8O0CAAAECBAgQaIZArjLIT6mUAhAZaKhMBv7cc88VAY1u3brF8OHDY+mlF+8/uzL59kEHHVTqvsH3lltuWSTNbnDhfyta+/5tt902vvrVrza6zVYOYebMmeWhnX/++YXBwQcfXCQYz+2q3nrrrbjxxhvjqquuig8//DC+/e1vxzXXXBOVW1lV9tGnT59yfw4IECBAgAABAgQIECBAgIBE4f4dIECAAAECBAh8CoGxY8cWd2+++eZ1eiklDx80aNBiBzTqdFCjJ6NHj47rrrsu3nzzzUZHmKs6SiVXqeQqlpNOOinWXHPNWGaZZYrtpnL1xte//vWiWeYb+c1vflO6pfjOYEepdO/evXTomwABAgQIECBAgAABAgQIxOL9ySAoAgQIECBAgACBRgXGjRtX1Feu0siKTJidpX6wo6hcyD8WtRJjIbcWl1rj/syFkcm///a3v8Wll14a9957bzz55JPxy1/+MtZZZ506Q8pE4KWSW3EddthhpdM637k117XXXhvTp0+Pv/zlL8WKjdzWKkvPnj3LbSuDJOVKBwQIECBAgAABAgQIECCwxApYqbHEvnoTJ0CAAAECBD6tQK4oKG0/VT+oUVqpMWTIkE/7mHa/P7fOWn311YstpDKokedTp06NH/zgBw3G1qNHj3LdVlttVazOKFdUHGQfpUTjud3U66+/Xr7au3fv8nEGPRQCBAgQIECAAAECBAgQIFASsFKjJOGbAAECBAgQILAIgX333TemTJnSaKsDDjig0frceqmyHHXUUXHMMcdUVnWo4/XXXz+23377Isl3Bm5eeeWVWHvttctz6N+/f6PH5cqKg8q277zzTrE1VV7eYIMNyq2effbZ8rEDAgQIECBAgAABAgQIECBgpYZ/BwgQIECAAAECBJolULnlVGmlSqmDDHqUyvz580uHjX5/8skn5fqlllqqfJx95NZVWTJnyQcffFC+5oAAAQIECBAgQIAAAQIElmwBKzWW7Pdv9gQIECBAgEAzBC6++OKYO3du+Y4zzzwznn766TjiiCNijz32KNeX8k7stddeDXJK9OnTp9yuox5UBiMqj3M+W2yxRXlalVtKlSsrDl577bXyWb9+/crHmVtjn332iauuuipmzZoVt9xySxxyyCHl6w4IECBAgAABAgQIECBAYMkVENRYct+9mRMgQIAAAQLNFKjcZimTZ7/00ktFD7vssksMHDiw3FtuyZRlhx12qFNfbtDBDyZOnFieQeUWUlm5xhprxEYbbRS5bdTo0aOLVRa9evUqty8dZD6Sxx57rDgdMGBArLLKKqVLxffBBx8cN9xwQ2Si8AwSpWXlCpE6jStOcnXIXXfdFRlQUggQIECAAAECBAgQIECg8wnYfqrzvVMzIkCAAAECBNpAIFdo5A/uPXv2rJMD4t133y0HO7bccss2GEnbPuLBBx+MMWPGFA/NLaIGDx7cYABf/epXi7pcZXH++ec3uJ4VP/3pTyMDG1m+/OUvF9+V/8iVG//5n/9ZVGU/Rx99dDz++OOVTRocv/jii3HcccfFlVde2eCaCgIECBAgQIAAAQIECBDoHAJWanSO92gWBAgQIECAQBsLlH7YHzJkSFTmgxg3blwsWLAg1lxzzejbt28bj+rTPy4DNfXzZOSqlKlTp0YGNHIrqFI59thjY+mlG/7n5O677x633XZb/O1vf4tRo0bFtGnTisDFqquuGm+99VbcdNNNxbXsJ1d1NJVk/Qtf+EK8/fbbcckll8SMGTOKBOvbbrttDB8+PNZdd93IFSDvvfdeTJ48uRjbww8/HLkd1oYbblgaYvk7x5DXK8v06dPLpznOyjJ06NDiHVbWOSZAgAABAgQIECBAgACB9hdo+H+h7T8mIyBAgAABAgQI1LxAJrDOkj9+V5YMamSpzC1Reb3Wj3NrqYMOOmihw8xAxr//+7/H/vvv32S7s88+u1hp8cgjjxTBhPoBhbxx0KBBccEFF0S3bt2a7OfII4+M9dZbLy688MJ44403IvvLT1Ml2x5//PENLr/88suROVCaKvWvnX766YIaTWGpJ0CAAAECBAgQIECAQDsKCGq0I75HEyBAgAABAh1TIPM2jB8/vhh8/eBFKdjRmbaeypUouSoic18MGzasCGbkSpSFlR49esTPfvaz+NOf/hR//OMfixwbM2fOjOWXX75YSfG5z30u9t577zqrXJrqL3OW7LjjjnH33XcXKzwy8PLOO+8U21fluFZbbbXYbLPNYtddd42tttoqMtG4QoAAAQIECBAgQIAAAQKdU6DLP7ZHWFDVqd3x16p2pzMCBAgQIECgAwt0WzZil2078AQMnQABAgQIECBAgAABAgQIEKglAYnCa+ltGAsBAgQIECBAgAABAgQIECBAgAABAgQIECDQpICgRpM0LhAgQIAAAQIECBAgQIAAAQIECBAgQIAAAQK1JCCoUUtvw1gIECBAgAABAgQIECBAgAABAgQIECBAgACBJgUENZqkcYEAAQIECBAgQIAAAQIECBAgQIAAAQIECBCoJQFBjVp6G8ZCgAABAgQIECBAgAABAgQIECBAgAABAgQINCkgqNEkjQsECBAgQIAAAQIECBAgQIAAAQIECBAgQIBALQkIatTS2zAWAgQIECBAgAABAgQIECBAgAABAgQIECBAoEkBQY0maVwgQIAAAQIECBAgQIAAAQIECBAgQIAAAQIEaklAUKOW3oaxECBAgAABAgQIECBAgAABAgQIECBAgAABAk0KCGo0SeMCAQIECBAgQIAAAQIECBAgQIAAAQIECBAgUEsCghq19DaMhQABAgQIECBAgAABAgQIECBAgAABAgQIEGhSQFCjSRoXCBAgQIAAAQIECBAgQIAAAQIECBAgQIAAgVoSENSopbdhLAQIECBAgAABAgQIECBAgAABAgQIECBAgECTAoIaTdK4QIAAAQIECBAgQIAAAQIECBAgQIAAAQIECNSSgKBGLb0NYyFAgAABAgQIECBAgAABAgQIECBAgAABAgSaFBDUaJLGBQIECBAgQIAAAQIECBAgQIAAAQIECBAgQKCWBAQ1aultGAsBAgQIECBAgAABAgQIECBAgAABAgQIECDQpICgRpM0LhAgQIAAAQIECBAgQIAAAQIECBAgQIAAAQK1JCCoUUtvw1gIECBAgAABAgQIECBAgAABAgQIECBAgACBJgUENZqkcYEAAQIECBAgQIAAAQIECBAgQIAAAQIECBCoJQFBjVp6G8ZCgAABAgQ6m8DceZ1tRuZDgAABAgQIECBAgAABAgQItKOAoEY74ns0AQIECBDo9AILFnT6KZogAQIECBAgQIAAAQIECBAg0HYCS1f9UV26VL1LHRIgQIAAAQIdVKCrv5/ooG/OsAkQIECAAAECBAgQIECAQE0KVD+o0aNHTU7UoAgQIECAAIF2EFh2mXZ4qEcSIECAAAECBAgQIECAAAECnVXAn0921jdrXgQIECBAgAABAgQIECBAgAABAgQIECBAoJMJCGp0shdqOgQIECBAgAABAgQIECBAgAABAgQIECBAoLMKCGp01jdrXgQIECBAgAABAgQIECBAgAABAgQIECBAoJMJCGp0shdqOgQIECBAgAABAgQIECBAgAABAgQIECBAoLMKCGp01jdrXgQIECBAgAABAgQIECBAgAABAgQIECBAoJMJCGp0shdqOgQIECBAgAABAgQIECBAgAABAgQIECBAoLMKCGp01jdrXgQIECBAgAABAgQIECBAgAABAgQIECBAoJMJCGp0shdqOgQIECBAgAABAgQIECBAgAABAgQIECBAoLMKCGp01jdrXgQIECBAgAABAgQIECBAgAABAgQIECBAoJMJCGp0shdqOgQIECBAgAABAgQIECBAgAABAgQIECBAoLMKCGp01jdrXgQIECBAgAABAgQIECBAgAABAgQIECBAoJMJCGp0shdqOgQIECBAgAABAgQIECBAgAABAgQIECBAoLMKCGp01jdrXgQIECBAgAABAgQIECBAgAABAgQIECBAoJMJLN3J5mM6BAgQIECAAIElSuCPf/xj3HLLLTFp0qT44IMPYsGCBbHhhhvG1VdfXdMORx99dIwZMya23HLLuOyyy2purMOGDSvGdNRRR8UxxxxTc+MzIAIECBAgQIAAAQIECCypAoIaS+qbN28CBAgQIECgxQKzZs2KDCb89a9/jeeffz5mzpxZBBN69uwZq6++eqy//voxZMiQ2G677WLVVVdt8XMWdeNFF10UV1555aKaVe16KRDRWIdLLbVULL/88rHuuuvG9ttvH1/84hejd+/ejTVVR4AAAQIECBAgQIAAAQIEWiwgqNFiOjcSIECAAAECS6LAhAkT4rvf/W68+eabDab/7rvvRn4mTpwYo0aNipVXXjnuuuuuBu2qUZHPL63G2GyzzeJrX/ta9O/fP7p06RLdu3cvHnHGGWfEbbfdFquttloxnmo8t6k+Pvnkk2LuY8eOjfzk2M4999wYOnRoU7eoJ0CAAAECBAgQIECAAAECzRYQ1Gg2mRsIECBAgACBJVXglVdeieOOOy4+/PDDgmCnnXaKXXfdNdZee+1Yeumlix/1c+XGo48+GqNHj25Vpuw/AwlZTj311GJ1SKs+sF7n1157bZ2aefPmxWuvvRa33357sYJlxowZcdJJJ8WNN94YK620Up22TggQIECAAAECBAgQIECAQEsFBDVaKuc+AgQIECBAYIkT+MUvflEOaJx++umx7777NjDYdttt49BDD4133nkn/vznPze4Xq2KqVOnlrvKoEpbl4EDBzZ45MYbbxy77bZbpE1uz/Xee+8V+T4OP/zwBm1VECBAgAABAgQIECBAgACBlgh0bclN7iFAgAABAgQILGkCuSriwQcfLKY9aNCgRgMalSa5OuGAAw6orKrq8ccff1zuL1eJ1FLJoE6p5FZcCgECBAgQIECAAAECBAgQqJZAbf0fcLVmpR8CBAgQIECAQJUFcuXFnDlzil4HDBhQld7feOONuOaaa4rtqjJHRgZO+vXrF8OGDYsDDzwwGlsNkatDpkyZUuf52b6y7LPPPkUujVJdtq/fJq+11hZZa6yxRunRURl8KVcu4iDHNXLkyKLVJZdc0ujYS12U5nXUUUfFMcccU6ouf+eKltwq65FHHim2x5o9e3aRwDyDTpnQPZO577zzztGrV6/yPY0dPPXUU/GHP/whxo0bV6zCWXHFFYtxHXHEEUVy9MbuUUeAAAECBAgQIECAAAEC1RcQ1Ki+qR4JECBAgACBTiiwzDLLlGf18ssvl49bepAJvH/0ox81+NH/1VdfjfzceuutxQ/7HXHrpsqgy6qrrtpSok99XyYs/+Y3v1neMqzUYeb7yM8LL7wQf/rTnyIDFDvuuGPpcoPv66+/Ps4777xyDpNskMGSO+64I+6999747//+79hyyy0b3KeCAAECBAgQIECAAAECBKovIKhRfVM9EiBAgAABAp1QoHfv3rHaaqsVqySee+65+O1vfxv/9m//Fl27Nn83z9zG6swzz4wFCxZEjx494l//9V/jM5/5TCy11FIxfvz4ou933303fv7zn8fyyy8fI0aMKItefPHFMXfu3LjhhhuKT16on7Q7VyEccsgh8ctf/jLuv//+6Nu3b/zsZz8r99HaB1deeWX5EcOHDy8ft+VBrhD57ne/WwQ0evbsGV/+8peLlRV9+vQp/F5//fWYMGFC3HfffQsdVq7wyFUauWrmoIMOKr5zxU4GM9I9V36cdtppcfPNN0dl4GuhnbpIgAABAgQIECBAgAABAi0WENRoMZ0bCRAgQIAAgSVNILeEuvDCC4tpZ3Dhpptuip122imGDBkSgwcPjsptl5qymTdvXvzwhz8sBzQuv/zy2GijjcrNN9tss9h1110jV2hMmzateF4m387VBFlKScEzcFEqjW1TtfLKKxcBkWyTOTcaa1O6vyXfkyZNqnNbziu30yqtXsiLu+++e3z2s5+t066tTjI4VEqmftZZZzVYiZHOe+65Z5x00klFYKKpcT3xxBOx/fbbFys1KoMWW2yxRbGNVQaOcuuwDFTlNlYKAQIECBAgQIAAAQIECLSugKBG6/rqnQABAgQIEOhEAgcffHC8+OKLxdZQOa38ET//Wr+0UiIDCbkN0V577VX8iN6lS5cGs8+/8C/92J75GCoDGqXGuSLkhBNOiO9///vFD+65FVWuCqmlkqsWmioZePnqV78amdujvcr06dPLj84ARFMlAz4Ly6fRrVu3OP300xtdhZEGV1xxRbHyI7e6EtRoSlk9AQIECBAgQIAAAQIEqifQ/P0SqvdsPREgQIAAAQIEOpRAbjWVWw3lKo1cgZDbRVWW/CH9z3/+c/HX/4cddliRmLryeh4/9thjRVUGPPbbb7/6l8vnuTqj9GN76Z7yxRo/eOWVV4pVLGPGjGm3ka6yyirlZ48aNap83NyDbbbZJnLLqsZKbmu15pprFpdyOyuFAAECBAgQIECAAAECBFpfwEqN1jf2BAIECBAgQKCTCWy77baRnw8++KDIgTFx4sTIT/61ftZlyfMjjzwyrrrqqqj8gT2TU2dZffXVo3ILqaKy4h+51VGu4nj88ceLhNYVl2ricPTo0XXGMX/+/Mg8IOPGjStWL+S2Tccee2z84Ac/iAzQtHUZOnRosR1YBhvOP//8YlusXEmRqzZyq7DKraQWNrZ11llnYZeLLaiywUcffbTQdi4SIECAAAECBAgQIECAQHUEBDWq46gXAgQIECBAYAkUyJUUmW8hP1kyOfWdd95Z5MF47733ipwYmXMht5EqlZkzZxaHTf31f6ldfud2Vlmyr1ovuYol57TLLrsUAZ9MVD558uQiqLH11luXf/xvq3nktlI//elP45RTTomXXnqpCDJloClLbimV24TtvffeRd6P+ituKsfYvXv3ytMGx6Utxj755JMG11QQIECAAAECBAgQIECAQPUFbD9VfVM9EiBAgAABAkuowLLLLhtf+MIXikTgJYLMoZGrGOqX0o/h9es7w3mPHj1ixIgRxVQ+/PDDuPvuu9tlWuutt16R7+S8884r3ktpq6g5c+bEww8/HKeeemqR+2PGjBntMj4PJUCAAAECBAgQIECAAIHmC1ip0XwzdxAgQIAAAQIEFiqw3XbbRf/+/eOtt94qVlnk6ozSVlO9e/cu7q1MZN1UZ6U2K6ywQlNNara+ctumSZMmNWucueqjVBYsWFA6bPA9a9asBnX1K3IVxr/8y78Un7w2bdq0eOihh+L666+Pp59+uvj86Ec/igx8KAQIECBAgAABAgQIECBQ+wL/93+MtT9WIyRAgAABAgQIdBiBvn37lsdauSpj/fXXL+rfeOONeOedd8pt6h/Mmzcvnn322aK6dE/9Nos6r3zuotpW+3rldkyVx4vznFzpUSoL23orE5I3t2R+k1xN85vf/CY23njj4vYHHnggZs+e3dyutCdAgAABAgQIECBAgACBdhAQ1GgHdI8kQIAAAQIEOrdA/kCeeRyy9OzZs04+iW222aaozxUIt956a3Hc2D/+8pe/lJOOl+5prN3C6nI7rCyZ66OtSyl/RT43V600p2QS9VLJ1RRNlbvuuqupS4usz5wbmVcjSwZdSgneF3mjBgQIECBAgAABAgQIECDQrgKCGu3K7+EECBAgQIBARxH46KOP4rDDDov8q/7GcmSU5pHXzj333MhcEll22mmnqFwxkVshlVZx/PrXv47GtmZ6880346KLLiruz0TVubKgJSVXJWTJFSGl8bSkn+beM2XKlGJ7p9J9pUTqpfNFfed2WxtssEHRbNSoUVFKrl5537hx44p8GZV1lcdjx46NV199tbKqzvHcuXNjzJgxRV2uDFlxxRXrXHdCgAABAgQIECBAgAABArUpIKdGbb4XoyJAgAABAgRqUOCpp56KE088Mfr16xfDhw+PIUOGxGqrrRb5o/j7779fbBeVqy9KgYpevXrFv//7v9eZyTLLLBPf+973in4y0PC1r30tDj300Nh6660j8z+MHz8+fve730UpefU3v/nNFv/gnuPLkoGWs88+Ow488MA6fZUSZ9cZ4GKelOZYap4rTzL4kMGEa6+9thyI2GuvvWKjjTYqNVvs76985SuRuS4yr8hRRx1VOK299tpFjpIHH3wwbrjhhthkk01iwoQJjfb52GOPxa9+9asYOnRo7LDDDkWQJPOa5CqayZMnx4033hjPPPNMce9+++0XuXJDIUCAAAECBAgQIECAAIHaF/B/b7X/joyQAAECBAgQqAGBDDisvPLKxY/sb7/9drESIZNNN1XWWmut+OEPfxiVWymV2uaP7Keffnrxo30GNi655JLiU7qe3/m8kSNHxogRIyqrm3WcgZLNNtssnnjiibjzzjuLT2UHo0ePrjxt1vFBBx20yPa77757fP/7319ku8Ya7L///kVC7/vuuy9efPHFIhBU2W7gwIHFipg999yzsrrOcQZzcjVGaUVGnYv/e5LBqW984xuNXVJHgAABAgQIECBAgAABAjUoIKhRgy/FkAgQIECAAIHaE+jWrVvccccdRYAgVwFkoCATVeeKisxZkdtE5bZSuW1S/lC+6667Rq7KaKrss88+RU6Ha665Jh555JHILafyR/jsI4MRuaoif7j/NKVr165x8cUXx+9///ti26zXXnstZs2aFbmqotolt9jKFSuZPyMDKXvvvXc5Z0VLnpVjP+ecc+Kmm26K3IKqlKNkwIABkcGSgw8+uDBvqu9c/ZLvIt9VJlyfOnVqOTF7BqcGDx5cjDEDTAoBAgQIECBAgAABAgQIdByBLv/4n9rq/l/tXx/vOLM3UgIECBAgQKB1BZb9x4/62/5zC6TWfZDeCRAgQIAAAQIECBAgQIAAgSVBQKLwJeEtmyMBAgQIECBAgAABAgQIECBAgAABAgQIEOgEAoIaneAlmgIBAgQIECBAgAABAgQIECBAgAABAgQIEFgSBAQ1loS3bI4ECBAgQIAAAQIECBAgQIAAAQIECBAgQKATCAhqdIKXaAoECBAgQIAAAQIECBAgQIAAAQIECBAgQGBJEBDUWBLesjkSIECAAAECBAgQIECAAAECBAgQIECAAIFOICCo0QleoikQIECAAAECBAgQIECAAAECBAgQIECAAIElQUBQY0l4y+ZIgAABAgQIECBAgAABAgQIECBAgAABAgQ6gYCgRid4iaZAgAABAgQIECBAgAABAgQIECBAgAABAgSWBAFBjSXhLZsjAQIECBAgQIAAAQIECBAgQIAAAQIECBDoBAKCGp3gJZoCAQIECBAgQIAAAQIECBAgQIAAAQIECBBYEgQENZaEt2yOBAgQIECAAAECBAgQIECAAAECBAgQIECgEwgs3QnmYAoECBAgQIAAgXYXmDBhQhxxxBHRvXv3uO+++2Lppf/5n1nvv/9+7LrrrjF//vy47bbbYtVVV210rMOGDWu0vrHKffbZJ84444w6lz7t/XU6+8fJ6NGj4/77748xY8bEtGnTYubMmcXcVl555dhkk03is5/9bOyyyy5FXf17c64vv/xyPPXUU8Vn4sSJ8fzzz8fcuXOLppdcckk0Z7yl/j/NmEp9lL7ffPPNuOuuu+LRRx+NV199Nd55551YsGBBrLDCCrH++uvH0KFDY6+99oo11lijdItvAgQIECBAgAABAgQIEKgBAUGNGngJhkCAAAECBAh0fIHx48cXk9h0003LAY2syPr8kb9///5NBjRqafYZfDjnnHNi3LhxDYb1wQcfRH5eeeWVuPPOO+O8884rAjkHH3xwdO36fwuAb7/99gZBlwadNaOiGmMqPW7OnDlx8cUXx4033hgff/xxqbr8PXXq1MjPI488EpdeemnstttuccIJJ3SId1eehAMCBAgQIECAAAECBAh0YgFBjU78ck2NAAECBAgQaDuBUlAj/8K/sowdO7Y4rV9f2abyeNCgQXHaaadVVjU4ztUETZVPc//f/va3+M53vhMfffRR0f16660Xe+yxR2SfK620UsyaNSumTJkSDz/8cPz1r3+N9957Ly688MLYb7/9Yvnlly8PKVc8lEquWBk4cGDMmzcvJk2aVKpe7O9qjSkf+O6778aJJ54YTzzxRPH8nj17xuc+97nYeuuto1+/fkUwavr06UUg6t57743JkyfHn//859hss80iAzcKAQIECBAgQIAAAQIECLS/gKBG+78DIyBAgAABAgQ6gUBuP5WlfvCitOKhfn1TU87tqzII0NLS0vtfeOGFOOWUU2L27Nmx1FJLxcknnxwjRoyoswKjNKa999672K7psssui+uvv75UXf5ed91141vf+lYMHjw4Ntxww+jWrVux6qG5QY1qjilXy3z7298uBzR23HHH+P73vx99+vQpj7t0sNNOO8U3vvGNuOOOO+Kiiy4qVfsmQIAAAQIECBAgQIAAgRoQENSogZdgCAQIECBAgEDHFsicDDNmzCiCAflX/aWSWx1lPoksixvUKN3blt+5siJ/4M+ARpbTTz89Pv/5zy90CLlyI4MgmRujlD+kdENuwZWfT1OqPaZrrrmmyBOSY9puu+3iJz/5SYNxV443t9PK4E3OL1dsKAQIECBAgAABAgQIECBQGwKCGrXxHoyCAAECBAgQ6MACpa2ncoVFbmlUKpkoO5Nj59ZMmXy6VsuDDz4Yzz33XDG8XMGwqIBG5TwyCXprlGqOKd/BVVddVQwzV43k9l71AzFNzSFzoeRHIUCAAAECBAgQIECAAIHaEBDUqI33YBQECBAgQIBABxEYNWpUnHnmmY2O9tlnny3+sr/+xffffz+22WabOtW33nprrL766nXq2uskx1IqtZI7oppjyhwgmfw7SwZh+vbtW5qubwIECBAgQIAAAQIECBDoYAJdO9h4DZcAAQIECBAgQKDKAqW8H8stt1xsueWWVe69Zd1Vc0xjxowpD2KHHXYoHzsgQIAAAQIECBAgQIAAgY4nYKVGx3tnRkyAAAECBAi0o8DOO+8clXkzpk2bFiNHjixGdMUVV8SKK65YHGdi6kMPPTQyr8Y555zTYPupfv36NTqLzGuxsITaGXhYY401Gr03K5t7/9tvv10k/c57M6l3Jglv71LtMZW21sp5bbLJJu09Pc8nQIAAAQIECBAgQIAAgU8hIKjxKfDcSoAAAQIECCx5Ar169Yr8lEopAJGBhspk4PlDegY0MofD8OHDFzuHQyYWP+igg0rdN/jOlRSXXXZZg/pSRXPvnzlzZunW6NOnT/m4PQ+qPabK/jLBuUKAAAECBAgQIECAAAECHVfA9lMd990ZOQECBAgQIFADAmPHji1Gsfnmm9cZTSl5+KBBgxY7oFGngzY6+fDDD8tP6t69e/m4PQ+qPaaPPvqoPJ1c6aIQIECAAAECBAgQIECAQMcVsFKj4747IydAgAABAgRqQKCU+6FylUYOa8KECcXo6gc7FjXkRa3EqPb9PXv2LHeZW1fVQqn2mHr06FGe1qxZs+qstClfcECAAAECBAgQIECAAAECHULASo0O8ZoMkgABAgQIEKhFgVxRUNp+qn5Qo7RSY8iQIbU49PKYevfuXT6ePn16+bg9D6o9psr+ZsyY0Z5T82wCBAgQIECAAAECBAgQ+JQCVmp8SkC3EyBAgAABAkuOwL777htTpkxpdMIHHHBAo/UnnXRSnfqjjjoqjjnmmDp17XmSCcszufm7774bzz//fHzyySftniy82mPKBOiPPfZYwfzMM8/EWmut1Z7knk2AAAECBAgQIECAAAECn0LASo1PgedWAgQIECBAgEBnENhiiy2KaeTWTGPGjKmJKVVzTLmlV6k8+OCDpUPfBAgQIECAAAECBAgQINABBazU6IAvzZAJECBAgACB9hG4+OKLY+7cueWHn3nmmfH000/HEUccEXvssUe5/tJLL41777039tprrzjssMPK9XnQp0+fOue1cPKFL3yhGG+O5eqrr46tt9663YdVzTFtt9120bdv35g6dWrcfffdceyxx0auBlEIECBAgAABAgQIECBAoOMJWKnR8d6ZERMgQIAAAQLtJLD22mvHwIEDi88666wTL730UjGSXXbZpVyf11955ZWifocddqhTn9dqMaiR48wtmrI88MADcfvttxfHi/OPe+65J3KFR7VLNce0zDLLxCGHHFIMcc6cOfGDH/yg2GZrccb89ttvx9///vfFaaoNAQIECBAgQIAAAQIECLSBgKBGGyB7BAECBAgQIND5BHKFxuzZs6Nnz56xwQYblCeYuSlKwY7KbY/KDWrwoEuXLsUP/d27dy9GlytQrr/++pg/f36To815/uQnP4lTTjkl5s2b12S7ll6o9pj+3//7fzFs2LBiOA8//HB861vfinfeeafJ4S1YsCDuvPPOOPTQQ4tcI002dIEAAQIECBAgQIAAAQIE2lTA9lNtyu1hBAgQIECAQGcRKOWeGDJkSJ3E2uPGjYv8QXzNNdcstjzqKPNdf/3145xzzonvfOc78dFHHxXHN9xwQ+y+++4xePDgWGmllYoVGW+++WY88sgjcd9998WHH37Y5PRGjRpV59pzzz1XPs+gQmXC9bQaOnRo+XrpoJpj6tq1a/z4xz+Ob37zm/Hkk08WK1L233//2HPPPYvttnI7qqWXXjqmT58eTzzxROQKlJdffrk0FN8ECBAgQIAAAQIECBAgUCMCgho18iIMgwABAgQIEOhYAmPHji0GXP/H+AxqZCklui5OOsg/tt9++/jVr35V/Pg/fvz4eOGFF4pPU8Pv3bt3HHXUUcVqlfptcrVHU+V3v/tdnUv77LNPo0GNbFTNMa244oqR+U4yN0oGbDIoc+ONNxafOgP635NcLZJBjwzsKAQIECBAgAABAgQIECBQGwKCGrXxHoyCAAECBAgQ6EACuS1T/uifpX7wohTs6ChbT9Vnz620MrCReSTuv//+yBUp06ZNi5kzZ0ZuT7XKKqvEoEGDimDDzjvvHN26davfRdXPqzmmHO/JJ58c//qv/1psL/XYY4/F5MmTy1tRrbDCCpErRPL9ZaL31VZbrerz0SEBAgQIECBAgAABAgQItFygyz+2R1jQ8tsbufOvjzdSqYoAAQIECBBYIgWWXSZi2yFL5NRNmgABAgQIECBAgAABAgQIEKi+gETh1TfVIwECBAgQIECAAAECBAgQIECAAAECBAgQINAKAoIarYCqSwIECBAgQIAAAQIECBAgQIAAAQIECBAgQKD6AoIa1TfVIwECBAgQIECAAAECBAgQIECAAAECBAgQINAKAoIarYCqSwIECBAgQIAAAQIECBAgQIAAAQIECBAgQKD6AoIa1TfVIwECBAgQIECAAAECBAgQIECAAAECBAgQINAKAoIarYCqSwIECBAgQIAAAQIECBAgQIAAAQIECBAgQKD6AoIa1TfVIwECBAgQIECAAAECBAgQIECAAAECBAgQINAKAoIarYCqSwIECBAgQIAAAQIECBAgQIAAAQIECBAgQKD6AoIa1TfVIwECBAgQIECAAAECBAgQIECAAAECBAgQINAKAoIarYCqSwIECBAgQIAAAQIECBAgQIAAAQIECBAgQKD6AoIa1TfVIwECBAgQIECAAAECBAgQIECAAAECBAgQINAKAoIarYCqSwIECBAgQIAAAQIECBAgQIAAAQIECBAgQKD6AoIa1TfVIwECBAgQIECAAAECBAgQIECAAAECBAgQINAKAoIarYCqSwIECBAgQIAAAQIECBAgQIAAAQIECBAgQKD6AoIa1TfVIwECBAgQIECAAAECBAgQIECAAAECBAgQINAKAoIarYCqSwIECBAgQIAAAQIECBAgQIAAAQIECBAgQKD6AoIa1TfVIwECBAgQIECAAAECBAgQIECAAAECBAgQINAKAoIarYCqSwIECBAgQIAAAQIECBAgQIAAAQIECBAgQKD6AoIa1TfVIwECBAgQIECAAAECBAgQIECAAAECBAgQINAKAoIarYCqSwIECBAgQIAAAQIECBAgQIAAAQIECBAgQKD6Al0W/KNUv1s9EiBAgAABAgQIECBAgAABAgQIECBAgAABAgSqK2ClRnU99UaAAAECBAgQIECAAAECBAgQIECAAAECBAi0koCgRivB6pYAAQIECBAgQIAAAQIECBAgQIAAAQIECBCoroCgRnU99UaAAAECBAgQIECAAAECBAgQIECAAAECBAi0koCgRivB6pYAAQIECBAgQIAAAQIECBAgQIAAAQIECBCoroCgRnU99UaAAAECBAgQIECAAAECBAgQIECAAAECBAi0koCgRivB6pYAAQIECBAgQIAAAQIECBAgQIAAAQIECBCoroCgRnU99UaAAAECBAgQIECAAAECBAgQIECAAAECBAi0koCgRivB6pYAAQIECBAgQIAAAQIECBAgQIAAAQIECBCoroCgRnU99UaAAAECBAgQIECAAAECBAgQIECAAAECBAi0koCgRivB6pYAAQIECBAgQIAAAQIECBAgQIAAAQIECBCoroCgRnU99UaAAAECBAgQIECAAAECBAgQIECAAAECBAi0koCgRivB6pYAAQIECBAgQIAAAQIECBAgQIAAAQIECBCoroCgRnU99UaAAAECBAgQIECAAAECBAgQIECAAAECBAi0koCgRivB6pYAAQIECBAgQIAAAQIECBAgQIAAAQIECBCoroCgRnU99UaAAAECBAgQIECAAAECBAgQIECAAAECBAi0koCgRivB6pYAAQIECBAgQIAAAQIECBAgQIAAAQIECBCoroCgRnU99UaAAAECBAgQIECAAAECBAgQIECAAAECBAi0koCgRivB6pYAAQIECBAgQIAAAQIECBAgQIAAAQIECBCoroCgRnU99UaAAAECBAgQIECAAAECBAgQIECAAAECBAi0ksD/B7pNvrd7HIeoAAAAAElFTkSuQmCC;" vertex="1" parent="1">
          <mxGeometry x="1486.003333333334" y="50.00333333333393" width="1589" height="1010" as="geometry" />
        </mxCell>
      </root>
    </mxGraphModel>
  </diagram>
</mxfile>
